<?xml version="1.0" standalone="no"?>
<!DOCTYPE svg PUBLIC "-//W3C//DTD SVG 1.1//EN" "http://www.w3.org/Graphics/SVG/1.1/DTD/svg11.dtd" >
<svg xmlns="http://www.w3.org/2000/svg" xmlns:xlink="http://www.w3.org/1999/xlink" version="1.1">
<metadata></metadata>
<defs>
<font id="maitreebold" horiz-adv-x="1579" >
<font-face units-per-em="2048" ascent="1536" descent="-512" />
<missing-glyph horiz-adv-x="552" />
<glyph unicode="&#xfb01;" horiz-adv-x="1454" d="M70 895q0 49 34.5 75.5t92.5 26.5h39v58q0 131 66.5 227t179 146.5t251.5 50.5q160 0 292 -44t210 -106v-217q0 -20 -13.5 -32.5t-39.5 -12.5q-37 0 -58.5 22.5t-33.5 67.5l-25 84q-43 25 -112.5 44.5t-147.5 19.5q-121 0 -202 -68t-81 -170v-70h756v-835l74 -37 q47 -23 65.5 -40t18.5 -46q0 -20 -8.5 -29.5t-28.5 -9.5h-498q-55 0 -55 68q0 47 33.5 71.5t93.5 24.5h18v674l-469 -15v-661l74 -37q47 -23 65.5 -40t18.5 -46q0 -20 -8 -29.5t-29 -9.5h-498q-55 0 -55 68q0 47 34 71.5t93 24.5h19v659h-107q-27 0 -43 19.5t-16 52.5z" />
<glyph unicode="&#xfb02;" horiz-adv-x="1427" d="M70 895q0 49 34.5 75.5t92.5 26.5h39v58q0 131 66.5 227t179 146.5t251.5 50.5q160 0 292 -44t210 -106v-1167l74 -37q47 -23 65.5 -40t18.5 -46q0 -20 -8.5 -29.5t-28.5 -9.5h-498q-55 0 -55 68q0 47 33.5 71.5t93.5 24.5h18v1122q-74 18 -143 19q-121 0 -202 -68 t-81 -170v-70h258q41 0 41 -45t-34.5 -72.5t-110.5 -35.5l-154 -21v-661l74 -37q47 -23 65.5 -40t18.5 -46q0 -20 -8 -29.5t-29 -9.5h-498q-55 0 -55 68q0 47 34 71.5t93 24.5h19v659h-107q-27 0 -43 19.5t-16 52.5z" />
<glyph horiz-adv-x="1024" />
<glyph horiz-adv-x="1024" />
<glyph unicode="&#xd;" horiz-adv-x="552" />
<glyph unicode=" "  horiz-adv-x="552" />
<glyph unicode="&#x09;" horiz-adv-x="552" />
<glyph unicode="&#xa0;" horiz-adv-x="552" />
<glyph unicode="!" horiz-adv-x="712" d="M193 1454h327l-76 -1114h-174zM223 104q0 59 38 96.5t95 37.5t96.5 -37t39.5 -97q0 -61 -39 -98t-97 -37q-57 0 -95 37t-38 98z" />
<glyph unicode="&#x22;" horiz-adv-x="921" d="M55 842l92 614l277 -24l-154 -590h-215zM498 842l90 614l278 -24l-155 -590h-213z" />
<glyph unicode="#" horiz-adv-x="1302" d="M35 295v194h209l43 226h-181v194h216l53 283h252l-54 -283h238l53 283h252l-53 -283h174v-194h-209l-43 -226h184v-194h-219l-55 -295h-252l55 295h-237l-55 -295h-252l55 295h-174zM496 489h237l43 226h-237z" />
<glyph unicode="$" horiz-adv-x="1413" d="M127 90v338q0 23 12.5 36t36.5 13q37 0 59.5 -28.5t51.5 -114.5l39 -115q39 -25 115.5 -42t156.5 -17q115 0 193.5 39t78.5 125q0 59 -27.5 100t-90 80t-185.5 96q-135 61 -226 119.5t-149.5 142.5t-58.5 197q0 160 111.5 254t285.5 114v172h226v-176q98 -16 188 -50 t154 -81v-313q0 -20 -12.5 -34.5t-34.5 -14.5q-39 0 -62.5 28.5t-50.5 114.5l-37 115q-106 55 -252 55q-96 0 -154.5 -38t-58.5 -113q0 -49 33 -87t88 -70t172 -87q23 -10 42.5 -19.5t35.5 -17.5q117 -57 194.5 -113.5t125 -139.5t47.5 -202q0 -170 -117 -265t-314 -116 v-168h-225v168q-109 12 -216 44t-175 71z" />
<glyph unicode="%" horiz-adv-x="1824" d="M86 1098q0 154 89 245t243 91t243 -91.5t89 -244.5q0 -156 -89.5 -248t-242.5 -92q-154 0 -243 92t-89 248zM311 1098q0 -86 30 -124t77 -38t76.5 38t29.5 124t-29.5 124t-76.5 38t-77 -38t-30 -124zM328 109l934 1325l223 -150l-942 -1319zM1075 309q0 154 89 245 t243 91t243 -91t89 -245q0 -156 -89 -248t-243 -92t-243 92.5t-89 247.5zM1300 309q0 -86 30 -124t77 -38t76.5 38t29.5 124t-29.5 124t-76.5 38t-77 -38t-30 -124z" />
<glyph unicode="&#x26;" horiz-adv-x="1527" d="M66 356q0 254 280 373q-80 78 -125 161t-45 177q0 106 57.5 183t153.5 117t213 40q129 0 225.5 -46t146.5 -125t50 -171q0 -119 -67.5 -201t-200.5 -137l299 -287q47 72 67 187h-104q-29 0 -44.5 18.5t-15.5 52.5q0 51 37 77t99 26h395q37 0 37 -41q0 -31 -17.5 -50.5 t-54.5 -33.5l-156 -60q-14 -78 -45.5 -153.5t-76.5 -136.5l163 -160l99 -35q51 -16 73.5 -36.5t22.5 -51.5q0 -20 -8 -31.5t-31 -11.5h-412l-100 100q-72 -59 -175.5 -95t-225.5 -36q-142 0 -258.5 47t-186 135.5t-69.5 204.5zM362 362q0 -104 74 -161.5t182 -57.5 q133 0 246 78l-389 365q-113 -84 -113 -224zM473 1092q0 -63 38 -126t97 -112q125 71 125 225q0 70 -34.5 112t-94.5 42q-59 0 -95 -36t-36 -105z" />
<glyph unicode="'" horiz-adv-x="479" d="M55 842l92 614l277 -24l-154 -590h-215z" />
<glyph unicode="(" horiz-adv-x="690" d="M80 717q0 242 69.5 463t194.5 407h266q-106 -207 -164.5 -421t-58.5 -449q0 -446 223 -879h-266q-123 187 -193.5 411t-70.5 468z" />
<glyph unicode=")" horiz-adv-x="690" d="M80 -162q223 433 223 879q0 236 -58.5 449.5t-164.5 420.5h266q125 -186 194.5 -407.5t69.5 -462.5q0 -244 -70.5 -468t-193.5 -411h-266z" />
<glyph unicode="*" horiz-adv-x="874" d="M45 1051l274 71l-274 70l113 242l223 -199l-78 266h268l-77 -266l198 199l131 -236l-268 -76l274 -78l-143 -231l-201 195l78 -267h-260l78 267l-203 -185z" />
<glyph unicode="+" horiz-adv-x="1218" d="M100 559v236h357v376h305v-376h356v-236h-356v-362h-305v362h-357z" />
<glyph unicode="," horiz-adv-x="716" d="M117 -272q51 70 101 175t56 167l-63 20q-25 8 -37 22.5t-12 41.5q0 41 26.5 65.5t71.5 24.5q27 0 41 -4l268 -60q-33 -121 -116.5 -279.5t-184.5 -265.5z" />
<glyph unicode="-" horiz-adv-x="712" d="M31 496v235h651v-235h-651z" />
<glyph unicode="." horiz-adv-x="583" d="M127 135q0 72 48 119t118 47q68 0 116 -47t48 -119t-48.5 -119t-115.5 -47q-70 0 -118 47t-48 119z" />
<glyph unicode="/" horiz-adv-x="831" d="M-78 -172l709 1741l268 -103l-709 -1740z" />
<glyph unicode="0" horiz-adv-x="1499" d="M96 700q0 205 72 371t219.5 264.5t362.5 98.5t362.5 -98.5t219 -264.5t71.5 -371t-71.5 -370.5t-219 -263t-362.5 -97.5t-362.5 97.5t-219.5 263.5t-72 370zM403 700q0 -258 89.5 -399t257.5 -141t257 141t89 399t-89 400.5t-257 142.5t-257.5 -142.5t-89.5 -400.5z" />
<glyph unicode="1" horiz-adv-x="946" d="M80 1233q0 47 26.5 74.5t81.5 46.5l152 49h291v-1231l106 -35q57 -18 80 -38.5t23 -51.5q0 -47 -39 -47h-641q-29 0 -44.5 18.5t-15.5 53.5q0 51 37 76.5t99 25.5h90v1047l-183 -56q-29 0 -46 17.5t-17 50.5z" />
<glyph unicode="2" horiz-adv-x="1220" d="M111 0v223l446 449q111 111 167 198.5t56 180.5q0 92 -57 136t-150 44q-109 0 -225 -49l-39 -115q-29 -88 -51 -116.5t-61 -28.5q-25 0 -37.5 13t-12.5 36v317q254 135 486 135q225 0 344 -98t119 -297q0 -129 -77 -256t-226 -276l-295 -297v-9h616v-190h-1003z" />
<glyph unicode="3" horiz-adv-x="1222" d="M90 59v197q92 -37 208 -61.5t216 -24.5q283 0 283 240q0 94 -70 155.5t-182 61.5q-72 0 -215 -25v191l155 20q264 33 265 227q0 90 -59.5 140.5t-160.5 50.5q-109 0 -225 -49l-39 -115q-29 -88 -51 -116.5t-61 -28.5q-25 0 -37.5 13t-12.5 36v317q254 135 494 135 q197 0 327 -86t130 -256q0 -129 -79 -219t-218 -129q154 -25 249 -116t95 -234q0 -125 -74 -216t-203 -139t-288 -48q-119 0 -244 23.5t-203 55.5z" />
<glyph unicode="4" horiz-adv-x="1345" d="M55 281v178l670 944h348v-932h176v-190h-176v-281h-305v281h-713zM307 471h461v651z" />
<glyph unicode="5" horiz-adv-x="1146" d="M76 57v193q80 -33 184.5 -56.5t198.5 -23.5q137 0 222 59.5t85 196.5q0 123 -74 190.5t-194 67.5q-63 0 -121 -9t-141 -30l-127 119l53 639h796v-191h-505l-31 -362q104 25 211 24q197 0 317.5 -113.5t120.5 -311.5q0 -244 -163 -356.5t-410 -112.5q-111 0 -220.5 20 t-201.5 57z" />
<glyph unicode="6" horiz-adv-x="1265" d="M96 674q0 215 83 385t242 267t378 97q74 0 182 -24v-187q-80 20 -178 21q-111 0 -203 -50t-146.5 -150.5t-54.5 -239.5q61 35 138 56t153 21q150 0 258.5 -54t164.5 -151.5t56 -222.5q0 -145 -67.5 -249.5t-185 -158.5t-263.5 -54q-270 0 -413.5 184t-143.5 510zM401 598 q0 -207 61.5 -317.5t182.5 -110.5q113 0 166 78t53 184q0 119 -59.5 183.5t-167.5 64.5q-55 0 -119.5 -22.5t-116.5 -59.5z" />
<glyph unicode="7" horiz-adv-x="1196" d="M76 1085v318h1044v-164l-495 -1239h-338l497 1212h-536l-27 -79q-14 -47 -36.5 -72t-59.5 -25q-25 0 -37 13.5t-12 35.5z" />
<glyph unicode="8" horiz-adv-x="1359" d="M117 373q0 111 77.5 206t213.5 154q-121 66 -176.5 149t-55.5 189q0 100 63.5 182t180.5 129.5t268 47.5q150 0 260.5 -46.5t169 -127t58.5 -183.5q0 -102 -53.5 -179t-170.5 -153q139 -63 215 -154t76 -204q0 -125 -74.5 -217t-204.5 -142.5t-292 -50.5 q-160 0 -286 48.5t-197.5 138.5t-71.5 213zM410 367q0 -92 74.5 -147.5t183.5 -55.5q108 0 183 55t75 148q0 82 -76 146.5t-182 107.5q-106 -43 -182 -107.5t-76 -146.5zM487 1075q0 -125 201 -217q201 92 201 217q0 76 -58.5 120t-142.5 44t-142.5 -44t-58.5 -120z" />
<glyph unicode="9" horiz-adv-x="1265" d="M96 940q0 147 67.5 257t185.5 168t263 58q274 0 415.5 -178t141.5 -516q0 -209 -78.5 -380t-231 -270t-363.5 -99q-58 0 -123.5 9t-108.5 23v187q98 -29 201 -29q168 0 280.5 99.5t120.5 299.5q-61 -35 -138 -56t-153 -21q-147 0 -255.5 59t-166 161.5t-57.5 227.5z M401 950q0 -121 60.5 -194.5t167.5 -73.5q55 0 119.5 22.5t115.5 59.5q0 223 -62.5 346t-180.5 123q-115 0 -167.5 -81t-52.5 -202z" />
<glyph unicode=":" horiz-adv-x="634" d="M127 182q0 84 54.5 137.5t135.5 53.5q82 0 136.5 -53.5t54.5 -137.5t-54.5 -137t-136.5 -53q-81 0 -135.5 53t-54.5 137zM127 920q0 84 54.5 137t135.5 53q82 0 136.5 -53t54.5 -137t-54.5 -137.5t-136.5 -53.5q-81 0 -135.5 53.5t-54.5 137.5z" />
<glyph unicode=";" horiz-adv-x="641" d="M70 -252q51 66 101 165t56 157l-63 20q-25 8 -37 22.5t-12 41.5q0 41 26.5 65.5t71.5 24.5q27 0 41 -4l268 -60q-31 -111 -121 -269.5t-180 -254.5zM143 920q0 84 54.5 137t136.5 53t136 -53t54 -137t-54 -137.5t-136 -53.5t-136.5 53.5t-54.5 137.5z" />
<glyph unicode="&#x3c;" horiz-adv-x="1171" d="M106 532v230l824 457l114 -222l-649 -350l649 -350l-114 -221z" />
<glyph unicode="=" horiz-adv-x="1110" d="M100 342v225h910v-225h-910zM100 743v226h910v-226h-910z" />
<glyph unicode="&#x3e;" horiz-adv-x="1171" d="M127 297l649 350l-649 350l115 222l823 -457v-230l-823 -456z" />
<glyph unicode="?" horiz-adv-x="1001" d="M137 1122v228q61 49 163.5 87t219.5 38q188 0 291.5 -91.5t103.5 -230.5q0 -102 -39.5 -174t-111.5 -152q-61 -72 -88 -107.5t-39 -79.5t-12 -116v-184h-246v229q0 100 39 169t121 157q53 57 81.5 113.5t28.5 126.5t-43 117.5t-119 47.5q-100 0 -180 -43l-24 -90 q-23 -90 -93 -90q-27 0 -40 12.5t-13 32.5zM369 104q0 59 37.5 96.5t95.5 37.5q57 0 96 -37t39 -97q0 -61 -39 -98t-96 -37q-58 0 -95.5 37t-37.5 98z" />
<glyph unicode="@" horiz-adv-x="1753" d="M80 573q0 260 107.5 465t305 321t453.5 116q227 0 402.5 -90.5t272.5 -258.5t97 -395q0 -145 -48 -268t-132 -195.5t-190 -72.5q-66 0 -125.5 28.5t-100.5 81.5q-61 -51 -129.5 -80.5t-136.5 -29.5q-170 0 -268.5 104t-98.5 305q0 141 54.5 252t156 173.5t238.5 62.5 q80 0 163 -15.5t185 -46.5l-35 -524q-2 -53 27 -83t72 -30q70 0 114.5 94.5t44.5 245.5q0 162 -69.5 285t-192.5 190.5t-282 67.5q-203 0 -355.5 -86t-235.5 -244t-83 -366q0 -272 153.5 -423t419.5 -151q193 0 471 103v-213q-270 -90 -471 -91q-239 0 -415.5 90.5 t-272.5 262.5t-96 415zM702 600q0 -207 156 -207q116 0 182 84l27 404q-63 10 -127 10q-111 0 -174.5 -78t-63.5 -213z" />
<glyph unicode="A" d="M-6 72q0 51 37 76.5t98 25.5h21l471 1249h329l475 -1251l70 -29q49 -20 69.5 -39.5t20.5 -50.5q0 -53 -35 -53h-565q-29 0 -44 18.5t-15 53.5q0 51 36.5 76.5t98.5 25.5h55l-92 234h-561l-88 -236l110 -41q55 -20 76 -38.5t21 -47.5q0 -45 -35 -45h-494q-28 0 -43.5 18.5 t-15.5 53.5zM535 600h419l-209 567z" />
<glyph unicode="B" horiz-adv-x="1509" d="M96 59q0 43 29 67t106 54l27 10v1043l-27 10q-78 31 -106.5 54.5t-28.5 66.5q0 31 12.5 45t32.5 14h703q242 0 367.5 -106.5t125.5 -284.5q0 -92 -54 -170t-148 -114v-9q135 -39 206.5 -130t71.5 -210q0 -186 -133 -292.5t-358 -106.5h-781q-20 0 -32.5 14.5t-12.5 44.5z M565 188h314q111 0 169 56.5t58 161.5q0 104 -58.5 166.5t-168.5 62.5h-314v-447zM565 819h266q94 0 146.5 58.5t52.5 148.5t-52 149.5t-147 59.5h-266v-416z" />
<glyph unicode="C" horiz-adv-x="1384" d="M74 715q0 236 99 403.5t260 251.5t345 84q164 0 289 -44t211 -114v-295q0 -25 -11.5 -39t-39.5 -14q-39 0 -60.5 26.5t-40.5 92.5l-43 141q-106 53 -247 54q-131 0 -232.5 -61.5t-160 -184.5t-58.5 -301t61.5 -303t165 -187.5t232.5 -62.5q92 0 161.5 18.5t129.5 57.5 q29 18 48 29.5t36 11.5q31 0 55 -25t24 -61q0 -37 -20.5 -64t-54.5 -51q-63 -45 -169 -77t-255 -32q-201 0 -366 85t-262 253t-97 408z" />
<glyph unicode="D" horiz-adv-x="1583" d="M96 59q0 43 29 67t106 54l27 10v1043l-27 10q-78 31 -106.5 54.5t-28.5 66.5q0 31 12.5 45t32.5 14h662q197 0 356.5 -76.5t253.5 -237.5t94 -400q0 -240 -94 -398.5t-253 -234.5t-357 -76h-662q-20 0 -32.5 14.5t-12.5 44.5zM565 193h238q195 0 294 135t99 381 t-99.5 384t-293.5 138h-238v-1038z" />
<glyph unicode="E" horiz-adv-x="1486" d="M96 59q0 43 29 67t106 54l27 10v1043l-27 10q-78 31 -106.5 54.5t-28.5 66.5q0 31 12.5 45t32.5 14h1194v-352q0 -23 -10 -35t-37 -12q-29 0 -49 31.5t-49 111.5l-25 68h-600v-416h465l35 74q18 39 35.5 57.5t36.5 18.5q43 0 43 -41v-402q0 -41 -43 -41q-18 0 -36 18.5 t-36 57.5l-35 74h-465v-447h631l25 68q29 80 49 111.5t49 31.5q27 0 37 -12t10 -35v-352h-1225q-20 0 -32.5 14.5t-12.5 44.5z" />
<glyph unicode="F" horiz-adv-x="1390" d="M96 1364q0 31 12.5 45t32.5 14h1139v-356q0 -23 -10 -35t-37 -12q-29 0 -49.5 31.5t-48.5 111.5l-25 68h-545v-461h410l35 74q18 39 35.5 57.5t35.5 18.5q43 0 43 -41v-410q0 -41 -43 -41q-18 0 -35.5 18.5t-35.5 57.5l-35 74h-410v-406l78 -39q51 -25 70.5 -44t19.5 -48 q0 -20 -8 -30.5t-31 -10.5h-530q-29 0 -44.5 18.5t-15.5 53.5q0 51 36 76.5t100 25.5h18v1059l-27 10q-78 31 -106.5 54.5t-28.5 66.5z" />
<glyph unicode="G" horiz-adv-x="1523" d="M80 715q0 238 97 404.5t257 250.5t346 84q164 0 292 -44t212 -114v-295q0 -25 -11 -39t-40 -14q-39 0 -60.5 26.5t-39.5 92.5l-43 141q-106 53 -248 54q-205 0 -328 -139.5t-123 -407.5q0 -178 61.5 -303t165 -187.5t232.5 -62.5q84 0 147 22v371h-135q-29 0 -44 18.5 t-15 53.5q0 51 37 76.5t98 25.5h483q37 0 37 -41q0 -29 -17.5 -46t-68.5 -46l-67 -39v-489q-96 -47 -219 -73t-246 -26q-207 0 -379 80t-276.5 248t-104.5 418z" />
<glyph unicode="H" horiz-adv-x="1734" d="M96 72q0 51 36 76.5t99 25.5h19v1075h-94q-29 0 -44.5 18.5t-15.5 53.5q0 51 37 76t98 26h455q23 0 31 -10t8 -31q0 -29 -19.5 -48t-70.5 -44l-78 -39v-415h617v413h-105q-29 0 -44 18.5t-15 53.5q0 51 36.5 76t98.5 26h457q37 0 36 -41q0 -29 -16 -46t-55 -38l-86 -47 v-1079l86 -47q39 -20 55 -37.5t16 -46.5q0 -41 -36 -41h-533q-29 0 -44 18.5t-15 53.5q0 51 36.5 76.5t98.5 25.5h29v469h-617v-471l78 -39q51 -25 70.5 -44t19.5 -48q0 -20 -8 -30.5t-31 -10.5h-530q-29 0 -44.5 18.5t-15.5 53.5z" />
<glyph unicode="I" horiz-adv-x="841" d="M106 72q0 51 37 76.5t99 25.5h18v1075h-94q-29 0 -44.5 18.5t-15.5 53.5q0 51 37 76t99 26h454q23 0 31 -10t8 -31q0 -29 -19.5 -48t-70.5 -44l-78 -39v-1079l78 -39q51 -25 70.5 -44t19.5 -48q0 -20 -8 -30.5t-31 -10.5h-530q-29 0 -44.5 18.5t-15.5 53.5z" />
<glyph unicode="J" horiz-adv-x="940" d="M55 172q123 45 195 91t108.5 119t36.5 185v682h-135q-29 0 -44 18.5t-15 53.5q0 51 36.5 76.5t98.5 25.5h495q23 0 31 -10t8 -31q0 -29 -19.5 -48t-70.5 -44l-78 -39v-704q0 -207 -81.5 -334t-188.5 -188q-96 -55 -205 -56q-73 0 -119.5 49.5t-52.5 153.5z" />
<glyph unicode="K" horiz-adv-x="1560" d="M96 72q0 51 37 76.5t98 25.5h19v1075h-94q-29 0 -44.5 18.5t-15.5 53.5q0 51 37 76t98 26h451q18 0 28.5 -10t10.5 -31q0 -31 -18.5 -49t-67.5 -43l-78 -39v-1079l78 -39q51 -25 70.5 -44t19.5 -48q0 -41 -39 -41h-530q-29 0 -44.5 18.5t-15.5 53.5zM557 696l535 553 h-123q-29 0 -44.5 18.5t-15.5 53.5q0 51 37 76t98 26h435q47 0 47 -57t-99 -92l-65 -23l-483 -506l487 -579l98 -35q51 -16 74 -36.5t23 -51.5q0 -20 -8.5 -31.5t-30.5 -11.5h-426z" />
<glyph unicode="L" horiz-adv-x="1320" d="M96 59q0 43 29 67t106 54l27 10v1059h-94q-29 0 -44.5 18.5t-15.5 53.5q0 51 37 76t99 26h475q23 0 31 -10t8 -31q0 -31 -20.5 -51t-69.5 -41l-99 -39v-1058h547l47 129q29 80 49.5 111.5t48.5 31.5q27 0 37.5 -12.5t10.5 -34.5v-418h-1164q-20 0 -32.5 14.5t-12.5 44.5z " />
<glyph unicode="M" horiz-adv-x="2246" d="M33 72q0 51 36.5 76.5t98.5 25.5h20l203 1059l-26 10q-78 31 -107 54.5t-29 66.5q0 31 12.5 45t32.5 14h545l250 -895q18 -70 31.5 -180t15.5 -145h8q2 35 14.5 145.5t30.5 179.5l228 895h549q20 0 32.5 -14t12.5 -45q0 -43 -29 -66.5t-107 -54.5l-26 -10l229 -1059 l72 -31q49 -20 69.5 -39.5t20.5 -50.5q0 -53 -35 -53h-567q-29 0 -44 18.5t-15 53.5q0 51 36.5 76.5t98.5 25.5h67l-184 870q-8 43 -14.5 99.5t-6.5 75.5h-8q-2 -18 -11 -75t-19 -100l-265 -1044h-333l-297 1044q-12 43 -19.5 99.5t-9.5 75.5h-8q0 -18 -4 -75t-13 -100 l-157 -872l110 -41q55 -20 75.5 -38.5t20.5 -47.5q0 -45 -34 -45h-492q-29 0 -44 18.5t-15 53.5z" />
<glyph unicode="N" horiz-adv-x="1687" d="M96 72q0 51 37 76.5t98 25.5h19v1063l-27 10q-74 29 -100.5 52.5t-26.5 64.5q0 31 12.5 45t32.5 14h391l537 -774q41 -57 71.5 -120.5t63.5 -155.5v876h-114q-29 0 -44.5 18.5t-15.5 53.5q0 51 37 76t98 26h394q23 0 30.5 -10t7.5 -31q0 -25 -24.5 -45t-77.5 -49l-65 -37 v-1251h-283l-567 817q-31 45 -52.5 93t-52.5 139v-877l98 -41q49 -20 70 -39.5t21 -50.5q0 -20 -8.5 -30.5t-30.5 -10.5h-469q-29 0 -44.5 18.5t-15.5 53.5z" />
<glyph unicode="O" horiz-adv-x="1568" d="M80 711q0 250 93 416.5t252 246.5t359 80q201 0 360 -80t252 -246.5t93 -416.5t-93 -417t-252 -246t-360 -79q-200 0 -359 79t-252 246t-93 417zM391 711q0 -268 99.5 -408.5t293.5 -140.5q195 0 294.5 140t99.5 409q0 268 -99.5 409.5t-294.5 141.5t-294 -141.5 t-99 -409.5z" />
<glyph unicode="P" horiz-adv-x="1361" d="M96 1364q0 31 12.5 45t32.5 14h666q156 0 272.5 -54t181 -154.5t64.5 -233.5t-64.5 -233.5t-181 -154.5t-272.5 -54h-242v-367l82 -39q63 -29 85 -46t22 -46q0 -20 -8.5 -30.5t-30.5 -10.5h-551q-29 0 -44.5 18.5t-15.5 53.5q0 51 37 76.5t99 25.5h18v1059l-27 10 q-78 31 -106.5 54.5t-28.5 66.5zM565 731h213q109 0 174.5 67.5t65.5 182.5t-65.5 182.5t-174.5 67.5h-213v-500z" />
<glyph unicode="Q" horiz-adv-x="1568" d="M80 711q0 250 93 416.5t252 246.5t359 80q201 0 360 -80t252 -246.5t93 -416.5q0 -326 -154.5 -509.5t-408.5 -221.5l12 -7q82 -39 178 -69q68 -20 95.5 -44t27.5 -69q0 -59 -36 -89t-99 -30q-139 0 -303 154q-61 57 -142 151q-262 37 -420.5 219.5t-158.5 514.5z M391 711q0 -268 99.5 -408.5t293.5 -140.5q195 0 294.5 140t99.5 409q0 268 -99.5 409.5t-294.5 141.5t-294 -141.5t-99 -409.5z" />
<glyph unicode="R" horiz-adv-x="1507" d="M96 1364q0 31 12.5 45t32.5 14h672q238 0 375 -109.5t137 -307.5q0 -174 -105.5 -277.5t-295.5 -126.5l370 -436l99 -35q51 -16 73.5 -36.5t22.5 -51.5q0 -20 -8 -31.5t-31 -11.5h-426l-459 592v-420l78 -39q51 -25 70.5 -44t19.5 -48q0 -20 -8 -30.5t-31 -10.5h-530 q-29 0 -44.5 18.5t-15.5 53.5q0 51 37 76.5t99 25.5h18v1071l-27 10q-78 29 -106.5 49.5t-28.5 59.5zM565 768h219q111 0 172.5 62.5t61.5 175.5t-61.5 175t-172.5 62h-219v-475z" />
<glyph unicode="S" horiz-adv-x="1228" d="M84 92v342q0 23 12.5 36t36.5 13q39 0 61.5 -28.5t51.5 -116.5l39 -115q41 -25 117.5 -43t158.5 -18q117 0 197 40t80 126q0 59 -28 101t-91.5 82t-188.5 97q-137 63 -229 123t-151.5 145t-59.5 197q0 125 69.5 211t182.5 128t246 42q135 0 264 -39t217 -104v-318 q0 -23 -12.5 -36t-36.5 -13q-39 0 -61.5 28.5t-51.5 117.5l-39 114q-102 57 -254 58q-98 0 -157.5 -39t-59.5 -115q0 -49 33 -87t90.5 -70.5t171.5 -88.5l82 -39q119 -57 197 -114.5t126 -142.5t48 -204q0 -197 -152.5 -295t-400.5 -98q-127 0 -273.5 36t-234.5 87z" />
<glyph unicode="T" horiz-adv-x="1335" d="M45 1065v358h1245v-358q0 -27 -16.5 -40t-40.5 -13q-35 0 -55.5 29.5t-38.5 93.5l-29 96h-289v-1059l78 -39q51 -25 70.5 -44t19.5 -48q0 -20 -8 -30.5t-31 -10.5h-530q-29 0 -44.5 18.5t-15.5 53.5q0 51 37 76.5t99 25.5h18v1057h-289l-28 -96q-18 -63 -39 -93t-56 -30 q-25 0 -41 13t-16 40z" />
<glyph unicode="U" horiz-adv-x="1683" d="M66 1321q0 51 36.5 76t98.5 26h454q23 0 31 -10t8 -31q0 -29 -19.5 -48t-70.5 -44l-78 -39v-733q0 -174 93.5 -265t250.5 -91q162 0 257.5 92t95.5 264v731h-113q-29 0 -44 18.5t-15 53.5q0 51 36.5 76t98.5 26h393q23 0 31 -8t8 -29q0 -20 -18.5 -37.5t-63.5 -48.5 l-76 -49v-696q0 -193 -78.5 -324t-216 -196.5t-311.5 -65.5q-178 0 -322.5 67.5t-228.5 200t-84 318.5v694h-94q-29 0 -44 18.5t-15 53.5z" />
<glyph unicode="V" horiz-adv-x="1628" d="M0 1321q0 51 37 76t98 26h508q39 0 39 -41q0 -35 -26.5 -56t-82.5 -42l-90 -33l322 -944q12 -37 19 -75.5t7 -49.5h9q0 10 7 49t21 76l346 942h-120q-29 0 -44.5 18.5t-15.5 53.5q0 51 37 76t98 26h420q39 0 39 -41q0 -49 -78 -86l-102 -47l-471 -1249h-359l-460 1249 h-99q-29 0 -44 18.5t-15 53.5z" />
<glyph unicode="W" horiz-adv-x="2398" d="M2 1321q0 51 37 76t98 26h488q39 0 39 -41q0 -35 -27 -56t-82 -42l-90 -33l262 -872q14 -49 21.5 -104.5t7.5 -71.5h8q2 16 9 71.5t20 104.5l264 1044h332l297 -1044q14 -49 21 -104.5t7 -71.5h8q2 16 9.5 71.5t19.5 104.5l238 870h-134q-29 0 -44 18.5t-15 53.5 q0 51 37 76t98 26h426q39 0 39 -41q0 -49 -78 -86l-102 -47l-358 -1249h-365l-264 938q-18 61 -26.5 139t-8.5 99h-8q-2 -23 -10.5 -100t-24.5 -138l-238 -938h-364l-389 1249h-99q-29 0 -44 18.5t-15 53.5z" />
<glyph unicode="X" horiz-adv-x="1546" d="M8 72q0 51 37 76.5t98 25.5h58l374 543l-358 532h-98q-29 0 -44.5 18.5t-15.5 53.5q0 51 37 76t99 26h510q38 0 38 -39q0 -37 -26.5 -58t-81.5 -42l-57 -20l243 -361l246 346h-92q-29 0 -44.5 18.5t-15.5 53.5q0 51 37 76t99 26h395q39 0 39 -41q0 -49 -78 -86l-102 -47 l-347 -487l414 -602l58 -21q55 -20 81.5 -41.5t26.5 -56.5q0 -41 -39 -41h-647q-29 0 -44 18.5t-15 53.5q0 51 36.5 76.5t98.5 25.5h59l-274 399l-279 -399l103 -47q77 -37 77 -85q0 -42 -39 -42h-507q-29 0 -44.5 18.5t-15.5 53.5z" />
<glyph unicode="Y" horiz-adv-x="1503" d="M2 1321q0 51 37 76.5t98 25.5h535q39 0 39 -45q0 -37 -23.5 -58.5t-73.5 -37.5l-88 -31l275 -434l286 432h-96q-29 0 -44 18.5t-15 53.5q0 51 37 76.5t98 25.5h395q39 0 39 -41q0 -49 -78 -86l-102 -47l-422 -631v-446l78 -39q51 -25 70.5 -44t19.5 -48q0 -20 -8 -30.5 t-31 -10.5h-530q-29 0 -44.5 18.5t-15.5 53.5q0 51 37 76.5t98 25.5h19v397l-432 678h-99q-29 0 -44 18.5t-15 53.5z" />
<glyph unicode="Z" horiz-adv-x="1312" d="M78 0v203l749 1028h-538l-29 -105q-16 -63 -36.5 -92.5t-57.5 -29.5q-25 0 -41 13t-16 40v366h1093v-202l-749 -1028h602l28 104q16 63 37 93t58 30q25 0 41 -13.5t16 -39.5v-367h-1157z" />
<glyph unicode="[" horiz-adv-x="688" d="M102 -317v1925h510v-193h-223v-1540h223v-192h-510z" />
<glyph unicode="\" horiz-adv-x="823" d="M-78 1466l268 103l709 -1741l-268 -102z" />
<glyph unicode="]" horiz-adv-x="688" d="M76 -125h223v1540h-223v193h510v-1925h-510v192z" />
<glyph unicode="^" horiz-adv-x="1212" d="M106 727l414 666h170l414 -666l-221 -125l-277 457l-278 -457z" />
<glyph unicode="_" horiz-adv-x="980" d="M-39 -205h1059v-235h-1059v235z" />
<glyph unicode="`" horiz-adv-x="696" d="M127 1456l215 141l227 -385l-163 -108z" />
<glyph unicode="a" horiz-adv-x="1148" d="M68 258q0 162 114.5 235.5t296.5 100.5l215 33v65q0 78 -48 120t-136 42q-53 0 -115.5 -16.5t-95.5 -36.5l-23 -80q-12 -45 -34.5 -67.5t-59.5 -22.5q-27 0 -40 12t-13 33v237q90 51 206 83t226 32q188 0 304 -88t116 -256v-528l61 -31q47 -23 65.5 -41t18.5 -45 q0 -20 -8 -29.5t-28 -9.5h-392v94h-8q-51 -57 -133 -91t-168 -34q-133 0 -227 75t-94 214zM354 272q0 -53 33 -86.5t92 -33.5q86 0 150.5 59t64.5 135v117l-164 -27q-176 -31 -176 -164z" />
<glyph unicode="b" horiz-adv-x="1273" d="M20 1358q0 47 34 71.5t93 24.5h299v-532l7 -4q61 51 137 80.5t160 29.5q127 0 231 -56.5t167.5 -177t63.5 -302.5q0 -172 -75.5 -290t-202.5 -175.5t-281 -57.5q-125 0 -253 32t-234 91v1198h-90q-55 0 -56 68zM451 188q88 -45 194 -45q281 0 281 346q0 365 -258 365 q-86 0 -151.5 -53t-65.5 -144v-469z" />
<glyph unicode="c" horiz-adv-x="1036" d="M57 502q0 174 74 292.5t192.5 176t256.5 57.5q117 0 218 -38t163 -87v-231q0 -20 -13.5 -32.5t-40.5 -12.5q-70 0 -92 90l-24 94q-72 43 -173 43q-119 0 -196.5 -89t-77.5 -265t81 -266.5t212 -90.5q57 0 106.5 16.5t104.5 51.5q6 4 20.5 13t23.5 12.5t17 3.5 q31 0 51.5 -22.5t20.5 -59.5q0 -63 -92 -119q-115 -70 -277 -70q-157 0 -283 62.5t-199 182.5t-73 288z" />
<glyph unicode="d" horiz-adv-x="1298" d="M57 492q0 164 69 285.5t187.5 186t261.5 64.5q137 0 250 -55v317h-90q-55 0 -55 68q0 47 34 71.5t93 24.5h299v-1292l74 -37q47 -23 65.5 -41t18.5 -45q0 -20 -8.5 -29.5t-28.5 -9.5h-396v94h-8q-47 -57 -120.5 -91t-165.5 -34q-129 0 -239 56.5t-175.5 174t-65.5 292.5z M344 494q0 -176 71.5 -263.5t188.5 -87.5q96 0 156.5 55.5t60.5 151.5v447q-37 25 -90 41t-104 16q-123 0 -203 -95t-80 -265z" />
<glyph unicode="e" horiz-adv-x="1110" d="M61 489q0 172 69 294t186.5 183.5t263.5 61.5q135 0 243.5 -53t170 -152.5t61.5 -230.5q0 -43 -12.5 -91t-30.5 -85h-662q0 -137 81 -205t192 -68q70 0 121 15.5t120 54.5q6 4 23.5 13.5t27 12.5t17.5 3q31 0 52.5 -22.5t21.5 -59.5q0 -35 -20.5 -60.5t-65.5 -52.5 q-133 -78 -312 -78q-153 0 -277 58.5t-197 176.5t-73 285zM350 590h406q12 29 12 63q0 92 -51 146.5t-142 54.5q-90 0 -153.5 -70.5t-71.5 -193.5z" />
<glyph unicode="f" horiz-adv-x="1024" d="M70 895q0 49 34.5 75.5t92.5 26.5h39v99q0 193 112.5 288t286.5 95q119 0 220 -36t175 -93v-217q0 -20 -13 -33t-40 -13q-37 0 -58.5 23t-33.5 68l-25 84q-74 43 -153 43q-80 0 -132.5 -49.5t-52.5 -147.5v-111h279q41 0 41 -45t-35 -72.5t-111 -35.5l-174 -21v-661 l74 -37q47 -23 65.5 -41t18.5 -45q0 -20 -8 -29.5t-29 -9.5h-498q-55 0 -55 68q0 47 34 71.5t93 24.5h19v659h-107q-27 0 -43 19.5t-16 52.5z" />
<glyph unicode="g" horiz-adv-x="1208" d="M57 492q0 180 77 300.5t204 178t278 57.5q133 0 263.5 -44t226.5 -120v-882q0 -225 -140.5 -349.5t-390.5 -124.5q-96 0 -192 24t-158 60q-45 27 -65.5 52.5t-20.5 60.5q0 37 21.5 59.5t52.5 22.5q12 0 25.5 -6t24.5 -12.5t18 -10.5q131 -75 278 -75h4q133 0 200.5 69.5 t67.5 188.5v147h-8q-45 -55 -118.5 -87t-167.5 -32q-129 0 -239 56.5t-175.5 174t-65.5 292.5zM344 494q0 -176 71.5 -263.5t188.5 -87.5q96 0 156.5 55.5t60.5 151.5v459q-90 45 -194 45q-123 0 -203 -95t-80 -265z" />
<glyph unicode="h" horiz-adv-x="1372" d="M82 68q0 47 34 71.5t93 24.5h18v1126h-90q-55 0 -55 68q0 47 34 71.5t93 24.5h297v-569h8q166 143 336 143q152 0 246 -85t94 -232v-549l74 -37q47 -23 65.5 -40t18.5 -46q0 -20 -8.5 -29.5t-28.5 -9.5h-498q-55 0 -55 68q0 47 33.5 71.5t93.5 24.5h18v524 q0 162 -151 162q-59 0 -123 -34t-115 -89v-565l74 -37q47 -23 65.5 -40t18.5 -46q0 -20 -8.5 -29.5t-28.5 -9.5h-498q-55 0 -55 68z" />
<glyph unicode="i" horiz-adv-x="673" d="M66 68q0 47 33.5 71.5t93.5 24.5h18v680h-90q-55 0 -55 67q0 47 33.5 72t93.5 25h305v-846l73 -37q47 -23 65.5 -40t18.5 -46q0 -20 -8 -29.5t-29 -9.5h-497q-55 0 -55 68zM164 1325q0 84 52 134t132 50t132 -50t52 -134t-52 -134t-132 -50t-132 50t-52 134z" />
<glyph unicode="j" horiz-adv-x="763" d="M-2 -289q123 45 194.5 91t108.5 119t37 185v738h-90q-55 0 -55 67q0 47 33.5 72t92.5 25h306v-922q0 -207 -82 -334t-189 -188q-51 -29 -94 -42.5t-90 -13.5q-74 0 -120 49.5t-52 153.5zM299 1325q0 84 52 134t132 50t132.5 -50t52.5 -134t-52.5 -134t-132.5 -50t-132 50 t-52 134z" />
<glyph unicode="k" horiz-adv-x="1361" d="M82 68q0 47 34 71.5t93 24.5h18v1126h-90q-55 0 -55 68q0 47 34 71.5t93 24.5h305v-1292l70 -37q49 -27 66.5 -43t17.5 -43q0 -20 -8.5 -29.5t-28.5 -9.5h-494q-55 0 -55 68zM514 516l346 318h-123q-29 0 -44 18t-15 53q0 51 37 77t98 26h406q47 0 47 -58q0 -59 -99 -92 l-65 -22l-287 -273l322 -397l98 -35q51 -16 73.5 -36.5t22.5 -51.5q0 -20 -8 -31.5t-31 -11.5h-389z" />
<glyph unicode="l" horiz-adv-x="710" d="M86 68q0 47 34 71.5t93 24.5h18v1126h-90q-55 0 -55 68q0 47 34 71.5t93 24.5h305v-1292l74 -37q47 -23 65.5 -40t18.5 -46q0 -20 -8.5 -29.5t-28.5 -9.5h-498q-55 0 -55 68z" />
<glyph unicode="m" horiz-adv-x="1994" d="M76 68q0 47 33.5 71.5t93.5 24.5h18v680h-90q-55 0 -55 67q0 47 33.5 72t93.5 25h293v-123h8q174 143 340 143q98 0 173 -41t113 -117q178 158 363 158q143 0 234.5 -82t91.5 -229v-555l73 -37q43 -23 60.5 -41t17.5 -45q0 -20 -8 -29.5t-29 -9.5h-483q-55 0 -55 68 q0 47 33.5 71.5t93.5 24.5h10v526q0 78 -32 117t-109 39q-59 0 -120 -32t-108 -79v-573l74 -37q43 -23 60.5 -41t17.5 -45q0 -20 -8.5 -29.5t-28.5 -9.5h-483q-55 0 -56 68q0 47 34 71.5t93 24.5h11v526q0 78 -32 117t-110 39q-59 0 -119.5 -32t-107.5 -79v-573l74 -37 q43 -23 60 -41t17 -45q0 -20 -8 -29.5t-28 -9.5h-492q-55 0 -55 68z" />
<glyph unicode="n" horiz-adv-x="1366" d="M76 68q0 47 33.5 71.5t93.5 24.5h18v680h-90q-55 0 -55 67q0 47 33.5 72t93.5 25h293v-123h8q76 66 162 104.5t178 38.5q152 0 246 -85t94 -232v-549l73 -37q47 -23 65.5 -40t18.5 -46q0 -20 -8 -29.5t-28 -9.5h-498q-55 0 -55 68q0 47 33.5 71.5t93.5 24.5h18v520 q0 162 -152 162q-59 0 -122.5 -34t-114.5 -89v-561l74 -37q47 -23 65.5 -40t18.5 -46q0 -20 -8.5 -29.5t-28.5 -9.5h-498q-55 0 -55 68z" />
<glyph unicode="o" horiz-adv-x="1163" d="M59 500q0 176 71 294.5t189.5 176t262.5 57.5q143 0 262 -57.5t189.5 -176t70.5 -294.5t-71.5 -296t-189.5 -177.5t-261 -57.5q-144 0 -261.5 57.5t-189.5 177.5t-72 296zM348 500q0 -174 59.5 -265.5t174.5 -91.5q114 0 173.5 91.5t59.5 265.5t-59.5 264t-173.5 90 q-115 0 -174.5 -90t-59.5 -264z" />
<glyph unicode="p" horiz-adv-x="1339" d="M82 -369q0 47 34 72t93 25h18v1116h-90q-55 0 -55 67q0 47 34 72t93 25h299v-86l6 -4q130 110 284 110h3q127 0 235.5 -56.5t175 -177t66.5 -302.5q0 -250 -143.5 -386.5t-382.5 -136.5q-53 0 -120 13.5t-120 35.5v-292l74 -37q47 -23 65.5 -40.5t18.5 -45.5 q0 -20 -8.5 -29.5t-28.5 -9.5h-496h-2q-53 0 -53 67zM512 188q41 -23 94 -34t101 -11q133 0 208.5 83t75.5 263q0 184 -68.5 274.5t-193.5 90.5q-86 0 -151.5 -53t-65.5 -144v-469z" />
<glyph unicode="q" horiz-adv-x="1284" d="M57 492q0 164 69 285.5t187.5 186t261.5 64.5q129 0 250 -59q8 18 28.5 28.5t43.5 10.5h209v-1282l74 -37q47 -23 65.5 -40.5t18.5 -45.5q0 -20 -8.5 -29.5t-28.5 -9.5h-512h-2q-54 0 -54 67q0 47 34 72t93 25h45v360h-8q-45 -55 -118.5 -87t-167.5 -32q-129 0 -239 56.5 t-175.5 174t-65.5 292.5zM344 494q0 -176 71.5 -263.5t188.5 -87.5q96 0 156.5 55.5t60.5 151.5v447q-37 25 -90 41t-104 16q-123 0 -203 -95t-80 -265z" />
<glyph unicode="r" horiz-adv-x="1001" d="M76 68q0 47 33.5 71.5t93.5 24.5h18v680h-90q-55 0 -55 67q0 47 33.5 72t93.5 25h293v-209h8q70 98 164 163.5t186 65.5q70 0 106.5 -40t36.5 -97q0 -37 -13 -72t-34 -57q-254 0 -442 -139v-461l74 -37q47 -23 65.5 -40t18.5 -46q0 -20 -8.5 -29.5t-28.5 -9.5h-498 q-55 0 -55 68z" />
<glyph unicode="s" horiz-adv-x="952" d="M66 80v239q0 20 13 35t40 15q70 0 92 -93l22 -83q29 -23 84.5 -36.5t116.5 -13.5q166 0 166 88q0 41 -35 68t-143 80l-72 35q-158 80 -221 148.5t-63 176.5q0 131 112.5 210t282.5 79q117 0 219 -38t164 -87v-227q0 -20 -13.5 -32.5t-39.5 -12.5q-70 0 -93 90l-24 90 q-72 43 -172 43q-68 0 -109 -23.5t-41 -70.5q0 -41 30 -63.5t136 -78.5l100 -51q145 -76 207 -142.5t62 -176.5q0 -145 -122 -212t-302 -67q-113 0 -224.5 33t-172.5 78z" />
<glyph unicode="t" horiz-adv-x="933" d="M51 895q0 49 35 75.5t92 26.5h78l43 236h240v-236h317q14 0 25.5 -9t11.5 -25q0 -39 -29.5 -60.5t-95.5 -34.5l-229 -45v-567q0 -57 29.5 -85t80.5 -28q57 0 115 43q8 6 26.5 20.5t36.5 14.5q31 0 51.5 -19.5t20.5 -54.5q0 -59 -90 -116q-98 -61 -227 -62q-140 0 -235 82 t-95 223v549h-141q-27 0 -43.5 19.5t-16.5 52.5z" />
<glyph unicode="u" horiz-adv-x="1329" d="M29 911q0 47 33.5 72t93.5 25h305v-695q0 -161 149 -161h2q59 0 123 33.5t115 88.5v570h-90q-55 0 -55 67q0 47 33.5 72t92.5 25h306v-846l73 -37q47 -23 65.5 -40t18.5 -46q0 -20 -8 -29.5t-29 -9.5h-395v113h-8q-76 -66 -162 -105t-178 -39q-152 0 -246 85t-94 233v557 h-90q-55 0 -55 67z" />
<glyph unicode="v" horiz-adv-x="1259" d="M-12 911q0 47 33.5 72t93.5 25h426q20 0 28.5 -9.5t8.5 -29.5q0 -27 -20.5 -46.5t-63.5 -39.5l-80 -41l204 -604q8 -27 16.5 -63t10.5 -46h8q2 10 10.5 47t16.5 62l223 606h-102q-55 0 -56 67q0 47 34 72t93 25h363q20 0 28.5 -9.5t8.5 -29.5q0 -25 -21.5 -44.5 t-62.5 -41.5l-76 -41l-315 -842h-369l-311 844h-74q-55 0 -55 67z" />
<glyph unicode="w" horiz-adv-x="1921" d="M-12 911q0 47 33.5 72t93.5 25h426q20 0 28.5 -9.5t8.5 -29.5q0 -27 -21.5 -47.5t-62.5 -38.5l-95 -41l172 -568q10 -35 15.5 -74.5t5.5 -52.5h8q0 12 6 52.5t15 74.5l182 734h356l209 -734q10 -35 15.5 -74.5t5.5 -52.5h8q0 12 5 52.5t15 74.5l154 570h-109 q-55 0 -55 67q0 47 34 72t93 25h362q20 0 28.5 -9.5t8.5 -29.5q0 -25 -21.5 -44.5t-62.5 -41.5l-75 -41l-242 -842h-367l-188 678q-12 43 -19.5 99.5t-7.5 72.5h-8q0 -16 -6 -72.5t-18 -99.5l-173 -678h-366l-262 844h-74q-55 0 -55 67z" />
<glyph unicode="x" horiz-adv-x="1189" d="M10 68q0 43 34 69.5t79 26.5h16l248 356l-217 324h-88q-55 0 -55 67q0 43 33.5 70t78.5 27h267l243 -371l146 207h-74q-55 0 -55 67q0 43 33.5 70t78.5 27h348q31 0 31 -39q0 -25 -17.5 -44.5t-60.5 -41.5l-71 -41l-230 -322l248 -354l76 -41q43 -23 60.5 -42.5 t17.5 -43.5q0 -39 -31 -39h-354l-279 408l-164 -242l72 -41q43 -23 60.5 -42.5t17.5 -43.5q0 -39 -31 -39h-405q-56 0 -56 68z" />
<glyph unicode="y" horiz-adv-x="1239" d="M-8 911q0 47 33.5 72t93.5 25h426q20 0 28.5 -9.5t8.5 -29.5q0 -27 -20.5 -46.5t-63.5 -39.5l-80 -41l203 -475q10 -25 13 -58t3 -43h10q0 10 4 44t13 57l219 477h-103q-55 0 -55 67q0 47 34 72t93 25h362q20 0 28.5 -9.5t8.5 -29.5q0 -25 -21.5 -44.5t-62.5 -41.5 l-75 -41l-385 -854q-68 -152 -126.5 -246t-136 -151.5t-182.5 -57.5q-69 0 -114.5 38t-45.5 101q0 47 29 95q131 0 209 34.5t129 145.5l25 53l-373 844h-74q-55 0 -55 67z" />
<glyph unicode="z" horiz-adv-x="946" d="M63 0v201l463 633h-276l-23 -84q-12 -47 -31.5 -70t-56.5 -23q-27 0 -40 14.5t-13 35.5v301h774v-201l-465 -633h324l22 84q12 47 32 69.5t56 22.5q27 0 40.5 -14t13.5 -35v-301h-820z" />
<glyph unicode="{" horiz-adv-x="925" d="M90 518v254q209 23 209 203v334q0 170 90 244.5t244 74.5h217v-192h-162q-55 0 -78.5 -22.5t-23.5 -78.5v-397q0 -111 -42 -178.5t-143 -114.5q100 -47 142.5 -114.5t42.5 -178.5v-397q0 -55 23.5 -77.5t78.5 -22.5h162v-193h-217q-154 0 -244 75t-90 245v333 q0 180 -209 203z" />
<glyph unicode="|" horiz-adv-x="679" d="M197 -246v1762h286v-1762h-286z" />
<glyph unicode="}" horiz-adv-x="925" d="M76 -145h162q55 0 78.5 22.5t23.5 77.5v397q0 111 42 178.5t142 114.5q-100 47 -142 114.5t-42 178.5v397q0 55 -23.5 78t-78.5 23h-162v192h217q154 0 244 -74.5t90 -244.5v-334q0 -180 209 -203v-254q-209 -23 -209 -203v-333q0 -170 -90.5 -245t-243.5 -75h-217v193z " />
<glyph unicode="~" horiz-adv-x="1280" d="M92 666q94 74 174 106.5t162 32.5q51 0 100.5 -13.5t116.5 -43.5q115 -49 205 -50q61 0 116.5 21.5t114.5 68.5l93 -196q-96 -76 -169 -107.5t-153 -31.5q-100 0 -231 57q-111 49 -195 49q-61 0 -119.5 -21.5t-122.5 -68.5z" />
<glyph unicode="&#xa1;" horiz-adv-x="712" d="M193 -477l77 1114h174l76 -1114h-327zM223 872q0 61 38 98.5t95 37.5t96.5 -37t39.5 -99q0 -59 -39 -96t-97 -37q-57 0 -95 37t-38 96z" />
<glyph unicode="&#xa2;" horiz-adv-x="1196" d="M106 600q0 233 126 374.5t315 174.5v166h225v-166q88 -14 164 -49t123 -74v-250q0 -20 -14.5 -33.5t-40.5 -13.5q-74 0 -97 94l-26 101q-74 45 -181 45q-125 0 -206.5 -93.5t-81.5 -277.5q0 -186 85 -280.5t222 -94.5q61 0 113.5 17.5t109.5 52.5q20 14 35.5 22.5 t28.5 8.5q31 0 53 -25t22 -63q0 -70 -96 -130q-109 -66 -250 -71v-176h-225v196q-184 49 -294 190.5t-110 354.5z" />
<glyph unicode="&#xa3;" horiz-adv-x="1343" d="M90 80q0 53 36 83t91 30h98q43 43 62.5 88t19.5 104q0 51 -24 121h-162q-35 0 -57.5 21.5t-22.5 56.5q0 53 36 83.5t91 30.5h33q-35 90 -35 164q0 176 123 268.5t303 92.5q115 0 224.5 -40t197.5 -112v-221q0 -70 -76 -70q-41 0 -66.5 28t-43.5 83l-31 98q-86 43 -176 43 q-72 0 -117 -44t-45 -124q0 -61 45 -166h377q68 0 67 -61q0 -41 -31.5 -62.5t-78.5 -29.5l-254 -39q18 -70 18 -119q0 -104 -82 -194h324l16 40q45 113 117 113q31 0 49.5 -17.5t18.5 -52.5v-276h-973q-35 0 -53.5 22.5t-18.5 57.5z" />
<glyph unicode="&#xa4;" horiz-adv-x="1263" d="M137 268l133 150q-78 119 -77 239q0 74 17 129.5t60 114.5l-133 148l211 157l115 -145q72 37 168 37q104 0 172 -37l112 143l211 -155l-135 -148q78 -119 78 -244q0 -129 -78 -241l135 -148l-208 -153l-115 141q-68 -37 -172 -37t-170 37l-115 -143zM451 657 q0 -86 52 -138t128 -52q78 0 130 52t52 138t-52 139.5t-130 53.5q-76 0 -128 -53.5t-52 -139.5z" />
<glyph unicode="&#xa5;" horiz-adv-x="1380" d="M-45 1309q0 51 36 76.5t97 25.5h530q39 0 39 -45q0 -37 -23.5 -57.5t-72.5 -36.5l-86 -31l270 -432l285 430h-94q-29 0 -44 18.5t-15 51.5q0 51 36.5 76.5t98.5 25.5h391q39 0 39 -41q0 -49 -78 -84l-102 -47l-218 -326h216v-184h-338l-78 -115v-61h416v-184h-416v-199 l78 -39q49 -25 69.5 -43t20.5 -47q0 -20 -8.5 -30.5t-30.5 -10.5h-527q-28 0 -43.5 18.5t-15.5 53.5q0 49 37 74.5t98 25.5h19v197h-416v184h416v10l-105 166h-311v184h192l-206 326h-97q-29 0 -44 18.5t-15 51.5z" />
<glyph unicode="&#xa6;" horiz-adv-x="696" d="M205 -348v768h287v-768h-287zM205 737v768h287v-768h-287z" />
<glyph unicode="&#xa7;" horiz-adv-x="1243" d="M127 -127v289q0 18 11.5 30.5t31.5 12.5q33 0 51.5 -24.5t42.5 -98.5l33 -98q35 -23 100.5 -38.5t134.5 -15.5q98 0 167 35t69 107q0 51 -23.5 87t-77 68.5t-161.5 83.5q-178 82 -275.5 168t-97.5 226q0 72 30 132t79 101q-20 55 -21 109q0 106 58.5 178.5t154.5 108.5 t209 36q117 0 225.5 -32.5t182.5 -90.5v-268q0 -18 -10.5 -29.5t-30.5 -11.5q-33 0 -50.5 23.5t-44.5 99.5l-34 96q-82 51 -215 51q-84 0 -134.5 -33.5t-50.5 -99.5q0 -59 55.5 -99t198.5 -110l66 -30q154 -76 234.5 -161t80.5 -231q0 -72 -27.5 -131t-74.5 -100 q14 -45 14 -111q0 -168 -129 -250.5t-340 -82.5q-108 0 -232 30.5t-200 73.5zM395 762q0 -59 11 -92q16 -49 59 -79t174 -91q90 -43 142.5 -73t95.5 -71q-1 68 -5 101q-6 41 -24.5 65.5t-59 49t-135.5 67.5l-69 33q-158 72 -189 90z" />
<glyph unicode="&#xa8;" horiz-adv-x="897" d="M88 1276q0 61 42 103t103 42q59 0 101.5 -42t42.5 -103t-42 -103.5t-102 -42.5q-61 0 -103 42t-42 104zM522 1276q0 61 42 103t104 42q59 0 101 -42t42 -103t-42 -103.5t-101 -42.5q-62 0 -104 42t-42 104z" />
<glyph unicode="&#xa9;" horiz-adv-x="1632" d="M72 692q0 211 95 375t265 255t383 91q217 0 386 -90t264.5 -254t95.5 -377t-95.5 -377.5t-264.5 -256t-386 -91.5q-213 0 -383 91.5t-265 256t-95 377.5zM233 692q0 -172 75 -305t207 -207t300 -74q170 0 302 74t207 207t75 305q0 170 -75 302t-207 206t-302 74 q-168 0 -300 -74t-207 -206t-75 -302zM422 692q0 137 58.5 230.5t152.5 139.5t203 46q92 0 171.5 -29.5t129.5 -68.5v-183q0 -37 -37 -36q-29 0 -46.5 17t-29.5 54l-23 74q-49 33 -135 33q-94 0 -155.5 -70t-61.5 -209t64.5 -210.5t167.5 -71.5q94 0 168 53q16 10 27 16 t22 6q23 0 39 -17t16 -48q0 -27 -18.5 -48.5t-55.5 -43.5q-90 -55 -217 -56q-125 0 -225 49.5t-157.5 144.5t-57.5 228z" />
<glyph unicode="&#xaa;" horiz-adv-x="817" d="M92 829q0 102 73 148.5t187 64.5l137 21v41q0 49 -30.5 75.5t-85.5 26.5q-33 0 -73 -10t-62 -22l-13 -50q-16 -59 -59 -59q-35 0 -35 29v149q57 33 130 53.5t142 20.5q121 0 194 -56.5t73 -162.5v-332l39 -21q29 -12 41 -24t12 -31q0 -25 -23 -24h-245v61h-9 q-31 -37 -83 -58.5t-105 -21.5q-86 0 -145.5 47t-59.5 135zM272 838q0 -33 21.5 -54.5t58.5 -21.5q56 0 96.5 38t40.5 87v71l-104 -16q-113 -20 -113 -104z" />
<glyph unicode="&#xab;" horiz-adv-x="1280" d="M117 459v53l336 377l174 -139l-211 -265l211 -264l-174 -139zM633 459v53l336 377l174 -139l-211 -265l211 -264l-174 -139z" />
<glyph unicode="&#xac;" horiz-adv-x="1320" d="M135 575v236h1032v-522h-286v286h-746z" />
<glyph unicode="&#xad;" horiz-adv-x="638" d="M76 496v194h487v-194h-487z" />
<glyph unicode="&#xae;" horiz-adv-x="958" d="M18 1120q0 133 62.5 235.5t168 158t230.5 55.5t230.5 -55.5t168 -158t62.5 -235.5t-62.5 -235.5t-168 -157.5t-230.5 -55t-230.5 55t-168 157.5t-62.5 235.5zM143 1120q0 -164 95.5 -253t240.5 -89q146 0 241 89t95 253t-95 253t-241 89q-145 0 -240.5 -89t-95.5 -253z M268 1329q0 23 21 23h207q76 0 121 -39t45 -101q0 -59 -30 -95t-81 -36h-10l104 -112l33 -13q20 -8 27.5 -15t7.5 -19q0 -23 -21 -23h-137l-123 168v-102l19 -11q33 -18 32 -34q0 -20 -22 -21h-162q-12 0 -20.5 8t-8.5 21q0 41 47 43v309l-24 16q-25 16 -25 33zM432 1151h55 q29 0 44.5 17.5t15.5 45.5q0 29 -15.5 45.5t-44.5 16.5h-55v-125z" />
<glyph unicode="&#xaf;" horiz-adv-x="770" d="M78 1174v192h614v-192h-614z" />
<glyph unicode="&#xb0;" horiz-adv-x="739" d="M76 1376q0 121 84 191.5t209 70.5t209 -70.5t84 -191.5t-84 -191.5t-209 -70.5t-209 70.5t-84 191.5zM260 1376q0 -57 29.5 -89t79.5 -32q49 0 78.5 32t29.5 89t-29.5 89t-78.5 32t-79 -31.5t-30 -89.5z" />
<glyph unicode="&#xb1;" horiz-adv-x="1157" d="M100 0v190h957v-190h-957zM100 690v191h330v348h297v-348h330v-191h-330v-334h-297v334h-330z" />
<glyph unicode="&#xb2;" horiz-adv-x="649" d="M49 795v133l238 239q68 68 94.5 115t26.5 84q0 43 -28 64.5t-75 21.5q-49 0 -108 -25l-23 -57q-18 -51 -30.5 -67.5t-37.5 -16.5q-18 0 -27 10.5t-9 26.5v174q145 78 268 78q125 0 190.5 -56.5t65.5 -164.5q0 -57 -33 -121t-108 -141l-170 -174h321v-123h-555z" />
<glyph unicode="&#xb3;" horiz-adv-x="653" d="M29 825v127q51 -20 114.5 -33.5t118.5 -13.5q82 0 114 30t32 89q0 51 -34 83t-95 32q-37 0 -119 -15v105l86 10q72 8 103.5 37t31.5 82q0 49 -27.5 71.5t-83.5 22.5q-57 0 -123 -29l-20 -61q-16 -47 -28.5 -63.5t-32.5 -16.5q-29 0 -29 27v190q141 76 272 76 q109 0 183.5 -47t74.5 -139q0 -72 -43 -121t-118 -72q84 -12 136 -63.5t52 -128.5q0 -106 -91 -164t-229 -58q-67 0 -134.5 12.5t-110.5 30.5z" />
<glyph unicode="&#xb4;" horiz-adv-x="694" d="M133 1212l227 385l215 -141l-278 -352z" />
<glyph unicode="&#xb5;" horiz-adv-x="1314" d="M141 -492l25 590v910h287v-695q0 -162 151 -161q70 0 124 28.5t114 93.5v734h286v-805q0 -35 14.5 -48.5t41.5 -13.5q47 0 100 33v-141q-39 -23 -107.5 -43.5t-129.5 -20.5q-72 0 -116 31t-44 98v15h-8q-47 -63 -115 -103.5t-154 -40.5q-88 0 -164 45l25 -506h-330z" />
<glyph unicode="&#xb6;" horiz-adv-x="1533" d="M168 1053q0 178 114.5 274t305.5 96h700q20 0 28.5 -9t8.5 -30q0 -20 -18.5 -37.5t-65.5 -48.5l-61 -41v-1288h-193v1291h-164v-1426l367 -33q74 -6 104.5 -26.5t30.5 -57.5q0 -20 -10 -32.5t-31 -12.5h-784q-56 0 -56 68q0 47 34 71.5t93 24.5h60v844h-105 q-102 0 -184 49t-128 135t-46 189z" />
<glyph unicode="&#xb7;" horiz-adv-x="632" d="M152 639q0 72 48 119t117 47q68 0 116 -47t48 -119t-48 -119t-116 -47q-69 0 -117 47t-48 119z" />
<glyph unicode="&#xb8;" horiz-adv-x="819" d="M236 -356q135 43 135 135q0 70 -84 98l43 123h184l-43 -98q100 -41 100 -131q0 -76 -87 -137.5t-210 -84.5z" />
<glyph unicode="&#xb9;" horiz-adv-x="507" d="M18 1411v98l144 50h190v-654l47 -16q35 -12 49.5 -25.5t14.5 -34.5q0 -35 -33 -34h-364q-19 0 -29 13t-10 36q0 33 21.5 49t57.5 16h39v539z" />
<glyph unicode="&#xba;" horiz-adv-x="819" d="M80 981q0 166 94 251t236 85q141 0 235 -85t94 -251q0 -164 -94 -249t-235 -85q-142 0 -236 85t-94 249zM262 981q0 -223 148 -223q71 0 109 57t38 166q0 111 -38 168t-109 57q-147 0 -148 -225z" />
<glyph unicode="&#xbb;" horiz-adv-x="1280" d="M137 221l211 264l-211 265l174 139l336 -377v-53l-336 -377zM653 221l211 264l-211 265l174 139l336 -377v-53l-336 -377z" />
<glyph unicode="&#xbc;" horiz-adv-x="1681" d="M51 1245v98l144 50h190v-654l47 -16q35 -12 49.5 -25.5t14.5 -33.5q0 -35 -33 -35h-365q-18 0 -28.5 13t-10.5 36q0 33 21.5 49t58.5 16h39v539zM297 72l934 1351l176 -114l-934 -1352zM989 147v111l361 506h202v-494h95v-123h-95v-147h-184v147h-379zM1128 270h220v301z " />
<glyph unicode="&#xbd;" horiz-adv-x="1773" d="M51 1245v98l144 50h190v-654l47 -16q35 -12 49.5 -25.5t14.5 -33.5q0 -35 -33 -35h-365q-18 0 -28.5 13t-10.5 36q0 33 21.5 49t58.5 16h39v539zM297 72l934 1351l176 -114l-934 -1352zM1174 0v133l233 236q72 72 98.5 115.5t26.5 86.5t-27.5 64.5t-74.5 21.5 q-49 0 -109 -24l-23 -58q-18 -51 -30.5 -67t-36.5 -16q-18 0 -27.5 10t-9.5 26v174q145 78 268 78q125 0 190.5 -56t65.5 -165q0 -66 -33.5 -125t-117.5 -147l-160 -164h322v-123h-555z" />
<glyph unicode="&#xbe;" horiz-adv-x="1677" d="M33 657v127q51 -20 114.5 -33.5t118.5 -13.5q82 0 114 30t32 89q0 51 -34 83t-95 32q-37 0 -119 -15v105l86 10q72 8 103.5 37t31.5 82q0 49 -27.5 71.5t-83.5 22.5q-57 0 -122 -29l-21 -61q-16 -47 -28.5 -63.5t-32.5 -16.5q-29 0 -29 27v190q141 76 272 76 q109 0 183.5 -47t74.5 -139q0 -72 -43 -121t-118 -72q84 -12 136 -63.5t52 -128.5q0 -106 -91 -164t-228 -58q-68 0 -135.5 12.5t-110.5 30.5zM293 72l934 1351l176 -114l-934 -1352zM989 147v111l361 506h202v-494h95v-123h-95v-147h-184v147h-379zM1128 270h220v301z" />
<glyph unicode="&#xbf;" horiz-adv-x="1001" d="M86 -176q0 102 40 174t112 152q61 72 87.5 107.5t39 79.5t12.5 116v184h246v-229q0 -100 -39 -169t-121 -157q-53 -57 -82 -113.5t-29 -126.5t43 -118t119 -48q53 0 100.5 12.5t79.5 30.5l25 91q23 90 92 90q27 0 40 -12.5t13 -32.5v-228q-61 -49 -163.5 -87t-219.5 -38 q-188 0 -291.5 91.5t-103.5 230.5zM365 872q0 61 38.5 98.5t96.5 37.5q57 0 95 -37t38 -99q0 -59 -38 -96t-95 -37q-58 0 -96.5 37t-38.5 96z" />
<glyph unicode="&#xc0;" d="M-6 72q0 51 37 76.5t98 25.5h21l471 1249h329l475 -1251l70 -29q49 -20 69.5 -39.5t20.5 -50.5q0 -53 -35 -53h-565q-29 0 -44 18.5t-15 53.5q0 51 36.5 76.5t98.5 25.5h55l-92 234h-561l-88 -236l110 -41q55 -20 76 -38.5t21 -47.5q0 -45 -35 -45h-494q-28 0 -43.5 18.5 t-15.5 53.5zM428 1898l215 142l227 -385l-163 -109zM535 600h419l-209 567z" />
<glyph unicode="&#xc1;" d="M-6 72q0 51 37 76.5t98 25.5h21l471 1249h329l475 -1251l70 -29q49 -20 69.5 -39.5t20.5 -50.5q0 -53 -35 -53h-565q-29 0 -44 18.5t-15 53.5q0 51 36.5 76.5t98.5 25.5h55l-92 234h-561l-88 -236l110 -41q55 -20 76 -38.5t21 -47.5q0 -45 -35 -45h-494q-28 0 -43.5 18.5 t-15.5 53.5zM535 600h419l-209 567zM676 1653l227 385l215 -142l-278 -352z" />
<glyph unicode="&#xc2;" d="M-6 72q0 51 37 76.5t98 25.5h21l471 1249h329l475 -1251l70 -29q49 -20 69.5 -39.5t20.5 -50.5q0 -53 -35 -53h-565q-29 0 -44 18.5t-15 53.5q0 51 36.5 76.5t98.5 25.5h55l-92 234h-561l-88 -236l110 -41q55 -20 76 -38.5t21 -47.5q0 -45 -35 -45h-494q-28 0 -43.5 18.5 t-15.5 53.5zM438 1655l256 334h135l256 -334l-124 -111l-199 228l-199 -228zM535 600h419l-209 567z" />
<glyph unicode="&#xc3;" d="M-6 72q0 51 37 76.5t98 25.5h21l471 1249h329l475 -1251l70 -29q49 -20 69.5 -39.5t20.5 -50.5q0 -53 -35 -53h-565q-29 0 -44 18.5t-15 53.5q0 51 36.5 76.5t98.5 25.5h55l-92 234h-561l-88 -236l110 -41q55 -20 76 -38.5t21 -47.5q0 -45 -35 -45h-494q-28 0 -43.5 18.5 t-15.5 53.5zM432 1741q53 49 112.5 78.5t110.5 29.5q55 0 138 -43q45 -20 72.5 -30.5t58.5 -10.5q57 0 120 47l97 -137q-51 -51 -106.5 -79.5t-108.5 -28.5q-35 0 -65 10t-75 33q-45 20 -72.5 30.5t-58.5 10.5q-37 0 -65.5 -12.5t-61.5 -36.5zM535 600h419l-209 567z" />
<glyph unicode="&#xc4;" d="M-6 72q0 51 37 76.5t98 25.5h21l471 1249h329l475 -1251l70 -29q49 -20 69.5 -39.5t20.5 -50.5q0 -53 -35 -53h-565q-29 0 -44 18.5t-15 53.5q0 51 36.5 76.5t98.5 25.5h55l-92 234h-561l-88 -236l110 -41q55 -20 76 -38.5t21 -47.5q0 -45 -35 -45h-494q-28 0 -43.5 18.5 t-15.5 53.5zM416 1712q0 61 42 103.5t103 42.5q59 0 101.5 -42t42.5 -104q0 -61 -42 -103t-102 -42q-61 0 -103 42t-42 103zM535 600h419l-209 567zM850 1712q0 61 42 103.5t103 42.5q59 0 101.5 -42t42.5 -104q0 -61 -42 -103t-102 -42q-61 0 -103 42t-42 103z" />
<glyph unicode="&#xc5;" d="M-6 72q0 51 37 76.5t98 25.5h21l471 1249h329l475 -1251l70 -29q49 -20 69.5 -39.5t20.5 -50.5q0 -53 -35 -53h-565q-29 0 -44 18.5t-15 53.5q0 51 36.5 76.5t98.5 25.5h55l-92 234h-561l-88 -236l110 -41q55 -20 76 -38.5t21 -47.5q0 -45 -35 -45h-494q-28 0 -43.5 18.5 t-15.5 53.5zM530 1729q0 94 67 159.5t175 65.5q109 0 175.5 -65.5t66.5 -159.5t-66.5 -160t-175.5 -66q-108 0 -175 65.5t-67 160.5zM535 600h419l-209 567zM686 1729q0 -41 24.5 -65t61.5 -24t61.5 24t24.5 65t-24.5 64.5t-61.5 23.5t-61.5 -24t-24.5 -64z" />
<glyph unicode="&#xc6;" horiz-adv-x="2365" d="M-2 72q0 51 37 76.5t98 25.5h21l751 1059l-26 10q-78 31 -107 54.5t-29 66.5q0 31 14.5 45t35.5 14h1421v-352q0 -23 -10.5 -35t-36.5 -12q-29 0 -49.5 31.5t-49.5 111.5l-24 68h-580v-416h445l35 74q18 39 35.5 57.5t35.5 18.5q43 0 43 -41v-402q0 -41 -43 -41 q-18 0 -35.5 18.5t-35.5 57.5l-35 74h-445v-447h611l24 68q29 80 49.5 111.5t49.5 31.5q27 0 37 -12t10 -35v-352h-1205q-20 0 -32.5 14.5t-12.5 44.5q0 43 29 67t106 54l27 10v218h-577l-170 -236l110 -41q55 -20 75.5 -38.5t20.5 -47.5q0 -45 -34 -45h-525 q-28 0 -43.5 18.5t-15.5 53.5zM711 600h446v625z" />
<glyph unicode="&#xc7;" horiz-adv-x="1384" d="M74 715q0 236 99 403.5t260 251.5t345 84q164 0 289 -44t211 -114v-295q0 -25 -11.5 -39t-39.5 -14q-39 0 -60.5 26.5t-40.5 92.5l-43 141q-106 53 -247 54q-131 0 -232.5 -61.5t-160 -184.5t-58.5 -301t61.5 -303t165 -187.5t232.5 -62.5q92 0 161.5 18.5t129.5 57.5 q29 18 48 29.5t36 11.5q31 0 55 -25t24 -61q0 -37 -20.5 -64t-54.5 -51q-51 -37 -136.5 -66.5t-199.5 -38.5l-41 -94q100 -41 100 -131q0 -76 -87 -137.5t-210 -83.5l-39 94q135 43 135 135q0 70 -83 99l40 118q-178 20 -320 110.5t-225 250.5t-83 381z" />
<glyph unicode="&#xc8;" horiz-adv-x="1486" d="M96 59q0 43 29 67t106 54l27 10v1043l-27 10q-78 31 -106.5 54.5t-28.5 66.5q0 31 12.5 45t32.5 14h1194v-352q0 -23 -10 -35t-37 -12q-29 0 -49 31.5t-49 111.5l-25 68h-600v-416h465l35 74q18 39 35.5 57.5t36.5 18.5q43 0 43 -41v-402q0 -41 -43 -41q-18 0 -36 18.5 t-36 57.5l-35 74h-465v-447h631l25 68q29 80 49 111.5t49 31.5q27 0 37 -12t10 -35v-352h-1225q-20 0 -32.5 14.5t-12.5 44.5zM461 1898l215 142l227 -385l-164 -109z" />
<glyph unicode="&#xc9;" horiz-adv-x="1486" d="M96 59q0 43 29 67t106 54l27 10v1043l-27 10q-78 31 -106.5 54.5t-28.5 66.5q0 31 12.5 45t32.5 14h1194v-352q0 -23 -10 -35t-37 -12q-29 0 -49 31.5t-49 111.5l-25 68h-600v-416h465l35 74q18 39 35.5 57.5t36.5 18.5q43 0 43 -41v-402q0 -41 -43 -41q-18 0 -36 18.5 t-36 57.5l-35 74h-465v-447h631l25 68q29 80 49 111.5t49 31.5q27 0 37 -12t10 -35v-352h-1225q-20 0 -32.5 14.5t-12.5 44.5zM592 1655l227 385l215 -142l-278 -352z" />
<glyph unicode="&#xca;" horiz-adv-x="1486" d="M96 59q0 43 29 67t106 54l27 10v1043l-27 10q-78 31 -106.5 54.5t-28.5 66.5q0 31 12.5 45t32.5 14h1194v-352q0 -23 -10 -35t-37 -12q-29 0 -49 31.5t-49 111.5l-25 68h-600v-416h465l35 74q18 39 35.5 57.5t36.5 18.5q43 0 43 -41v-402q0 -41 -43 -41q-18 0 -36 18.5 t-36 57.5l-35 74h-465v-447h631l25 68q29 80 49 111.5t49 31.5q27 0 37 -12t10 -35v-352h-1225q-20 0 -32.5 14.5t-12.5 44.5zM414 1655l256 334h135l256 -334l-125 -111l-199 228l-198 -228z" />
<glyph unicode="&#xcb;" horiz-adv-x="1486" d="M96 59q0 43 29 67t106 54l27 10v1043l-27 10q-78 31 -106.5 54.5t-28.5 66.5q0 31 12.5 45t32.5 14h1194v-352q0 -23 -10 -35t-37 -12q-29 0 -49 31.5t-49 111.5l-25 68h-600v-416h465l35 74q18 39 35.5 57.5t36.5 18.5q43 0 43 -41v-402q0 -41 -43 -41q-18 0 -36 18.5 t-36 57.5l-35 74h-465v-447h631l25 68q29 80 49 111.5t49 31.5q27 0 37 -12t10 -35v-352h-1225q-20 0 -32.5 14.5t-12.5 44.5zM406 1712q0 61 41.5 103.5t103.5 42.5q59 0 101 -42t42 -104q0 -61 -42 -103t-101 -42q-62 0 -103.5 42t-41.5 103zM840 1712q0 61 42 103.5 t103 42.5q59 0 101 -42t42 -104q0 -61 -42 -103t-101 -42q-61 0 -103 42t-42 103z" />
<glyph unicode="&#xcc;" horiz-adv-x="841" d="M106 72q0 51 37 76.5t99 25.5h18v1075h-94q-29 0 -44.5 18.5t-15.5 53.5q0 51 37 76.5t99 25.5h454q23 0 31 -10t8 -31q0 -29 -19.5 -48t-70.5 -44l-78 -39v-1079l78 -39q51 -25 70.5 -44t19.5 -48q0 -20 -8 -30.5t-31 -10.5h-530q-29 0 -44.5 18.5t-15.5 53.5zM119 1898 l215 142l227 -385l-164 -109z" />
<glyph unicode="&#xcd;" horiz-adv-x="841" d="M106 72q0 51 37 76.5t99 25.5h18v1075h-94q-29 0 -44.5 18.5t-15.5 53.5q0 51 37 76.5t99 25.5h454q23 0 31 -10t8 -31q0 -29 -19.5 -48t-70.5 -44l-78 -39v-1079l78 -39q51 -25 70.5 -44t19.5 -48q0 -20 -8 -30.5t-31 -10.5h-530q-29 0 -44.5 18.5t-15.5 53.5zM254 1655 l227 385l215 -142l-278 -352z" />
<glyph unicode="&#xce;" horiz-adv-x="768" d="M57 1655l256 334h136l256 -334l-125 -111l-199 228l-199 -228zM86 72q0 51 37 76.5t98 25.5h19v1075h-95q-29 0 -44 18.5t-15 53.5q0 51 37 76.5t98 25.5h455q23 0 31 -10t8 -31q0 -29 -19.5 -48t-70.5 -44l-78 -39v-1079l78 -39q51 -25 70.5 -44t19.5 -48 q0 -20 -8.5 -30.5t-30.5 -10.5h-531q-28 0 -43.5 18.5t-15.5 53.5z" />
<glyph unicode="&#xcf;" horiz-adv-x="776" d="M27 1712q0 61 42 103.5t103 42.5q59 0 101 -42t42 -104q0 -61 -42 -103t-101 -42q-61 0 -103 42t-42 103zM80 72q0 51 37 76.5t98 25.5h18v1075h-94q-29 0 -44 18.5t-15 53.5q0 51 37 76.5t98 25.5h455q23 0 31 -10t8 -31q0 -29 -19.5 -48t-71.5 -44l-77 -39v-1079 l77 -39q51 -25 71 -44t20 -48q0 -20 -8.5 -30.5t-30.5 -10.5h-531q-28 0 -43.5 18.5t-15.5 53.5zM461 1712q0 61 42 103.5t103 42.5q59 0 101.5 -42t42.5 -104q0 -61 -42 -103t-102 -42q-61 0 -103 42t-42 103z" />
<glyph unicode="&#xd0;" horiz-adv-x="1587" d="M100 59q0 43 29 67t107 54l26 10v439h-141v192h141v412l-26 10q-78 31 -107 54.5t-29 66.5q0 31 12.5 45t32.5 14h662q197 0 356.5 -76.5t253.5 -237.5t94 -400q0 -240 -94 -398.5t-252.5 -234.5t-357.5 -76h-662q-20 0 -32.5 14.5t-12.5 44.5zM569 193h238 q195 0 294 135t99 381t-99.5 384t-293.5 138h-238v-410h332v-192h-332v-436z" />
<glyph unicode="&#xd1;" horiz-adv-x="1687" d="M96 72q0 51 37 76.5t98 25.5h19v1063l-27 10q-74 29 -100.5 52.5t-26.5 64.5q0 31 12.5 45t32.5 14h391l537 -774q41 -57 71.5 -120.5t63.5 -155.5v876h-114q-29 0 -44.5 18.5t-15.5 53.5q0 51 37 76.5t98 25.5h394q23 0 30.5 -10t7.5 -31q0 -25 -24.5 -45t-77.5 -49 l-65 -37v-1251h-283l-567 817q-31 45 -52.5 93t-52.5 139v-877l98 -41q49 -20 70 -39.5t21 -50.5q0 -20 -8.5 -30.5t-30.5 -10.5h-469q-29 0 -44.5 18.5t-15.5 53.5zM465 1741q53 49 112.5 78.5t110.5 29.5q55 0 137 -43q45 -20 73 -30.5t58 -10.5q57 0 121 47l97 -137 q-51 -51 -106.5 -79.5t-109.5 -28.5q-34 0 -64 10t-75 33q-45 20 -72.5 30.5t-58.5 10.5q-37 0 -65.5 -12.5t-61.5 -36.5z" />
<glyph unicode="&#xd2;" horiz-adv-x="1568" d="M80 711q0 250 93 416.5t252 246.5t359 80q201 0 360 -80t252 -246.5t93 -416.5t-93 -417t-252 -246t-360 -79q-200 0 -359 79t-252 246t-93 417zM391 711q0 -268 99.5 -408.5t293.5 -140.5q195 0 294.5 140t99.5 409q0 268 -99.5 409.5t-294.5 141.5t-294 -141.5 t-99 -409.5zM479 1898l215 142l228 -385l-164 -109z" />
<glyph unicode="&#xd3;" horiz-adv-x="1568" d="M80 711q0 250 93 416.5t252 246.5t359 80q201 0 360 -80t252 -246.5t93 -416.5t-93 -417t-252 -246t-360 -79q-200 0 -359 79t-252 246t-93 417zM391 711q0 -268 99.5 -408.5t293.5 -140.5q195 0 294.5 140t99.5 409q0 268 -99.5 409.5t-294.5 141.5t-294 -141.5 t-99 -409.5zM590 1653l227 385l215 -142l-278 -352z" />
<glyph unicode="&#xd4;" horiz-adv-x="1568" d="M80 711q0 250 93 416.5t252 246.5t359 80q201 0 360 -80t252 -246.5t93 -416.5t-93 -417t-252 -246t-360 -79q-200 0 -359 79t-252 246t-93 417zM391 711q0 -268 99.5 -408.5t293.5 -140.5q195 0 294.5 140t99.5 409q0 268 -99.5 409.5t-294.5 141.5t-294 -141.5 t-99 -409.5zM461 1655l256 334h135l256 -334l-125 -111l-199 228l-198 -228z" />
<glyph unicode="&#xd5;" horiz-adv-x="1568" d="M80 711q0 250 93 416.5t252 246.5t359 80q201 0 360 -80t252 -246.5t93 -416.5t-93 -417t-252 -246t-360 -79q-200 0 -359 79t-252 246t-93 417zM391 711q0 -268 99.5 -408.5t293.5 -140.5q195 0 294.5 140t99.5 409q0 268 -99.5 409.5t-294.5 141.5t-294 -141.5 t-99 -409.5zM430 1741q53 49 112.5 78.5t110.5 29.5q55 0 138 -43q45 -20 72.5 -30.5t58.5 -10.5q57 0 120 47l97 -137q-51 -51 -106.5 -79.5t-108.5 -28.5q-35 0 -65 10t-75 33q-45 20 -72.5 30.5t-58.5 10.5q-37 0 -65.5 -12.5t-61.5 -36.5z" />
<glyph unicode="&#xd6;" horiz-adv-x="1568" d="M80 711q0 250 93 416.5t252 246.5t359 80q201 0 360 -80t252 -246.5t93 -416.5t-93 -417t-252 -246t-360 -79q-200 0 -359 79t-252 246t-93 417zM391 711q0 -268 99.5 -408.5t293.5 -140.5q195 0 294.5 140t99.5 409q0 268 -99.5 409.5t-294.5 141.5t-294 -141.5 t-99 -409.5zM424 1712q0 61 42 103.5t103 42.5q59 0 101.5 -42t42.5 -104q0 -61 -42 -103t-102 -42q-61 0 -103 42t-42 103zM858 1712q0 61 42 103.5t104 42.5q59 0 101 -42t42 -104q0 -61 -42 -103t-101 -42q-62 0 -104 42t-42 103z" />
<glyph unicode="&#xd7;" horiz-adv-x="1273" d="M98 367l342 348l-342 348l201 180l330 -336l329 336l201 -180l-342 -348l342 -348l-201 -181l-329 336l-330 -336z" />
<glyph unicode="&#xd8;" horiz-adv-x="1591" d="M90 711q0 250 93 416.5t252 246.5t360 80q178 0 321 -61l111 170l170 -97l-115 -180q104 -94 160.5 -238.5t56.5 -336.5q0 -250 -93 -417t-252 -246t-359 -79q-176 0 -322 62l-154 -238l-167 98l157 244q-219 197 -219 576zM401 711q0 -203 60 -338l536 833 q-84 55 -202 56q-195 0 -294.5 -141.5t-99.5 -409.5zM592 215q84 -53 203 -53q194 0 293.5 140t99.5 409q0 207 -60 338z" />
<glyph unicode="&#xd9;" horiz-adv-x="1683" d="M66 1321q0 51 36.5 76.5t98.5 25.5h454q23 0 31 -10t8 -31q0 -29 -19.5 -48t-70.5 -44l-78 -39v-733q0 -174 93.5 -265t250.5 -91q162 0 257.5 92t95.5 264v731h-113q-29 0 -44 18.5t-15 53.5q0 51 36.5 76.5t98.5 25.5h393q23 0 31 -8t8 -29q0 -20 -18.5 -37.5 t-63.5 -48.5l-76 -49v-696q0 -193 -78.5 -324t-216 -196.5t-311.5 -65.5q-178 0 -322.5 67.5t-228.5 200t-84 318.5v694h-94q-29 0 -44 18.5t-15 53.5zM586 1898l215 142l227 -385l-164 -109z" />
<glyph unicode="&#xda;" horiz-adv-x="1683" d="M66 1321q0 51 36.5 76.5t98.5 25.5h454q23 0 31 -10t8 -31q0 -29 -19.5 -48t-70.5 -44l-78 -39v-733q0 -174 93.5 -265t250.5 -91q162 0 257.5 92t95.5 264v731h-113q-29 0 -44 18.5t-15 53.5q0 51 36.5 76.5t98.5 25.5h393q23 0 31 -8t8 -29q0 -20 -18.5 -37.5 t-63.5 -48.5l-76 -49v-696q0 -193 -78.5 -324t-216 -196.5t-311.5 -65.5q-178 0 -322.5 67.5t-228.5 200t-84 318.5v694h-94q-29 0 -44 18.5t-15 53.5zM670 1653l227 385l215 -142l-278 -352z" />
<glyph unicode="&#xdb;" horiz-adv-x="1683" d="M66 1321q0 51 36.5 76.5t98.5 25.5h454q23 0 31 -10t8 -31q0 -29 -19.5 -48t-70.5 -44l-78 -39v-733q0 -174 93.5 -265t250.5 -91q162 0 257.5 92t95.5 264v731h-113q-29 0 -44 18.5t-15 53.5q0 51 36.5 76.5t98.5 25.5h393q23 0 31 -8t8 -29q0 -20 -18.5 -37.5 t-63.5 -48.5l-76 -49v-696q0 -193 -78.5 -324t-216 -196.5t-311.5 -65.5q-178 0 -322.5 67.5t-228.5 200t-84 318.5v694h-94q-29 0 -44 18.5t-15 53.5zM537 1655l256 334h135l256 -334l-125 -111l-199 228l-198 -228z" />
<glyph unicode="&#xdc;" horiz-adv-x="1683" d="M66 1321q0 51 36.5 76.5t98.5 25.5h454q23 0 31 -10t8 -31q0 -29 -19.5 -48t-70.5 -44l-78 -39v-733q0 -174 93.5 -265t250.5 -91q162 0 257.5 92t95.5 264v731h-113q-29 0 -44 18.5t-15 53.5q0 51 36.5 76.5t98.5 25.5h393q23 0 31 -8t8 -29q0 -20 -18.5 -37.5 t-63.5 -48.5l-76 -49v-696q0 -193 -78.5 -324t-216 -196.5t-311.5 -65.5q-178 0 -322.5 67.5t-228.5 200t-84 318.5v694h-94q-29 0 -44 18.5t-15 53.5zM496 1712q0 61 42 103.5t103 42.5q59 0 101 -42t42 -104q0 -61 -42 -103t-101 -42q-61 0 -103 42t-42 103zM930 1712 q0 61 42 103.5t103 42.5q59 0 101.5 -42t42.5 -104q0 -61 -42 -103t-102 -42q-61 0 -103 42t-42 103z" />
<glyph unicode="&#xdd;" horiz-adv-x="1503" d="M2 1321q0 51 37 76.5t98 25.5h535q39 0 39 -45q0 -37 -23.5 -58.5t-73.5 -37.5l-88 -31l275 -434l286 432h-96q-29 0 -44 18.5t-15 53.5q0 51 37 76.5t98 25.5h395q39 0 39 -41q0 -49 -78 -86l-102 -47l-422 -631v-446l78 -39q51 -25 70.5 -44t19.5 -48q0 -20 -8 -30.5 t-31 -10.5h-530q-29 0 -44.5 18.5t-15.5 53.5q0 51 37 76.5t98 25.5h19v397l-432 678h-99q-29 0 -44 18.5t-15 53.5zM575 1655l228 385l215 -142l-279 -352z" />
<glyph unicode="&#xde;" horiz-adv-x="1519" d="M96 72q0 51 37 76.5t98 25.5h19v1075h-94q-29 0 -44.5 18.5t-15.5 53.5q0 51 37 76.5t98 25.5h455q23 0 31 -10t8 -31q0 -29 -19.5 -48t-70.5 -44l-78 -39v-92q131 41 279 41q260 0 427 -117.5t167 -361.5t-167 -361.5t-427 -117.5q-147 0 -279 41v-111l78 -39 q51 -25 70.5 -44t19.5 -48q0 -20 -8 -30.5t-31 -10.5h-530q-29 0 -44.5 18.5t-15.5 53.5zM557 479q143 -45 279 -45q286 0 286 287q0 289 -286 289q-135 0 -279 -45v-486z" />
<glyph unicode="&#xdf;" horiz-adv-x="1519" d="M96 68q0 47 36 71.5t95 24.5h39v835q0 244 139.5 364t382.5 120q137 0 253 -46t182.5 -126t66.5 -174q0 -74 -20.5 -126.5t-57.5 -109.5q-27 -47 -39 -73.5t-12 -59.5t22.5 -63.5t69.5 -73.5q78 -78 121 -146.5t43 -173.5q0 -168 -117.5 -255t-302.5 -87q-86 0 -173 25.5 t-158 66.5v273q0 20 13 34.5t40 14.5q37 0 56.5 -22.5t31.5 -69.5l22 -90q72 -39 140 -39q74 0 112.5 41t38.5 114q0 82 -34.5 138.5t-104.5 128.5q-53 55 -80 95t-27 89q0 45 14.5 75.5t43.5 71.5q31 43 46 78t15 88q0 92 -57 150.5t-152 58.5q-115 0 -173 -60.5 t-58 -172.5v-1057h-397q-29 0 -44.5 17.5t-15.5 50.5z" />
<glyph unicode="&#xe0;" horiz-adv-x="1148" d="M68 258q0 162 114.5 235.5t296.5 100.5l215 33v65q0 78 -48 120t-136 42q-53 0 -115.5 -16.5t-95.5 -36.5l-23 -80q-12 -45 -34.5 -67.5t-59.5 -22.5q-27 0 -40 12t-13 33v237q90 51 206 83t226 32q188 0 304 -88t116 -256v-528l61 -31q47 -23 65.5 -41t18.5 -45 q0 -20 -8 -29.5t-28 -9.5h-392v94h-8q-51 -57 -133 -91t-168 -34q-133 0 -227 75t-94 214zM295 1503l215 142l227 -385l-164 -109zM354 272q0 -53 33 -86.5t92 -33.5q86 0 150.5 59t64.5 135v117l-164 -27q-176 -31 -176 -164z" />
<glyph unicode="&#xe1;" horiz-adv-x="1148" d="M68 258q0 162 114.5 235.5t296.5 100.5l215 33v65q0 78 -48 120t-136 42q-53 0 -115.5 -16.5t-95.5 -36.5l-23 -80q-12 -45 -34.5 -67.5t-59.5 -22.5q-27 0 -40 12t-13 33v237q90 51 206 83t226 32q188 0 304 -88t116 -256v-528l61 -31q47 -23 65.5 -41t18.5 -45 q0 -20 -8 -29.5t-28 -9.5h-392v94h-8q-51 -57 -133 -91t-168 -34q-133 0 -227 75t-94 214zM354 272q0 -53 33 -86.5t92 -33.5q86 0 150.5 59t64.5 135v117l-164 -27q-176 -31 -176 -164zM367 1260l227 385l215 -142l-279 -352z" />
<glyph unicode="&#xe2;" horiz-adv-x="1148" d="M68 258q0 162 114.5 235.5t296.5 100.5l215 33v65q0 78 -48 120t-136 42q-53 0 -115.5 -16.5t-95.5 -36.5l-23 -80q-12 -45 -34.5 -67.5t-59.5 -22.5q-27 0 -40 12t-13 33v237q90 51 206 83t226 32q188 0 304 -88t116 -256v-528l61 -31q47 -23 65.5 -41t18.5 -45 q0 -20 -8 -29.5t-28 -9.5h-392v94h-8q-51 -57 -133 -91t-168 -34q-133 0 -227 75t-94 214zM223 1241l256 334h135l256 -334l-125 -111l-198 228l-199 -228zM354 272q0 -53 33 -86.5t92 -33.5q86 0 150.5 59t64.5 135v117l-164 -27q-176 -31 -176 -164z" />
<glyph unicode="&#xe3;" horiz-adv-x="1148" d="M68 258q0 162 114.5 235.5t296.5 100.5l215 33v65q0 78 -48 120t-136 42q-53 0 -115.5 -16.5t-95.5 -36.5l-23 -80q-12 -45 -34.5 -67.5t-59.5 -22.5q-27 0 -40 12t-13 33v237q90 51 206 83t226 32q188 0 304 -88t116 -256v-528l61 -31q47 -23 65.5 -41t18.5 -45 q0 -20 -8 -29.5t-28 -9.5h-392v94h-8q-51 -57 -133 -91t-168 -34q-133 0 -227 75t-94 214zM197 1343q53 49 112.5 79t110.5 30q55 0 137 -43q45 -20 72.5 -30.5t58.5 -10.5q57 0 121 47l96 -137q-51 -51 -106.5 -80t-108.5 -29q-35 0 -64.5 10.5t-74.5 32.5 q-45 20 -72.5 30.5t-58.5 10.5q-37 0 -65.5 -12t-61.5 -37zM354 272q0 -53 33 -86.5t92 -33.5q86 0 150.5 59t64.5 135v117l-164 -27q-176 -31 -176 -164z" />
<glyph unicode="&#xe4;" horiz-adv-x="1148" d="M68 258q0 162 114.5 235.5t296.5 100.5l215 33v65q0 78 -48 120t-136 42q-53 0 -115.5 -16.5t-95.5 -36.5l-23 -80q-12 -45 -34.5 -67.5t-59.5 -22.5q-27 0 -40 12t-13 33v237q90 51 206 83t226 32q188 0 304 -88t116 -256v-528l61 -31q47 -23 65.5 -41t18.5 -45 q0 -20 -8 -29.5t-28 -9.5h-392v94h-8q-51 -57 -133 -91t-168 -34q-133 0 -227 75t-94 214zM201 1300q0 61 42 103.5t103 42.5q59 0 101 -42t42 -104q0 -61 -41.5 -103t-101.5 -42q-61 0 -103 42t-42 103zM354 272q0 -53 33 -86.5t92 -33.5q86 0 150.5 59t64.5 135v117 l-164 -27q-176 -31 -176 -164zM635 1300q0 61 42 103.5t103 42.5q59 0 101.5 -42t42.5 -104q0 -61 -42 -103t-102 -42q-61 0 -103 42t-42 103z" />
<glyph unicode="&#xe5;" horiz-adv-x="1148" d="M68 258q0 162 114.5 235.5t296.5 100.5l215 33v65q0 78 -48 120t-136 42q-53 0 -115.5 -16.5t-95.5 -36.5l-23 -80q-12 -45 -34.5 -67.5t-59.5 -22.5q-27 0 -40 12t-13 33v237q90 51 206 83t226 32q188 0 304 -88t116 -256v-528l61 -31q47 -23 65.5 -41t18.5 -45 q0 -20 -8 -29.5t-28 -9.5h-392v94h-8q-51 -57 -133 -91t-168 -34q-133 0 -227 75t-94 214zM338 1368q0 94 66.5 159.5t175.5 65.5t175 -65.5t66 -159.5t-66.5 -159.5t-174.5 -65.5q-109 0 -175.5 65.5t-66.5 159.5zM354 272q0 -53 33 -86.5t92 -33.5q86 0 150.5 59t64.5 135 v117l-164 -27q-176 -31 -176 -164zM494 1368q0 -41 24.5 -64.5t61.5 -23.5q36 0 61 23.5t25 64.5t-25 64.5t-61 23.5q-37 0 -61.5 -23.5t-24.5 -64.5z" />
<glyph unicode="&#xe6;" horiz-adv-x="1726" d="M68 258q0 162 114.5 235.5t296.5 100.5l215 33v65q0 78 -48 120t-136 42q-53 0 -115.5 -16.5t-95.5 -36.5l-23 -80q-12 -45 -34.5 -67.5t-59.5 -22.5q-27 0 -40 12t-13 33v237q90 51 206 83t226 32q96 0 177 -36t139 -101q68 66 149.5 101.5t169.5 35.5q135 0 243.5 -53 t170 -152.5t61.5 -230.5q0 -43 -12 -91t-31 -85h-661v-8q6 -133 86 -199t186 -66q70 0 121 15.5t121 54.5q6 4 23.5 13.5t26.5 12.5t17 3q31 0 52.5 -22.5t21.5 -59.5q0 -35 -20.5 -60.5t-65.5 -52.5q-133 -78 -311 -78q-137 0 -252 47t-189 140q-63 -92 -166.5 -139.5 t-228.5 -47.5q-133 0 -227 75t-94 214zM354 272q0 -53 33 -86.5t92 -33.5q58 0 107 27.5t78.5 71.5t29.5 93l-12 68q-4 33 -4 49l-148 -25q-176 -31 -176 -164zM967 590h405q12 29 12 63q0 92 -51 146.5t-141 54.5t-153.5 -70.5t-71.5 -193.5z" />
<glyph unicode="&#xe7;" horiz-adv-x="1036" d="M57 502q0 174 74 292.5t192.5 176t256.5 57.5q117 0 218 -38t163 -87v-231q0 -20 -13.5 -32.5t-40.5 -12.5q-70 0 -92 90l-24 94q-72 43 -173 43q-119 0 -196.5 -89t-77.5 -265t81 -266.5t212 -90.5q57 0 106.5 16.5t104.5 51.5q6 4 20.5 13t23.5 12.5t17 3.5 q31 0 51.5 -22.5t20.5 -59.5q0 -63 -92 -119q-86 -53 -201 -66l-37 -82q100 -41 101 -131q0 -76 -87 -137t-210 -84l-39 94q135 43 135 136q0 70 -84 98l39 110q-203 31 -326 167.5t-123 357.5z" />
<glyph unicode="&#xe8;" horiz-adv-x="1110" d="M61 489q0 172 69 294t186.5 183.5t263.5 61.5q135 0 243.5 -53t170 -152.5t61.5 -230.5q0 -43 -12.5 -91t-30.5 -85h-662q0 -137 81 -205t192 -68q70 0 121 15.5t120 54.5q6 4 23.5 13.5t27 12.5t17.5 3q31 0 52.5 -22.5t21.5 -59.5q0 -35 -20.5 -60.5t-65.5 -52.5 q-133 -78 -312 -78q-153 0 -277 58.5t-197 176.5t-73 285zM281 1503l215 142l227 -385l-164 -109zM350 590h406q12 29 12 63q0 92 -51 146.5t-142 54.5q-90 0 -153.5 -70.5t-71.5 -193.5z" />
<glyph unicode="&#xe9;" horiz-adv-x="1110" d="M61 489q0 172 69 294t186.5 183.5t263.5 61.5q135 0 243.5 -53t170 -152.5t61.5 -230.5q0 -43 -12.5 -91t-30.5 -85h-662q0 -137 81 -205t192 -68q70 0 121 15.5t120 54.5q6 4 23.5 13.5t27 12.5t17.5 3q31 0 52.5 -22.5t21.5 -59.5q0 -35 -20.5 -60.5t-65.5 -52.5 q-133 -78 -312 -78q-153 0 -277 58.5t-197 176.5t-73 285zM350 590h406q12 29 12 63q0 92 -51 146.5t-142 54.5q-90 0 -153.5 -70.5t-71.5 -193.5zM399 1260l228 385l215 -142l-279 -352z" />
<glyph unicode="&#xea;" horiz-adv-x="1110" d="M61 489q0 172 69 294t186.5 183.5t263.5 61.5q135 0 243.5 -53t170 -152.5t61.5 -230.5q0 -43 -12.5 -91t-30.5 -85h-662q0 -137 81 -205t192 -68q70 0 121 15.5t120 54.5q6 4 23.5 13.5t27 12.5t17.5 3q31 0 52.5 -22.5t21.5 -59.5q0 -35 -20.5 -60.5t-65.5 -52.5 q-133 -78 -312 -78q-153 0 -277 58.5t-197 176.5t-73 285zM244 1241l256 334h135l256 -334l-125 -111l-199 228l-198 -228zM350 590h406q12 29 12 63q0 92 -51 146.5t-142 54.5q-90 0 -153.5 -70.5t-71.5 -193.5z" />
<glyph unicode="&#xeb;" horiz-adv-x="1110" d="M61 489q0 172 69 294t186.5 183.5t263.5 61.5q135 0 243.5 -53t170 -152.5t61.5 -230.5q0 -43 -12.5 -91t-30.5 -85h-662q0 -137 81 -205t192 -68q70 0 121 15.5t120 54.5q6 4 23.5 13.5t27 12.5t17.5 3q31 0 52.5 -22.5t21.5 -59.5q0 -35 -20.5 -60.5t-65.5 -52.5 q-133 -78 -312 -78q-153 0 -277 58.5t-197 176.5t-73 285zM199 1280q0 61 42 103t103 42q59 0 101 -42t42 -103t-42 -103t-101 -42q-61 0 -103 42t-42 103zM350 590h406q12 29 12 63q0 92 -51 146.5t-142 54.5q-90 0 -153.5 -70.5t-71.5 -193.5zM633 1280q0 61 42 103 t103 42q59 0 101.5 -42t42.5 -103t-42 -103t-102 -42q-61 0 -103 42t-42 103z" />
<glyph unicode="&#xec;" horiz-adv-x="716" d="M72 1503l215 142l227 -385l-164 -109zM104 68q0 47 34 71.5t93 24.5h19v680h-90q-55 0 -56 67q0 47 34 72t93 25h306v-846l73 -37q47 -23 65.5 -40t18.5 -46q0 -20 -8 -29.5t-29 -9.5h-497q-56 0 -56 68z" />
<glyph unicode="&#xed;" horiz-adv-x="688" d="M78 68q0 47 33.5 71.5t93.5 24.5h18v680h-90q-55 0 -55 67q0 47 33.5 72t93.5 25h305v-846l74 -37q47 -23 65.5 -40t18.5 -46q0 -20 -8.5 -29.5t-28.5 -9.5h-498q-55 0 -55 68zM150 1260l227 385l215 -142l-279 -352z" />
<glyph unicode="&#xee;" horiz-adv-x="688" d="M4 1262l256 333h135l256 -333l-125 -111l-198 227l-199 -227zM86 68q0 47 34 71.5t93 24.5h18v680h-90q-55 0 -55 67q0 47 34 72t93 25h305v-846l74 -37q47 -23 65.5 -40t18.5 -46q0 -20 -8.5 -29.5t-28.5 -9.5h-498q-55 0 -55 68z" />
<glyph unicode="&#xef;" horiz-adv-x="729" d="M-2 1300q0 61 42 103.5t103 42.5q59 0 101.5 -42t42.5 -104q0 -61 -42 -103t-102 -42q-61 0 -103 42t-42 103zM100 68q0 47 34 71.5t93 24.5h19v680h-90q-55 0 -56 67q0 47 34 72t93 25h305v-846l74 -37q47 -23 65.5 -40t18.5 -46q0 -20 -8 -29.5t-29 -9.5h-497 q-56 0 -56 68zM432 1300q0 61 42 103.5t104 42.5q59 0 101 -42t42 -104q0 -61 -42 -103t-101 -42q-62 0 -104 42t-42 103z" />
<glyph unicode="&#xf0;" horiz-adv-x="1308" d="M86 442q0 125 56.5 222.5t165 151.5t257.5 54q76 0 153 -21.5t138 -55.5q0 164 -80 280l-235 -106l-64 135l178 80q-88 51 -202 51q-98 0 -179 -21v187q109 25 183 24q258 0 434 -135l268 119l64 -133l-219 -98q76 -98 115.5 -226.5t39.5 -275.5q0 -326 -143.5 -510 t-413.5 -184q-145 0 -263 54t-185.5 158.5t-67.5 249.5zM391 432q0 -106 53.5 -184t165.5 -78q121 0 182.5 110.5t61.5 317.5q-51 37 -115.5 59.5t-120.5 22.5q-109 0 -168 -64.5t-59 -183.5z" />
<glyph unicode="&#xf1;" horiz-adv-x="1366" d="M76 68q0 47 33.5 71.5t93.5 24.5h18v680h-90q-55 0 -55 67q0 47 33.5 72t93.5 25h293v-123h8q76 66 162 104.5t178 38.5q152 0 246 -85t94 -232v-549l73 -37q47 -23 65.5 -40t18.5 -46q0 -20 -8 -29.5t-28 -9.5h-498q-55 0 -55 68q0 47 33.5 71.5t93.5 24.5h18v520 q0 162 -152 162q-59 0 -122.5 -34t-114.5 -89v-561l74 -37q47 -23 65.5 -40t18.5 -46q0 -20 -8.5 -29.5t-28.5 -9.5h-498q-55 0 -55 68zM326 1343q53 49 112.5 79t110.5 30q55 0 137 -43q45 -20 72.5 -30.5t58.5 -10.5q57 0 121 47l96 -137q-51 -51 -106.5 -80t-108.5 -29 q-35 0 -64.5 10.5t-74.5 32.5q-45 20 -72.5 30.5t-58.5 10.5q-37 0 -65.5 -12t-61.5 -37z" />
<glyph unicode="&#xf2;" horiz-adv-x="1163" d="M59 500q0 176 71 294.5t189.5 176t262.5 57.5q143 0 262 -57.5t189.5 -176t70.5 -294.5t-71.5 -296t-189.5 -177.5t-261 -57.5q-144 0 -261.5 57.5t-189.5 177.5t-72 296zM305 1503l215 142l228 -385l-164 -109zM348 500q0 -174 59.5 -265.5t174.5 -91.5 q114 0 173.5 91.5t59.5 265.5t-59.5 264t-173.5 90q-115 0 -174.5 -90t-59.5 -264z" />
<glyph unicode="&#xf3;" horiz-adv-x="1163" d="M59 500q0 176 71 294.5t189.5 176t262.5 57.5q143 0 262 -57.5t189.5 -176t70.5 -294.5t-71.5 -296t-189.5 -177.5t-261 -57.5q-144 0 -261.5 57.5t-189.5 177.5t-72 296zM348 500q0 -174 59.5 -265.5t174.5 -91.5q114 0 173.5 91.5t59.5 265.5t-59.5 264t-173.5 90 q-115 0 -174.5 -90t-59.5 -264zM418 1260l227 385l215 -142l-278 -352z" />
<glyph unicode="&#xf4;" horiz-adv-x="1163" d="M59 500q0 176 71 294.5t189.5 176t262.5 57.5q143 0 262 -57.5t189.5 -176t70.5 -294.5t-71.5 -296t-189.5 -177.5t-261 -57.5q-144 0 -261.5 57.5t-189.5 177.5t-72 296zM258 1241l256 334h135l256 -334l-125 -111l-198 228l-199 -228zM348 500q0 -174 59.5 -265.5 t174.5 -91.5q114 0 173.5 91.5t59.5 265.5t-59.5 264t-173.5 90q-115 0 -174.5 -90t-59.5 -264z" />
<glyph unicode="&#xf5;" horiz-adv-x="1163" d="M59 500q0 176 71 294.5t189.5 176t262.5 57.5q143 0 262 -57.5t189.5 -176t70.5 -294.5t-71.5 -296t-189.5 -177.5t-261 -57.5q-144 0 -261.5 57.5t-189.5 177.5t-72 296zM231 1343q53 49 112.5 79t111.5 30q55 0 137 -43q45 -20 72.5 -30.5t58.5 -10.5q57 0 121 47 l96 -137q-51 -51 -106.5 -80t-108.5 -29q-35 0 -64.5 10.5t-74.5 32.5q-45 20 -73 30.5t-58 10.5q-37 0 -66 -12t-61 -37zM348 500q0 -174 59.5 -265.5t174.5 -91.5q114 0 173.5 91.5t59.5 265.5t-59.5 264t-173.5 90q-115 0 -174.5 -90t-59.5 -264z" />
<glyph unicode="&#xf6;" horiz-adv-x="1163" d="M59 500q0 176 71 294.5t189.5 176t262.5 57.5q143 0 262 -57.5t189.5 -176t70.5 -294.5t-71.5 -296t-189.5 -177.5t-261 -57.5q-144 0 -261.5 57.5t-189.5 177.5t-72 296zM221 1300q0 61 42 103.5t104 42.5q59 0 101 -42t42 -104q0 -61 -42 -103t-101 -42q-62 0 -104 42 t-42 103zM348 500q0 -174 59.5 -265.5t174.5 -91.5q114 0 173.5 91.5t59.5 265.5t-59.5 264t-173.5 90q-115 0 -174.5 -90t-59.5 -264zM655 1300q0 61 42 103.5t104 42.5q59 0 101 -42t42 -104q0 -61 -42 -103t-101 -42q-62 0 -104 42t-42 103z" />
<glyph unicode="&#xf7;" horiz-adv-x="1226" d="M104 516v236h1018v-236h-1018zM473 246q0 61 41 102t102 41q59 0 100.5 -41t41.5 -102t-41 -102.5t-101 -41.5q-61 0 -102 41t-41 103zM473 1022q0 61 41 102t102 41q59 0 100.5 -41t41.5 -102t-41 -102t-101 -41q-61 0 -102 41t-41 102z" />
<glyph unicode="&#xf8;" horiz-adv-x="1146" d="M51 500q0 176 71 294.5t189.5 176t261.5 57.5q119 0 222 -39l90 139l145 -88l-90 -141q156 -141 156 -399q0 -176 -72 -296t-189.5 -177.5t-261.5 -57.5q-111 0 -211 35l-98 -154l-151 95l98 149q-160 145 -160 406zM340 500q0 -106 20 -176l326 501q-47 29 -113 29 q-115 0 -174 -90t-59 -264zM469 168q43 -25 104 -25q115 0 174.5 91.5t59.5 265.5q0 96 -19 166z" />
<glyph unicode="&#xf9;" horiz-adv-x="1329" d="M29 911q0 47 33.5 72t93.5 25h305v-695q0 -162 151 -161q59 0 123 33.5t115 88.5v570h-90q-55 0 -55 67q0 47 33.5 72t92.5 25h306v-846l73 -37q47 -23 65.5 -40t18.5 -46q0 -20 -8 -29.5t-29 -9.5h-395v113h-8q-76 -66 -162 -105t-178 -39q-152 0 -246 85t-94 233v557 h-90q-55 0 -55 67zM299 1503l215 142l227 -385l-163 -109z" />
<glyph unicode="&#xfa;" horiz-adv-x="1329" d="M29 911q0 47 33.5 72t93.5 25h305v-695q0 -162 151 -161q59 0 123 33.5t115 88.5v570h-90q-55 0 -55 67q0 47 33.5 72t92.5 25h306v-846l73 -37q47 -23 65.5 -40t18.5 -46q0 -20 -8 -29.5t-29 -9.5h-395v113h-8q-76 -66 -162 -105t-178 -39q-152 0 -246 85t-94 233v557 h-90q-55 0 -55 67zM436 1260l228 385l215 -142l-279 -352z" />
<glyph unicode="&#xfb;" horiz-adv-x="1329" d="M29 911q0 47 33.5 72t93.5 25h305v-695q0 -162 151 -161q59 0 123 33.5t115 88.5v570h-90q-55 0 -55 67q0 47 33.5 72t92.5 25h306v-846l73 -37q47 -23 65.5 -40t18.5 -46q0 -20 -8 -29.5t-29 -9.5h-395v113h-8q-76 -66 -162 -105t-178 -39q-152 0 -246 85t-94 233v557 h-90q-55 0 -55 67zM293 1262l256 333h135l256 -333l-125 -111l-199 227l-198 -227z" />
<glyph unicode="&#xfc;" horiz-adv-x="1329" d="M29 911q0 47 33.5 72t93.5 25h305v-695q0 -162 151 -161q59 0 123 33.5t115 88.5v570h-90q-55 0 -55 67q0 47 33.5 72t92.5 25h306v-846l73 -37q47 -23 65.5 -40t18.5 -46q0 -20 -8 -29.5t-29 -9.5h-395v113h-8q-76 -66 -162 -105t-178 -39q-152 0 -246 85t-94 233v557 h-90q-55 0 -55 67zM266 1300q0 61 42 103.5t104 42.5q59 0 101 -42t42 -104q0 -61 -42 -103t-101 -42q-62 0 -104 42t-42 103zM700 1300q0 61 42 103.5t104 42.5q59 0 101 -42t42 -104q0 -61 -42 -103t-101 -42q-62 0 -104 42t-42 103z" />
<glyph unicode="&#xfd;" horiz-adv-x="1239" d="M-8 911q0 47 33.5 72t93.5 25h426q20 0 28.5 -9.5t8.5 -29.5q0 -27 -20.5 -46.5t-63.5 -39.5l-80 -41l203 -475q10 -25 13 -58t3 -43h10q0 10 4 44t13 57l219 477h-103q-55 0 -55 67q0 47 34 72t93 25h362q20 0 28.5 -9.5t8.5 -29.5q0 -25 -21.5 -44.5t-62.5 -41.5 l-75 -41l-385 -854q-68 -152 -126.5 -246t-136 -151.5t-182.5 -57.5q-69 0 -114.5 38t-45.5 101q0 47 29 95q131 0 209 34.5t129 145.5l25 53l-373 844h-74q-55 0 -55 67zM420 1260l227 385l215 -142l-278 -352z" />
<glyph unicode="&#xfe;" horiz-adv-x="1343" d="M90 -369q0 47 34 72t93 25h19v1562h-91q-55 0 -55 68q0 47 34 71.5t93 24.5h305v-530l6 -4q129 109 293 108q127 0 231.5 -56.5t168 -177t63.5 -302.5q0 -172 -75.5 -290t-202.5 -175.5t-281 -57.5q-92 0 -203 27v-270l74 -37q47 -23 65.5 -40.5t18.5 -45.5 q0 -20 -8 -29.5t-29 -9.5h-498q-55 -1 -55 67zM522 188q88 -45 195 -45q280 0 280 346q0 365 -258 365q-86 0 -151.5 -53t-65.5 -144v-469z" />
<glyph unicode="&#xff;" horiz-adv-x="1239" d="M-8 911q0 47 33.5 72t93.5 25h426q20 0 28.5 -9.5t8.5 -29.5q0 -27 -20.5 -46.5t-63.5 -39.5l-80 -41l203 -475q10 -25 13 -58t3 -43h10q0 10 4 44t13 57l219 477h-103q-55 0 -55 67q0 47 34 72t93 25h362q20 0 28.5 -9.5t8.5 -29.5q0 -25 -21.5 -44.5t-62.5 -41.5 l-75 -41l-385 -854q-68 -152 -126.5 -246t-136 -151.5t-182.5 -57.5q-69 0 -114.5 38t-45.5 101q0 47 29 95q131 0 209 34.5t129 145.5l25 53l-373 844h-74q-55 0 -55 67zM281 1300q0 61 42 103.5t103 42.5q59 0 101 -42t42 -104q0 -61 -42 -103t-101 -42q-61 0 -103 42 t-42 103zM715 1300q0 61 42 103.5t103 42.5q59 0 101.5 -42t42.5 -104q0 -61 -42 -103t-102 -42q-61 0 -103 42t-42 103z" />
<glyph unicode="&#x152;" horiz-adv-x="2351" d="M80 715q0 236 99.5 403.5t260 251.5t344.5 84q109 0 236 -31h1180v-352q0 -23 -10.5 -35t-37.5 -12q-29 0 -49 31.5t-49 111.5l-24 68h-580v-416h444l35 74q18 39 35.5 57.5t36.5 18.5q43 0 43 -41v-402q0 -41 -43 -41q-18 0 -35.5 18.5t-36.5 57.5l-35 74h-444v-447h610 l25 68q29 80 49 111.5t49 31.5q27 0 37 -12t10 -35v-352h-1032q-180 -31 -321 -31q-222 0 -401 76t-287.5 243t-108.5 427zM391 715q0 -178 61.5 -303t165 -187.5t232.5 -62.5q94 0 155.5 6t137.5 27v1034q-125 33 -254 33q-223 0 -360.5 -130.5t-137.5 -416.5z" />
<glyph unicode="&#x153;" horiz-adv-x="1867" d="M59 500q0 176 71 294.5t189.5 176t262.5 57.5q109 0 209 -48t172 -136q72 88 169 136t205 48q135 0 244 -53t170 -152.5t61 -230.5q0 -43 -12 -91t-31 -85h-661q2 -137 83 -205t189 -68q70 0 121 15.5t121 54.5q6 4 23.5 13.5t26.5 12.5t18 3q31 0 52 -22.5t21 -59.5 q0 -35 -20.5 -60.5t-65.5 -52.5q-133 -78 -311 -78q-119 0 -223.5 48.5t-179.5 136.5q-72 -88 -171.5 -136.5t-209.5 -48.5q-144 0 -261.5 57.5t-189.5 177.5t-72 296zM348 500q0 -174 59.5 -265.5t174.5 -91.5q114 0 173.5 91.5t59.5 265.5t-59.5 264t-173.5 90 q-115 0 -174.5 -90t-59.5 -264zM1108 590h405q12 29 13 63q0 92 -51.5 146.5t-141.5 54.5t-153.5 -70.5t-71.5 -193.5z" />
<glyph unicode="&#x178;" horiz-adv-x="1503" d="M2 1321q0 51 37 76.5t98 25.5h535q39 0 39 -45q0 -37 -23.5 -58.5t-73.5 -37.5l-88 -31l275 -434l286 432h-96q-29 0 -44 18.5t-15 53.5q0 51 37 76.5t98 25.5h395q39 0 39 -41q0 -49 -78 -86l-102 -47l-422 -631v-446l78 -39q51 -25 70.5 -44t19.5 -48q0 -20 -8 -30.5 t-31 -10.5h-530q-29 0 -44.5 18.5t-15.5 53.5q0 51 37 76.5t98 25.5h19v397l-432 678h-99q-29 0 -44 18.5t-15 53.5zM369 1712q0 61 42 103.5t103 42.5q59 0 101 -42t42 -104q0 -61 -42 -103t-101 -42q-61 0 -103 42t-42 103zM803 1712q0 61 42 103.5t103 42.5 q59 0 101.5 -42t42.5 -104q0 -61 -42 -103t-102 -42q-61 0 -103 42t-42 103z" />
<glyph unicode="&#x2c6;" horiz-adv-x="913" d="M133 1214l256 334h135l256 -334l-125 -110l-198 227l-199 -227z" />
<glyph unicode="&#x2dc;" horiz-adv-x="860" d="M76 1305q53 49 112.5 78.5t110.5 29.5q55 0 137 -43q45 -20 73 -30.5t58 -10.5q57 0 121 47l96 -137q-51 -51 -106 -80t-109 -29q-34 0 -64 10.5t-75 33.5q-45 20 -72.5 30t-58.5 10q-37 0 -65.5 -12t-61.5 -37z" />
<glyph unicode="&#x2000;" horiz-adv-x="1020" />
<glyph unicode="&#x2001;" horiz-adv-x="2040" />
<glyph unicode="&#x2002;" horiz-adv-x="1020" />
<glyph unicode="&#x2003;" horiz-adv-x="2040" />
<glyph unicode="&#x2004;" horiz-adv-x="680" />
<glyph unicode="&#x2005;" horiz-adv-x="510" />
<glyph unicode="&#x2006;" horiz-adv-x="340" />
<glyph unicode="&#x2007;" horiz-adv-x="340" />
<glyph unicode="&#x2008;" horiz-adv-x="255" />
<glyph unicode="&#x2009;" horiz-adv-x="408" />
<glyph unicode="&#x200a;" horiz-adv-x="113" />
<glyph unicode="&#x2010;" horiz-adv-x="712" d="M31 496v235h651v-235h-651z" />
<glyph unicode="&#x2011;" horiz-adv-x="712" d="M31 496v235h651v-235h-651z" />
<glyph unicode="&#x2012;" horiz-adv-x="712" d="M31 496v235h651v-235h-651z" />
<glyph unicode="&#x2013;" horiz-adv-x="985" d="M4 496v235h977v-235h-977z" />
<glyph unicode="&#x2014;" horiz-adv-x="1783" d="M4 496v235h1776v-235h-1776z" />
<glyph unicode="&#x2018;" horiz-adv-x="653" d="M111 954q31 115 122 285t179 264l131 -80q-39 -59 -94.5 -185t-67.5 -200l78 -24q25 -8 37 -22.5t12 -41.5q0 -43 -27.5 -66.5t-70.5 -23.5q-35 0 -60 10z" />
<glyph unicode="&#x2019;" horiz-adv-x="653" d="M111 922q39 59 94 185t67 200l-77 24q-25 8 -37.5 22.5t-12.5 41.5q0 43 28 66.5t71 23.5q35 0 59 -10l240 -84q-31 -115 -122 -285t-179 -264z" />
<glyph unicode="&#x201a;" horiz-adv-x="675" d="M119 -272q51 70 101 175t56 167l-63 20q-25 8 -37 22.5t-12 41.5q0 41 26.5 65.5t71.5 24.5q27 0 41 -4l268 -60q-33 -121 -116.5 -279.5t-184.5 -265.5z" />
<glyph unicode="&#x201c;" horiz-adv-x="1124" d="M111 954q31 115 122 285t179 264l131 -80q-39 -59 -94.5 -185t-67.5 -200l78 -24q25 -8 37 -22.5t12 -41.5q0 -43 -27.5 -66.5t-70.5 -23.5q-35 0 -60 10zM582 954q31 115 122 285t179 264l131 -80q-39 -59 -94.5 -185t-67.5 -200l78 -24q25 -8 37 -22.5t12 -41.5 q0 -43 -27.5 -66.5t-70.5 -23.5q-35 0 -60 10z" />
<glyph unicode="&#x201d;" horiz-adv-x="1124" d="M111 922q39 59 94 185t67 200l-77 24q-25 8 -37.5 22.5t-12.5 41.5q0 43 28 66.5t71 23.5q35 0 59 -10l240 -84q-31 -115 -122 -285t-179 -264zM582 922q39 59 94 185t67 200l-77 24q-25 8 -37.5 22.5t-12.5 41.5q0 43 28 66.5t71 23.5q35 0 59 -10l240 -84 q-31 -115 -122 -285t-179 -264z" />
<glyph unicode="&#x201e;" horiz-adv-x="1159" d="M119 -272q51 70 101 175t56 167l-63 20q-25 8 -37 22.5t-12 41.5q0 41 26.5 65.5t71.5 24.5q27 0 41 -4l268 -60q-33 -121 -116.5 -279.5t-184.5 -265.5zM600 -272q51 70 101.5 175t56.5 167l-64 20q-25 8 -37 22.5t-12 41.5q0 41 26.5 65.5t71.5 24.5q27 0 41 -4 l269 -60q-33 -121 -117 -279.5t-184 -265.5z" />
<glyph unicode="&#x2022;" horiz-adv-x="903" d="M168 594q0 121 81 200.5t200 79.5q123 0 204.5 -79.5t81.5 -200.5q0 -127 -81 -207t-205 -80q-121 0 -201 80t-80 207z" />
<glyph unicode="&#x2026;" horiz-adv-x="1628" d="M137 135q0 72 48 119t118 47q68 0 116 -47t48 -119t-48 -119t-116 -47q-70 0 -118 47t-48 119zM649 135q0 72 48 119t118 47q68 0 116 -47t48 -119t-48 -119t-116 -47q-70 0 -118 47t-48 119zM1161 135q0 72 48 119t118 47q68 0 116 -47t48 -119t-48 -119t-116 -47 q-70 0 -118 47t-48 119z" />
<glyph unicode="&#x202f;" horiz-adv-x="408" />
<glyph unicode="&#x2039;" horiz-adv-x="763" d="M117 459v53l336 377l174 -139l-211 -265l211 -264l-174 -139z" />
<glyph unicode="&#x203a;" horiz-adv-x="763" d="M137 221l211 264l-211 265l174 139l336 -377v-53l-336 -377z" />
<glyph unicode="&#x205f;" horiz-adv-x="510" />
<glyph unicode="&#x20ac;" horiz-adv-x="1392" d="M29 395v193h960v-193h-463q57 -117 157.5 -177t227.5 -60q88 0 156 18.5t129 54.5q10 6 30.5 18.5t31 17.5t20.5 5q31 0 55.5 -24.5t24.5 -59.5q0 -37 -19.5 -62.5t-56.5 -49.5q-61 -43 -164.5 -75t-249.5 -32q-227 0 -405 109.5t-256 316.5h-178zM29 743v193h159 q45 158 145.5 267.5t233.5 164.5t281 55q162 0 283.5 -43t205.5 -110v-289q0 -25 -11 -39t-40 -14q-37 0 -57.5 26.5t-40.5 89.5l-41 138q-41 23 -105.5 38t-138.5 15q-145 0 -252.5 -76t-154.5 -223h493v-193h-960z" />
<glyph unicode="&#x2122;" horiz-adv-x="1300" d="M8 1278v145h467v-145q0 -37 -37 -37q-20 0 -31.5 13.5t-19.5 39.5l-8 27h-68v-338l19 -10q23 -12 31 -23.5t8 -25.5q0 -27 -23 -27h-209q-14 0 -23.5 10.5t-9.5 26.5q0 51 56 51h12v336h-70l-8 -27q-10 -29 -19 -41t-30 -12q-37 0 -37 37zM459 940q0 25 14 39t37 14h8 l66 334l-19 8q-20 10 -30.5 20.5t-10.5 28.5t11.5 28.5t27.5 10.5h201l90 -364l82 364h207q12 0 24.5 -10t12.5 -29q0 -18 -10.5 -28t-34.5 -23l-15 -6l76 -340l27 -10q37 -14 37 -49q0 -31 -37 -31h-191q-41 0 -41 43q0 25 14.5 39t36.5 14h13l-47 246h-7l-86 -342h-143 l-88 338h-6l-47 -250l43 -10q41 -8 41 -47q0 -31 -29 -31h-186q-41 0 -41 43z" />
<glyph unicode="&#x25fc;" horiz-adv-x="1003" d="M0 0v1004h1004v-1004h-1004z" />
</font>
</defs>
</svg>
