<?xml version="1.0" standalone="no"?>
<!DOCTYPE svg PUBLIC "-//W3C//DTD SVG 1.1//EN" "http://www.w3.org/Graphics/SVG/1.1/DTD/svg11.dtd" >
<svg xmlns="http://www.w3.org/2000/svg" xmlns:xlink="http://www.w3.org/1999/xlink" version="1.1">
<metadata></metadata>
<defs>
<font id="maitreeregular" horiz-adv-x="1509" >
<font-face units-per-em="2048" ascent="1536" descent="-512" />
<missing-glyph horiz-adv-x="589" />
<glyph unicode="&#xfb01;" horiz-adv-x="1253" d="M92 938q0 27 19.5 43t52.5 16h80v119q0 172 113.5 264.5t287.5 92.5q119 0 228.5 -39t160.5 -84v-176q0 -27 -30 -27q-20 0 -33 13.5t-19 43.5l-18 96q-39 27 -110.5 48.5t-149.5 21.5q-119 0 -198 -63.5t-79 -182.5v-127h664v-901l96 -22q29 -6 42 -17.5t13 -31.5 q0 -25 -24 -25h-385q-33 0 -33 41q0 27 19.5 41t52.5 14h65v807l-510 -10v-797l97 -22q29 -6 42 -17.5t13 -31.5q0 -25 -25 -25h-385q-33 0 -33 41q0 27 19.5 41t52.5 14h66v797h-117q-16 0 -25.5 12.5t-9.5 32.5z" />
<glyph unicode="&#xfb02;" horiz-adv-x="1259" d="M92 938q0 27 19.5 43t52.5 16h80v119q0 172 116.5 264.5t288.5 92.5q123 0 230.5 -37t171.5 -82v-1258l96 -22q33 -8 44 -18.5t11 -30.5q0 -25 -24 -25h-385q-33 0 -33 41q0 27 19.5 41t51.5 14h66v1225q-109 49 -219 49q-119 0 -200 -63.5t-81 -182.5v-127h252 q27 0 27 -28q0 -51 -92 -60l-187 -16v-797l97 -22q31 -10 43 -20.5t12 -28.5q0 -25 -25 -25h-385q-33 0 -33 41q0 27 19.5 41t52.5 14h64v23h2v774h-117q-16 0 -25.5 12.5t-9.5 32.5z" />
<glyph horiz-adv-x="1024" />
<glyph horiz-adv-x="1024" />
<glyph unicode="&#xd;" horiz-adv-x="589" />
<glyph unicode=" "  horiz-adv-x="589" />
<glyph unicode="&#x09;" horiz-adv-x="589" />
<glyph unicode="&#xa0;" horiz-adv-x="589" />
<glyph unicode="!" horiz-adv-x="643" d="M227 72q0 41 28 67.5t67 26.5q41 0 68.5 -25.5t27.5 -68.5t-28 -70t-68 -27q-39 0 -67 27t-28 70zM229 1448h185l-41 -1118h-101z" />
<glyph unicode="&#x22;" horiz-adv-x="681" d="M78 956l76 492l151 -12l-117 -480h-110zM377 956l76 492l151 -12l-119 -480h-108z" />
<glyph unicode="#" horiz-adv-x="1239" d="M57 340v111h230l63 337h-215v111h236l55 293h139l-55 -293h291l55 293h139l-55 -293h209v-111h-229l-64 -337h219v-111h-241l-64 -340h-137l63 340h-293l-63 -340h-137l63 340h-209zM426 451h291l63 337h-291z" />
<glyph unicode="$" horiz-adv-x="1402" d="M150 111v247q0 12 8 21.5t22 9.5q25 0 39 -18.5t23 -63.5l26 -131q59 -43 158.5 -66.5t196.5 -23.5q150 0 251 55.5t101 177.5q0 80 -38 134.5t-118 98.5t-237 107q-209 86 -317.5 179.5t-108.5 240.5q0 166 120.5 252t301.5 94v168h124v-170q104 -10 203 -47t166 -92 v-237q0 -31 -29 -31q-25 0 -40 18.5t-23 63.5l-27 129q-59 43 -143 66.5t-180 23.5q-133 0 -221.5 -53.5t-88.5 -163.5q0 -78 46.5 -131.5t123 -92t238.5 -108.5q143 -57 230 -112.5t135.5 -133.5t48.5 -188q0 -174 -130 -262t-335 -97v-161h-125v166q-117 12 -226.5 45.5 t-174.5 85.5z" />
<glyph unicode="%" horiz-adv-x="1634" d="M109 1090q0 156 82.5 246.5t216.5 90.5q135 0 218 -91t83 -246q0 -158 -83 -248t-218 -90q-136 0 -217.5 90t-81.5 248zM238 1090q0 -115 47 -174.5t123 -59.5q73 0 121.5 59.5t48.5 174.5t-48.5 175t-121.5 60q-76 0 -123 -59.5t-47 -175.5zM276 61l963 1366l121 -77 l-967 -1364zM928 313q0 156 83 247t216 91q135 0 218 -91t83 -247q0 -158 -83 -248t-218 -90t-217 90.5t-82 247.5zM1057 313q0 -115 47 -174t123 -59q73 0 121.5 59.5t48.5 173.5q0 115 -48.5 175.5t-121.5 60.5q-76 0 -123 -59.5t-47 -176.5z" />
<glyph unicode="&#x26;" horiz-adv-x="1454" d="M88 354q0 256 307 391q-104 104 -150 182.5t-46 176.5q0 137 105.5 220t268.5 83q111 0 196 -42t131 -113.5t46 -161.5q0 -221 -323 -357l378 -373q45 70 67 150t32 184h-111q-35 0 -35 43q0 27 20.5 42.5t55.5 15.5h334q25 0 25 -27q0 -37 -50 -49l-133 -31 q-31 -240 -133 -397l195 -191l110 -22q57 -12 58 -51q0 -27 -25 -27h-262l-170 168q-74 -88 -183.5 -140.5t-244.5 -52.5q-129 0 -234.5 46.5t-167 132.5t-61.5 200zM246 358q0 -133 92 -205.5t227 -72.5q109 0 195 45t145 117l-432 422q-227 -104 -227 -306zM356 1108 q0 -78 49.5 -150.5t135.5 -148.5q247 119 247 283q0 100 -60 157.5t-155 57.5q-96 0 -156.5 -52.5t-60.5 -146.5z" />
<glyph unicode="'" horiz-adv-x="382" d="M78 956l76 492l151 -12l-117 -480h-110z" />
<glyph unicode="(" horiz-adv-x="602" d="M102 717q0 463 250 870h148q-113 -217 -172.5 -414.5t-59.5 -455.5q0 -260 59.5 -462t172.5 -417h-148q-114 189 -182 410t-68 469z" />
<glyph unicode=")" horiz-adv-x="602" d="M102 -162q113 215 172.5 417t59.5 462q0 258 -59.5 455.5t-172.5 414.5h148q250 -408 250 -870q0 -248 -67.5 -469t-182.5 -410h-148z" />
<glyph unicode="*" horiz-adv-x="798" d="M68 1044l266 111l-266 111l61 129l238 -174l-37 280h141l-37 -280l225 174l70 -127l-266 -113l268 -113l-74 -124l-227 169l37 -278h-137l37 278l-230 -163z" />
<glyph unicode="+" horiz-adv-x="1239" d="M123 616v129h418v426h157v-426h418v-129h-418v-419h-157v419h-418z" />
<glyph unicode="," horiz-adv-x="612" d="M139 -209q47 66 87 164t46 162l-67 22q-27 6 -27 35q0 27 16.5 41t43.5 14q16 0 24 -2l180 -39q-27 -111 -85 -235.5t-132 -212.5z" />
<glyph unicode="-" horiz-adv-x="657" d="M53 590v131h553v-131h-553z" />
<glyph unicode="." horiz-adv-x="514" d="M150 84q0 45 31.5 75.5t76.5 30.5q43 0 75 -30.5t32 -75.5q0 -47 -32 -78t-75 -31q-45 0 -76.5 31t-31.5 78z" />
<glyph unicode="/" horiz-adv-x="749" d="M-55 -217l706 1741l144 -56l-709 -1740z" />
<glyph unicode="0" horiz-adv-x="1452" d="M119 700q0 211 72.5 376t210 258t325.5 93t325.5 -93t209 -257t71.5 -377q0 -211 -71.5 -375.5t-209 -257t-325.5 -92.5t-325.5 92.5t-210 257t-72.5 375.5zM285 700q0 -182 52 -321t152.5 -216t235.5 -77q137 0 236.5 77t152.5 216t53 321t-53 321.5t-152.5 217.5 t-236.5 78q-135 0 -235.5 -78t-152.5 -217t-52 -322z" />
<glyph unicode="1" horiz-adv-x="890" d="M111 45q0 29 20.5 44t54.5 15h179v1190l-203 -61q-16 0 -27.5 11t-11.5 32q0 51 65 72l179 55h161v-1301l166 -20q68 -8 68 -51q0 -31 -25 -31h-592q-16 0 -25 12.5t-9 32.5z" />
<glyph unicode="2" horiz-adv-x="1193" d="M133 0v143l490 500q119 119 182 217t63 201q0 125 -75.5 187.5t-194.5 62.5q-84 0 -164 -22.5t-143 -61.5l-29 -131q-10 -49 -24.5 -67.5t-38.5 -18.5q-14 0 -22.5 9t-8.5 21v242q98 66 217 103.5t238 37.5q188 0 301.5 -95t113.5 -277q0 -123 -76.5 -245t-228.5 -278 l-405 -409v-8h737v-111h-932z" />
<glyph unicode="3" horiz-adv-x="1198" d="M113 59v117q92 -39 202.5 -62.5t208.5 -23.5q178 0 271.5 77t93.5 218q0 121 -89 201t-229 80q-31 0 -83 -6.5t-136 -18.5v113l156 20q145 18 237.5 91t92.5 200q0 123 -76 184.5t-201 61.5q-82 0 -163 -22.5t-144 -61.5l-27 -131q-10 -49 -24.5 -67.5t-38.5 -18.5 q-14 0 -22.5 9t-8.5 21v242q98 66 219 103.5t240 37.5q176 0 294 -86t118 -256q0 -129 -79 -219t-218 -129q162 -23 255 -121t93 -239q0 -188 -140.5 -290.5t-375.5 -102.5q-117 0 -231.5 22.5t-194.5 56.5z" />
<glyph unicode="4" horiz-adv-x="1271" d="M78 330v127l670 946h206v-961h201v-112h-201v-330h-163v330h-713zM213 442h578v820z" />
<glyph unicode="5" horiz-adv-x="1114" d="M98 57v117q90 -37 191.5 -60.5t197.5 -23.5q162 0 262.5 80t100.5 233q0 172 -96.5 251t-253.5 79q-117 0 -279 -39l-78 70l54 639h710v-111h-559l-39 -481q129 35 252 35q197 0 326 -110.5t129 -319.5q0 -211 -142.5 -323.5t-365.5 -112.5q-222 -1 -410 77z" />
<glyph unicode="6" horiz-adv-x="1198" d="M119 662q0 221 72.5 393t221 270t367.5 98q74 0 156 -20v-107q-78 18 -150 19q-236 0 -369.5 -154.5t-133.5 -443.5q184 127 374 127q199 0 311.5 -109.5t112.5 -296.5q0 -145 -61.5 -248.5t-165.5 -156.5t-231 -53q-250 0 -377 180t-127 502zM285 602q0 -231 85 -371.5 t244 -140.5q134 0 217.5 95.5t83.5 248.5q0 150 -78.5 223.5t-220.5 73.5q-82 0 -174 -38t-157 -91z" />
<glyph unicode="7" horiz-adv-x="1138" d="M98 1153v250h944v-98l-528 -1305h-182l528 1294h-653l-21 -104q-14 -68 -57 -68q-31 0 -31 31z" />
<glyph unicode="8" horiz-adv-x="1267" d="M139 350q0 113 88 211t258 174q-150 80 -221 166t-71 197q0 92 55 166.5t156.5 117.5t232.5 43q135 0 233.5 -42t150.5 -116.5t52 -168.5q0 -106 -69.5 -193.5t-221.5 -167.5q184 -86 265 -177t81 -202q0 -115 -62 -200.5t-174 -133t-257 -47.5q-223 0 -359.5 99.5 t-136.5 273.5zM299 346q0 -121 91 -189.5t241 -68.5q145 0 237.5 69.5t92.5 192.5q0 98 -86.5 176t-243.5 144q-156 -63 -244 -142t-88 -182zM358 1096q0 -92 72 -158t211 -137q131 61 202.5 133t71.5 162q0 102 -78.5 160.5t-201.5 58.5q-121 0 -199 -58.5t-78 -160.5z" />
<glyph unicode="9" horiz-adv-x="1198" d="M119 956q0 145 63.5 251t172 161t239.5 55q248 0 367.5 -177t119.5 -505q0 -348 -161.5 -554.5t-477.5 -206.5q-47 0 -99 6t-87 16v109q84 -23 170 -23q227 0 358 141.5t134 421.5q-72 -61 -161 -97t-190 -36q-127 0 -229 53.5t-160.5 152.5t-58.5 232zM285 961 q0 -162 85 -246t224 -84q165 0 321 141q0 250 -77.5 395.5t-235.5 145.5q-141 0 -229 -96.5t-88 -255.5z" />
<glyph unicode=":" horiz-adv-x="534" d="M150 182q0 51 33.5 84t82.5 33t84 -33t35 -84t-35 -83.5t-84 -32.5t-82.5 32.5t-33.5 83.5zM150 920q0 51 33.5 83.5t82.5 32.5t84 -32.5t35 -83.5t-35 -84t-84 -33t-82.5 32.5t-33.5 84.5z" />
<glyph unicode=";" horiz-adv-x="534" d="M92 -201q45 66 86 161t47 157l-67 22q-27 6 -27 35q0 27 16.5 41t42.5 14q16 0 25 -2l180 -39q-25 -106 -86 -230t-131 -210zM160 920q0 51 33.5 83.5t82.5 32.5t84 -32.5t35 -83.5t-34.5 -84t-84.5 -33q-49 0 -82.5 32.5t-33.5 84.5z" />
<glyph unicode="&#x3c;" horiz-adv-x="1155" d="M129 539v131l813 491l64 -121l-723 -436l723 -436l-64 -121z" />
<glyph unicode="=" horiz-adv-x="1155" d="M123 393v125h909v-125h-909zM123 770v125h909v-125h-909z" />
<glyph unicode="&#x3e;" horiz-adv-x="1155" d="M150 168l722 436l-722 436l63 121l813 -491v-131l-813 -492z" />
<glyph unicode="?" horiz-adv-x="968" d="M160 1165v181q63 51 158.5 86.5t191.5 35.5q162 0 257 -76.5t95 -215.5q0 -104 -47 -178t-133 -154q-57 -55 -86 -95t-42 -89.5t-13 -127.5v-202h-138v233q0 111 38 179.5t128 156.5q72 70 109 129t37 141q0 90 -59.5 142.5t-157.5 52.5q-61 0 -125 -18.5t-113 -51.5 l-18 -98q-6 -31 -18.5 -44t-33.5 -13q-31 0 -30 26zM377 72q0 41 27.5 67.5t66.5 26.5q41 0 68.5 -25.5t27.5 -68.5t-27.5 -70t-68.5 -27q-39 0 -66.5 27t-27.5 70z" />
<glyph unicode="@" horiz-adv-x="1779" d="M102 569q0 258 106.5 463t302.5 320.5t450 115.5q225 0 397 -90t268 -256t96 -389q0 -139 -44 -258t-121.5 -188.5t-176.5 -69.5q-78 0 -138 43t-87 117q-115 -160 -289 -160q-156 0 -246 97.5t-90 285.5q0 135 51.5 240.5t147.5 164t223 58.5q139 0 314 -51l-33 -512 q2 -80 43 -124t106 -44q61 0 111.5 50t78 142t27.5 211q0 184 -78.5 324.5t-219 218.5t-322.5 78q-225 0 -396 -96.5t-263.5 -273.5t-92.5 -411q0 -309 173 -479t477 -170q211 0 442 84v-116q-236 -82 -442 -82q-236 0 -411 89t-269.5 259t-94.5 409zM655 596 q0 -131 54.5 -197.5t158.5 -66.5q86 0 140.5 38t99.5 111l31 445q-82 23 -185 22q-137 0 -218 -94t-81 -258z" />
<glyph unicode="A" horiz-adv-x="1456" d="M16 43q0 27 19.5 42t54.5 15h62l477 1323h188l477 -1321l90 -20q57 -12 58 -51q0 -31 -23 -31h-415q-16 0 -25.5 11.5t-9.5 31.5q0 27 20.5 42t54.5 15h84l-131 365h-587l-129 -363l120 -24q57 -10 58 -49q0 -29 -23 -29h-385q-35 0 -35 43zM449 575h507l-254 709z" />
<glyph unicode="B" horiz-adv-x="1402" d="M119 35q0 27 18.5 41t59.5 22l67 13v1202l-67 12q-78 16 -78 64q0 16 8 25t20 9h598q213 0 334 -95t121 -275q0 -109 -54 -184.5t-153 -112.5v-8q135 -39 213 -129.5t78 -227.5q0 -190 -125 -290.5t-338 -100.5h-674q-12 0 -20 9t-8 26zM426 109h371q160 0 240.5 75.5 t80.5 210.5q0 131 -80 210t-225 79h-387v-575zM426 791h346q117 0 189.5 69.5t72.5 190.5q0 125 -77.5 194.5t-221.5 69.5h-309v-524z" />
<glyph unicode="C" horiz-adv-x="1339" d="M96 713q0 236 87 401.5t237.5 249.5t341.5 84q135 0 255 -41t202 -109v-233q0 -31 -31 -31q-25 0 -38 17.5t-22 56.5l-28 141q-53 41 -137 63.5t-179 22.5q-158 0 -275.5 -72.5t-182 -213t-64.5 -336.5q0 -197 68.5 -338.5t190.5 -214t282 -72.5q209 0 334 84 q6 4 20 14.5t29 10.5q18 0 31.5 -15.5t13.5 -36.5q0 -41 -60 -75q-66 -41 -166 -68t-219 -27q-200 0 -356 84t-245 250t-89 404z" />
<glyph unicode="D" d="M119 35q0 27 18.5 41t59.5 22l67 13v1202l-67 12q-41 8 -59.5 22.5t-18.5 41.5q0 16 8 25t20 9h586q197 0 349.5 -77.5t240.5 -238.5t88 -396q0 -238 -88 -396.5t-240.5 -236.5t-349.5 -78h-586q-12 0 -20 9t-8 26zM426 111h307q240 0 375 157.5t135 442.5t-135 443.5 t-375 158.5h-307v-1202z" />
<glyph unicode="E" horiz-adv-x="1400" d="M119 35q0 49 78 63l67 13v1202l-67 12q-41 8 -59.5 22.5t-18.5 41.5q0 16 8 25t20 9h1084v-260q0 -29 -31 -28q-41 0 -57 84l-19 96h-696v-533h586l22 92q14 57 47 58q27 0 27 -27v-352q0 -29 -27 -29q-33 0 -47 58l-22 92h-586v-565h723l18 104q14 84 58 84q31 0 30 -31 v-266h-1110q-12 0 -20 9t-8 26z" />
<glyph unicode="F" horiz-adv-x="1331" d="M119 1389q0 16 8 25t20 9h1051v-268q0 -29 -29 -29q-20 0 -33.5 20.5t-23.5 63.5l-22 103h-662v-563h553l20 96q12 57 48 57q14 0 21 -7t7 -19v-363q0 -12 -7 -20.5t-21 -8.5q-35 0 -48 60l-20 94h-553v-537l100 -24q31 -8 44.5 -19.5t13.5 -31.5q0 -27 -25 -27h-403 q-35 0 -35 43q0 27 20.5 42t55.5 15h65v1213l-67 12q-41 8 -59.5 22.5t-18.5 41.5z" />
<glyph unicode="G" horiz-adv-x="1470" d="M102 713q0 236 86 401.5t236.5 249.5t341.5 84q135 0 257 -41t202 -109v-233q0 -31 -31 -31q-25 0 -38 17.5t-21 56.5l-29 141q-53 41 -137 63.5t-178 22.5q-242 0 -382.5 -163.5t-140.5 -458.5q0 -199 64.5 -339.5t182.5 -213t278 -72.5q74 0 145.5 14.5t128.5 40.5v467 h-223q-33 0 -33 41q0 27 19.5 42.5t54.5 15.5h475q23 0 22 -27q0 -18 -12 -29.5t-41 -19.5l-98 -25v-530q-90 -49 -211 -76t-232 -27q-202 0 -357 82t-242 247t-87 409z" />
<glyph unicode="H" horiz-adv-x="1640" d="M119 43q0 27 20.5 42t55.5 15h63v1223h-104q-35 0 -35 43q0 27 19.5 42t54.5 15h364q25 0 25 -26q0 -20 -13.5 -31.5t-44.5 -19.5l-102 -25v-526h788v528h-114q-35 0 -35 43q0 27 19.5 42t54.5 15h364q23 0 23 -26q0 -20 -11.5 -31.5t-37.5 -17.5l-99 -27v-1219l99 -26 q49 -12 49 -49q0 -27 -23 -27h-403q-35 0 -35 43q0 27 19.5 42t54.5 15h75v584h-788v-582l102 -24q31 -8 44.5 -19.5t13.5 -31.5q0 -27 -25 -27h-403q-35 0 -35 43z" />
<glyph unicode="I" horiz-adv-x="718" d="M129 43q0 27 20.5 42t55.5 15h63v1223h-104q-35 0 -35 43q0 27 19.5 42t54.5 15h364q25 0 25 -26q0 -20 -13.5 -31.5t-43.5 -19.5l-103 -25v-1219l103 -24q31 -8 44 -19.5t13 -31.5q0 -27 -25 -27h-403q-35 0 -35 43z" />
<glyph unicode="J" horiz-adv-x="784" d="M78 90q162 53 227.5 139t65.5 246v848h-121q-35 0 -35 43q0 27 19.5 42t54.5 15h381q23 0 22 -26q0 -20 -13 -31.5t-42 -19.5l-102 -25v-856q0 -348 -265 -463q-59 -27 -102 -27q-39 0 -63.5 28t-26.5 87z" />
<glyph unicode="K" horiz-adv-x="1400" d="M119 43q0 27 20.5 42t55.5 15h63v1223h-104q-35 0 -35 43q0 27 19.5 42t54.5 15h362q12 0 18.5 -7t6.5 -19q0 -20 -13.5 -31.5t-42.5 -19.5l-102 -25v-1219l102 -24q31 -8 44.5 -19.5t13.5 -31.5q0 -12 -6.5 -19.5t-18.5 -7.5h-403q-35 0 -35 43zM422 731l622 592h-133 q-35 0 -34 43q0 27 20.5 42t54.5 15h363q27 0 26 -32q0 -45 -57 -54l-80 -12l-600 -571l615 -656l102 -20q57 -12 57 -51q0 -27 -24 -27h-269z" />
<glyph unicode="L" horiz-adv-x="1226" d="M119 35q0 27 18.5 41t59.5 22l67 13v1212h-106q-35 0 -35 43q0 27 19.5 42t54.5 15h372q25 0 25 -26q0 -39 -57 -51l-109 -25v-1210h645l27 129q16 84 57 84q31 0 31 -31v-293h-1041q-12 0 -20 9t-8 26z" />
<glyph unicode="M" horiz-adv-x="2113" d="M55 43q0 27 20.5 42t55.5 15h66l241 1213l-67 10q-76 12 -76 63q0 37 29 37h360l328 -1083q16 -55 27.5 -126t13.5 -93h12q2 23 13.5 93.5t25.5 125.5l307 1083h361q29 0 28 -37q0 -51 -76 -63l-67 -10l262 -1211l90 -20q55 -12 55 -51q0 -31 -22 -31h-416 q-16 0 -25.5 11.5t-9.5 31.5q0 27 20.5 42t55.5 15h90l-229 1076q-8 33 -13.5 75.5t-5.5 55.5h-10q-2 -12 -11 -50t-20 -81l-331 -1176h-191l-356 1176q-10 33 -19.5 75.5t-11.5 55.5h-10q0 -12 -5 -55.5t-12 -75.5l-210 -1074l116 -24q57 -10 58 -49q0 -29 -23 -29h-383 q-35 0 -35 43z" />
<glyph unicode="N" horiz-adv-x="1613" d="M119 43q0 27 20.5 42t55.5 15h65v1213l-65 10q-41 6 -58.5 21.5t-17.5 41.5q0 37 31 37h262l700 -1009q59 -86 111 -203v1112h-123q-35 0 -35 43q0 27 19.5 42t54.5 15h338q23 0 22 -26q0 -18 -16.5 -32.5t-42.5 -21.5l-88 -22v-1321h-154l-713 1028q-51 74 -96 180 v-1106l109 -24q31 -6 43 -18.5t12 -32.5q0 -27 -23 -27h-376q-35 0 -35 43z" />
<glyph unicode="O" d="M102 709q0 242 82 407.5t228.5 248.5t343.5 83q195 0 342 -83t228 -249t81 -407q0 -360 -176 -547t-475 -187q-197 0 -343.5 81t-228.5 246t-82 407zM268 709q0 -297 126 -460t360 -163q235 0 361 163t126 460q0 299 -126 463.5t-361 164.5q-233 0 -359.5 -164.5 t-126.5 -463.5z" />
<glyph unicode="P" horiz-adv-x="1263" d="M119 1389q0 16 8 25t20 9h601q207 0 332.5 -108.5t125.5 -306.5q0 -199 -126 -306.5t-332 -107.5h-320v-492l102 -24q35 -8 49.5 -19.5t14.5 -31.5q0 -27 -25 -27h-411q-35 0 -35 43q0 27 20.5 42t55.5 15h65v1213l-67 12q-41 8 -59.5 22.5t-18.5 41.5zM428 705h309 q143 0 222 82.5t79 220.5q0 139 -78.5 222t-222.5 83h-309v-608z" />
<glyph unicode="Q" d="M102 709q0 242 82 407.5t228.5 248.5t343.5 83q195 0 342 -83t228 -249t81 -407q0 -338 -155.5 -523.5t-426.5 -208.5q45 -37 113 -79q86 -55 186 -86q41 -12 57.5 -25.5t16.5 -40.5q0 -68 -78 -68q-61 0 -131.5 38t-138.5 96q-88 78 -160 165q-272 20 -430 206t-158 526 zM268 709q0 -297 126 -460t360 -163q235 0 361 163t126 460q0 299 -126 463.5t-361 164.5q-233 0 -359.5 -164.5t-126.5 -463.5z" />
<glyph unicode="R" horiz-adv-x="1368" d="M119 1389q0 16 8 25t20 9h590q211 0 334 -94t123 -287q0 -190 -123 -282t-334 -92h-110l540 -570l103 -20q57 -12 57 -51q0 -27 -22 -27h-271l-606 664v-562l100 -24q31 -8 44.5 -19.5t13.5 -31.5q0 -27 -25 -27h-403q-35 0 -35 43q0 27 20.5 42t55.5 15h65v1219l-67 10 q-41 12 -59.5 24.5t-18.5 35.5zM428 770h301q145 0 221 70.5t76 201.5t-76 203t-221 72h-301v-547z" />
<glyph unicode="S" horiz-adv-x="1218" d="M106 113v252q0 12 8.5 21t22.5 9q25 0 40.5 -18.5t23.5 -65.5l26 -131q61 -45 161.5 -68.5t197.5 -23.5q152 0 256 56.5t104 181.5q0 80 -40 134t-122 99t-239 109q-213 86 -322.5 181t-109.5 245q0 178 137 266t334 88q129 0 253 -39t203 -106v-242q0 -31 -30 -31 q-25 0 -39.5 17.5t-24.5 66.5l-26 129q-57 45 -142.5 68.5t-183.5 23.5q-137 0 -226 -54t-89 -167q0 -78 46 -131t123.5 -92t243.5 -111q145 -59 234.5 -115.5t137.5 -135t48 -189.5q0 -184 -144.5 -274.5t-369.5 -90.5q-125 0 -267.5 37t-224.5 101z" />
<glyph unicode="T" horiz-adv-x="1220" d="M68 1159v264h1087v-264q0 -31 -35 -31q-23 0 -35 18.5t-20 57.5l-21 109h-352v-1211l103 -24q31 -8 44 -19.5t13 -31.5q0 -27 -25 -27h-403q-35 0 -35 43q0 27 20.5 42t55.5 15h63v1213h-350l-20 -109q-8 -39 -20 -57.5t-36 -18.5q-35 0 -34 31z" />
<glyph unicode="U" horiz-adv-x="1599" d="M88 1366q0 27 19.5 42t54.5 15h364q25 0 25 -26q0 -20 -13.5 -31.5t-43.5 -19.5l-103 -25v-791q0 -213 109.5 -327.5t310.5 -114.5q203 0 312.5 113.5t109.5 328.5v793h-119q-35 0 -35 43q0 27 19.5 42t54.5 15h334q25 0 24 -24q0 -33 -53 -49l-94 -29v-782 q0 -268 -148.5 -416t-410.5 -148q-268 0 -423 147.5t-155 416.5v784h-104q-35 0 -35 43z" />
<glyph unicode="V" horiz-adv-x="1474" d="M23 1366q0 27 19 42t54 15h383q25 0 25 -26q0 -43 -62 -56l-108 -20l375 -1090q12 -35 21 -73.5t11 -48.5h11q2 10 10 48t20 74l387 1092h-127q-16 0 -25 11.5t-9 31.5q0 27 20.5 42t54.5 15h347q23 0 22 -26q0 -35 -49 -49l-105 -27l-471 -1321h-200l-469 1323h-101 q-35 0 -34 43z" />
<glyph unicode="W" horiz-adv-x="2224" d="M25 1366q0 27 19 42t54 15h377q25 0 25 -26q0 -43 -64 -56l-108 -20l321 -1075q10 -37 16.5 -80t8.5 -55h10q2 12 8 55t17 80l338 1177h147l360 -1177q12 -37 18.5 -80t6.5 -55h12q2 12 8.5 55t16.5 80l301 1077h-131q-16 0 -25.5 11.5t-9.5 31.5q0 27 20.5 42t55.5 15 h348q25 0 25 -26q0 -35 -52 -49l-102 -27l-379 -1321h-203l-325 1077q-12 39 -18.5 91.5t-8.5 68.5h-10q-2 -16 -9.5 -68.5t-19.5 -91.5l-309 -1077h-203l-399 1323h-103q-35 0 -34 43z" />
<glyph unicode="X" horiz-adv-x="1447" d="M31 43q0 27 19.5 42t53.5 15h68l432 629l-397 594h-94q-35 0 -35 43q0 27 19.5 42t54.5 15h393q23 0 22 -26q0 -23 -16 -37t-45 -19l-105 -14l334 -496l348 492h-110q-35 0 -35 43q0 27 19.5 42t54.5 15h336q25 0 24 -26q0 -18 -11 -29.5t-40 -19.5l-100 -27l-402 -567 l455 -658l82 -14q61 -8 61 -55q0 -27 -22 -27h-453q-14 0 -23.5 11.5t-9.5 31.5q0 27 19.5 42t54.5 15h86l-379 553l-381 -551l121 -26q23 -4 36 -17.5t13 -31.5q0 -27 -22 -27h-391q-35 0 -35 43z" />
<glyph unicode="Y" horiz-adv-x="1419" d="M25 1366q0 27 19 42t54 15h402q25 0 24 -28q0 -43 -57 -54l-115 -20l369 -578l389 580h-113q-35 0 -34 43q0 27 19 42t54 15h336q23 0 23 -26q0 -35 -49 -49l-101 -27l-469 -694v-525l101 -24q31 -8 44 -19.5t13 -31.5q0 -27 -25 -27h-403q-35 0 -35 43q0 27 20.5 42 t55.5 15h65v506l-458 717h-95q-35 0 -34 43z" />
<glyph unicode="Z" horiz-adv-x="1288" d="M100 0v115l875 1198h-729l-21 -115q-12 -78 -57 -78q-33 0 -33 31v272h1041v-114l-875 -1198h766l20 114q12 78 56 78q35 0 35 -31v-272h-1078z" />
<glyph unicode="[" horiz-adv-x="600" d="M125 -289v1823h377v-111h-221v-1599h221v-113h-377z" />
<glyph unicode="\" horiz-adv-x="743" d="M-55 1468l143 56l709 -1745l-144 -53z" />
<glyph unicode="]" horiz-adv-x="600" d="M98 -176h221v1599h-221v111h377v-1823h-377v113z" />
<glyph unicode="^" horiz-adv-x="1167" d="M129 735l399 651h109l399 -651l-121 -67l-331 549l-334 -549z" />
<glyph unicode="_" horiz-adv-x="1026" d="M-16 -305h1058v-129h-1058v129z" />
<glyph unicode="`" horiz-adv-x="600" d="M150 1376l122 80l179 -299l-93 -59z" />
<glyph unicode="a" horiz-adv-x="1081" d="M90 256q0 143 102.5 214t270.5 95l289 43v90q0 100 -61.5 162t-172.5 62q-63 0 -142 -22.5t-130 -55.5l-17 -90q-10 -59 -53 -60q-14 0 -22.5 7.5t-8.5 19.5v186q82 49 189.5 82t206.5 33q160 0 262 -86t102 -240v-602l76 -20q29 -8 42 -19.5t13 -29.5q0 -25 -22 -25 h-258v143h-8q-55 -76 -143.5 -122t-201.5 -46q-129 0 -221 74t-92 207zM246 264q0 -90 57 -137t148 -47q75 0 145 36t113 97t43 135v164l-254 -41q-121 -20 -186.5 -68.5t-65.5 -138.5z" />
<glyph unicode="b" horiz-adv-x="1181" d="M43 1399q0 29 19.5 42t52.5 13h213v-582l6 -4q61 76 146 115t186 39q195 0 313.5 -133t118.5 -397q0 -256 -137.5 -386.5t-358.5 -130.5q-104 0 -220 34t-204 87v1262h-102q-33 0 -33 41zM330 150q53 -33 125.5 -53.5t136.5 -20.5h2q346 0 346 413q0 225 -85 329 t-230 104q-76 0 -144.5 -35t-109.5 -93.5t-41 -127.5v-516z" />
<glyph unicode="c" horiz-adv-x="991" d="M80 500q0 160 59.5 278.5t166 181t247.5 62.5q100 0 198.5 -37t149.5 -86v-182q0 -12 -8 -19.5t-25 -7.5q-20 0 -32.5 13.5t-18.5 44.5l-18 100q-37 33 -100.5 52.5t-129.5 19.5q-152 0 -244 -110t-92 -310q0 -201 95.5 -312.5t251.5 -111.5q139 0 251 80q4 2 16.5 11 t24.5 9q18 0 30.5 -14.5t12.5 -34.5q0 -39 -67 -78q-127 -74 -277 -74q-227 0 -359 141.5t-132 383.5z" />
<glyph unicode="d" horiz-adv-x="1196" d="M80 492q0 160 60.5 280.5t167 185t241.5 64.5q162 0 303 -94v430h-102q-33 0 -33 41q0 55 71 55h213v-1358l82 -22q29 -8 42.5 -19.5t13.5 -29.5q0 -25 -23 -25h-258v139h-8q-49 -74 -128 -119t-192 -45q-124 0 -226.5 56.5t-163 172t-60.5 288.5zM236 492 q0 -197 85 -306.5t246 -109.5q117 0 200 76.5t83 195.5v469q-121 104 -272 105q-96 0 -173 -49.5t-123 -145.5t-46 -235z" />
<glyph unicode="e" horiz-adv-x="1062" d="M84 492q0 244 127 387t346 143q199 0 313.5 -117t114.5 -311q0 -63 -27 -129h-718q0 -188 96 -288.5t244 -100.5q78 0 140 19.5t124 62.5q4 2 17 10t26 8q18 0 30.5 -14.5t12.5 -34.5q0 -37 -64 -76q-127 -76 -293 -76q-145 0 -255.5 62.5t-172 179.5t-61.5 275zM240 567 h581q8 18 8 58q0 141 -75.5 219t-200.5 78q-131 0 -217 -95.5t-96 -259.5z" />
<glyph unicode="f" horiz-adv-x="825" d="M92 938q0 27 19.5 43t52.5 16h80v185q0 139 81 215t212 76q82 0 155.5 -27t118.5 -68v-176q0 -12 -8 -19t-23 -7q-20 0 -32.5 13t-18.5 44l-18 96q-61 41 -148 41q-76 0 -121 -47t-45 -133v-193h260q27 0 27 -28q0 -51 -92 -60l-195 -16v-797l97 -22q29 -10 42 -20.5 t13 -28.5q0 -25 -25 -25h-385q-33 0 -33 41q0 27 19.5 41t52.5 14h66v797h-117q-16 0 -25.5 12.5t-9.5 32.5z" />
<glyph unicode="g" horiz-adv-x="1128" d="M80 492q0 172 67.5 291.5t181 179t255.5 59.5q111 0 226.5 -43t195.5 -111v-929q0 -195 -114 -302.5t-333 -107.5q-88 0 -174 21.5t-149 58.5q-33 20 -50.5 37.5t-17.5 40.5t12.5 35t28.5 12q10 0 23.5 -7.5t19.5 -11.5q66 -41 144.5 -62.5t158.5 -21.5q150 0 226.5 72 t76.5 213v217h-8q-51 -72 -131 -115t-191 -43q-123 0 -225 56.5t-162.5 172t-60.5 288.5zM236 492q0 -197 86 -306.5t243 -109.5q76 0 141.5 34.5t105.5 97t40 140.5v488q-55 41 -127 63.5t-141 22.5q-96 0 -175 -48.5t-126 -145.5t-47 -236z" />
<glyph unicode="h" horiz-adv-x="1284" d="M104 41q0 27 19.5 41t52.5 14h64v1262h-103q-33 0 -33 41q0 29 19.5 42t52.5 13h211v-590l6 -2q170 160 357 160q145 0 239 -85t94 -230v-611l99 -22q29 -6 42 -17.5t13 -31.5q0 -25 -25 -25h-385q-33 0 -32 41q0 27 19.5 41t51.5 14h64v600q0 100 -58.5 161t-166.5 61 q-80 0 -163 -45.5t-149 -118.5v-658l99 -22q29 -6 42 -17.5t13 -31.5q0 -25 -25 -25h-385q-33 0 -33 41z" />
<glyph unicode="i" horiz-adv-x="569" d="M88 41q0 27 19.5 41t52.5 14h65v809h-104q-33 0 -33 41q0 29 19.5 42t52.5 13h219v-905l96 -22q29 -6 42 -17.5t13 -31.5q0 -25 -24 -25h-385q-33 0 -33 41zM186 1278q0 51 32 81t79 30t80 -30t33 -81t-33 -81t-80 -30t-79 30t-32 81z" />
<glyph unicode="j" horiz-adv-x="610" d="M20 -356q162 53 227.5 139t65.5 248v874h-104q-33 0 -33 41q0 55 74 55h217v-983q0 -178 -67.5 -288.5t-196.5 -173.5q-53 -27 -92 -27t-63.5 27.5t-27.5 87.5zM270 1278q0 51 32 81t79 30t80 -30t33 -81t-33 -81t-80 -30t-79 30t-32 81z" />
<glyph unicode="k" horiz-adv-x="1191" d="M104 41q0 27 19.5 41t52.5 14h64v1262h-103q-33 0 -33 41q0 29 19.5 42t52.5 13h217v-1358l96 -22q55 -12 56 -49q0 -25 -25 -25h-383q-33 0 -33 41zM393 530l404 371h-123q-35 0 -35 43q0 29 20.5 43t55.5 14h338q27 0 26 -32q0 -20 -16 -33.5t-43 -17.5l-82 -17 l-373 -348l424 -457l90 -20q59 -12 60 -49q0 -27 -25 -27h-244z" />
<glyph unicode="l" horiz-adv-x="606" d="M109 41q0 27 19 41t52 14h64v1262h-103q-33 0 -32 41q0 29 19 42t52 13h217v-1358l99 -22q29 -6 42 -17.5t13 -31.5q0 -25 -25 -25h-385q-32 0 -32 41z" />
<glyph unicode="m" horiz-adv-x="1853" d="M98 41q0 27 19.5 41t52.5 14h63v809h-102q-33 0 -33 41q0 29 19.5 42t52.5 13h209v-139h6q80 72 163 116t177 44t168 -44t106 -128q84 78 170 125t189 47q131 0 217 -80t86 -227v-621l94 -20q53 -10 53 -49q0 -25 -24 -25h-379q-33 0 -33 41q0 27 19.5 41t52.5 14h63v606 q0 104 -52 158.5t-142 54.5q-76 0 -149.5 -43t-139.5 -110v-668l96 -20q53 -10 54 -49q0 -25 -25 -25h-379q-33 0 -33 41q0 27 19.5 41t52.5 14h61v606q0 104 -51 158.5t-141 54.5q-76 0 -150.5 -43t-140.5 -112v-666l98 -20q51 -10 52 -49q0 -25 -23 -25h-383q-33 0 -33 41 z" />
<glyph unicode="n" horiz-adv-x="1277" d="M98 41q0 27 19.5 41t52.5 14h63v809h-102q-33 0 -33 41q0 29 19.5 42t52.5 13h209v-143h6q174 164 358 164q145 0 239.5 -85t94.5 -230v-611l99 -22q55 -12 55 -49q0 -25 -25 -25h-385q-33 0 -33 41q0 27 19.5 41t52.5 14h64v598q0 100 -58.5 160.5t-167.5 60.5 q-80 0 -161.5 -44t-149.5 -119v-656l98 -22q29 -6 42.5 -17.5t13.5 -31.5q0 -25 -25 -25h-385q-33 0 -33 41z" />
<glyph unicode="o" horiz-adv-x="1112" d="M82 500q0 244 128 383t345 139q219 0 347 -139.5t128 -382.5q0 -246 -128 -385.5t-347 -139.5t-346 139.5t-127 385.5zM238 500q0 -203 84 -313.5t235 -110.5q150 0 233.5 110.5t83.5 313.5q0 201 -83.5 311.5t-233.5 110.5q-152 0 -235.5 -111t-83.5 -311z" />
<glyph unicode="p" horiz-adv-x="1247" d="M104 -395q0 27 19.5 41t52.5 14h64v1245h-103q-33 0 -33 41q0 29 19.5 42t52.5 13h211v-135h6q61 76 146.5 116t185.5 40q195 0 316.5 -134t121.5 -396q0 -252 -131 -384.5t-352 -132.5q-66 0 -144.5 19.5t-142.5 52.5v-387l99 -22q53 -12 53 -50q0 -25 -23 -24h-385 q-33 0 -33 41zM391 154q51 -33 127 -55.5t137 -22.5q179 0 265 107.5t86 305.5q0 225 -86 329t-232 104q-78 0 -146.5 -35t-109.5 -93.5t-41 -127.5v-512z" />
<glyph unicode="q" horiz-adv-x="1187" d="M80 492q0 160 61.5 280.5t168 185t237.5 64.5q168 0 307 -96q6 75 60 75h1h91v-1343l86 -20q53 -12 53 -50q0 -25 -23 -24h-383q-32 0 -32 41q0 27 20.5 41t52.5 14h78v477h-6q-51 -74 -131 -118t-193 -44q-123 0 -225 56.5t-162.5 172t-60.5 288.5zM236 492 q0 -197 86 -306.5t243 -109.5q76 0 141.5 34.5t105.5 97t40 140.5v469q-55 49 -127 77t-150 28q-94 0 -170.5 -49.5t-122.5 -146.5t-46 -234z" />
<glyph unicode="r" horiz-adv-x="843" d="M98 41q0 27 19.5 41t52.5 14h63v809h-102q-33 0 -33 41q0 29 19.5 42t52.5 13h209v-202h6q78 94 172 158.5t172 64.5q43 0 65.5 -21.5t22.5 -58.5q0 -20 -7 -39.5t-19 -32.5q-215 0 -404 -182v-592l98 -22q29 -6 42.5 -17.5t13.5 -31.5q0 -25 -25 -25h-385q-33 0 -33 41z " />
<glyph unicode="s" horiz-adv-x="927" d="M88 84v186q0 29 31 29q39 0 51 -59l18 -93q39 -35 112 -52t144 -17q106 0 173 34.5t67 114.5q0 55 -26.5 89t-81 63t-175.5 78q-158 68 -231.5 134t-73.5 171q0 129 103.5 194.5t251.5 65.5q100 0 198.5 -37t149.5 -86v-180q0 -27 -31 -27q-20 0 -32.5 13.5t-18.5 44.5 l-19 98q-37 33 -101.5 52.5t-129.5 19.5q-92 0 -153.5 -35t-61.5 -109q0 -49 29.5 -83t79 -59.5t182.5 -84.5q162 -70 229.5 -135.5t67.5 -180.5q0 -133 -111 -195.5t-272 -62.5q-103 0 -207.5 30t-161.5 79z" />
<glyph unicode="t" horiz-adv-x="811" d="M74 938q0 27 19.5 43t51.5 16h105l26 217h125v-217h312q25 0 24 -24q0 -25 -20.5 -37t-63.5 -16l-252 -27v-674q0 -70 36 -105.5t98 -35.5q43 0 75.5 12t63.5 41q25 20 39 21q18 0 30.5 -11.5t12.5 -31.5q0 -39 -62 -80q-76 -53 -188 -54q-111 0 -184.5 68t-73.5 186v664 h-139q-16 0 -25.5 12.5t-9.5 32.5z" />
<glyph unicode="u" horiz-adv-x="1222" d="M51 946q0 29 19.5 42t52.5 13h217v-696q0 -100 58.5 -161.5t166.5 -61.5q80 0 161 45t148 121v657h-102q-33 0 -33 41q0 29 19.5 42t52.5 13h217v-905l82 -22q29 -8 42 -19.5t13 -29.5q0 -25 -24 -25h-258v139h-6q-174 -164 -357 -164q-145 0 -239.5 85t-94.5 233v612 h-102q-33 0 -33 41z" />
<glyph unicode="v" horiz-adv-x="1126" d="M10 946q0 29 19.5 42t52.5 13h346q25 0 25 -24q0 -18 -15.5 -31.5t-40.5 -17.5l-108 -25l258 -749q8 -20 13 -47t7 -35h8q0 8 5.5 34.5t13.5 47.5l266 751h-127q-33 0 -33 41q0 29 19.5 42t52.5 13h322q23 0 22 -24q0 -35 -53 -49l-86 -25l-322 -903h-206l-322 905h-84 q-33 0 -33 41z" />
<glyph unicode="w" horiz-adv-x="1716" d="M10 946q0 29 19.5 42t52.5 13h346q25 0 25 -24q0 -39 -56 -49l-116 -25l221 -739q8 -25 11 -51.5t3 -34.5h8q0 8 4 34.5t11 51.5l239 837h174l256 -837q6 -25 10.5 -51.5t4.5 -34.5h8q0 8 3 34.5t11 51.5l207 741h-129q-33 0 -33 41q0 29 19.5 42t52.5 13h321 q23 0 23 -24q0 -35 -53 -49l-86 -25l-260 -903h-205l-232 770q-8 33 -13 73t-5 52h-8q0 -12 -4 -52t-15 -73l-219 -770h-205l-274 905h-84q-33 0 -33 41z" />
<glyph unicode="x" horiz-adv-x="1103" d="M33 41q0 25 20.5 40t46.5 15h50l286 418l-264 391h-90q-33 0 -33 41q0 25 20.5 40t47.5 15h176l278 -415l226 319h-113q-33 0 -33 41q0 25 20.5 40t47.5 15h315q20 0 21 -24q0 -33 -51 -49l-84 -25l-275 -385l291 -420l84 -24q53 -16 53 -49q0 -25 -20 -25h-236l-305 449 l-240 -351l111 -24q53 -12 53 -49q0 -8 -6 -16.5t-16 -8.5h-348q-33 0 -33 41z" />
<glyph unicode="y" horiz-adv-x="1122" d="M14 946q0 29 19.5 42t52.5 13h346q25 0 25 -24q0 -18 -15.5 -31.5t-40.5 -17.5l-108 -25l270 -688q6 -14 7 -35.5t1 -27.5h9q0 6 2 28.5t6 34.5l268 690h-127q-33 0 -33 41q0 55 72 55h322q23 0 22 -24q0 -33 -55 -49l-84 -25l-385 -989q-66 -166 -168.5 -270.5 t-241.5 -104.5q-39 0 -64.5 20.5t-25.5 57.5q0 29 14 55q145 0 227.5 53.5t133.5 186.5l33 88l-365 905h-84q-33 0 -33 41z" />
<glyph unicode="z" horiz-adv-x="950" d="M86 0v111l582 790h-451l-16 -96q-6 -33 -18.5 -47.5t-37.5 -14.5q-14 0 -23 8.5t-9 22.5v227h737v-110l-580 -791h490l16 101q6 31 19.5 46t35.5 15q14 0 23.5 -9t9.5 -24v-229h-778z" />
<glyph unicode="{" horiz-adv-x="890" d="M113 551v141q125 16 180 83t55 177v330q0 145 78 208.5t207 63.5h160v-110h-140q-70 0 -109.5 -37t-39.5 -117v-364q0 -117 -50.5 -189.5t-158.5 -113.5q106 -37 157.5 -110t51.5 -189v-371q0 -78 40 -116t109 -38h140v-110h-160q-127 0 -206 64.5t-79 209.5v330 q0 121 -53 182.5t-182 75.5z" />
<glyph unicode="|" horiz-adv-x="593" d="M219 -264v1755h156v-1755h-156z" />
<glyph unicode="}" horiz-adv-x="890" d="M98 -201h140q70 0 109.5 38t39.5 116v371q0 117 51 189.5t160 109.5q-109 41 -160 113.5t-51 189.5v364q0 154 -149 154h-140v110h160q129 0 207 -63.5t78 -208.5v-330q0 -111 55 -177t180 -83v-141q-129 -14 -182 -75.5t-53 -182.5v-330q0 -145 -79 -209.5t-206 -64.5 h-160v110z" />
<glyph unicode="~" horiz-adv-x="1255" d="M115 621q66 51 142.5 80.5t150.5 29.5q53 0 105 -12t124 -45q61 -27 108.5 -38t96.5 -11q53 0 114.5 22.5t118.5 63.5l51 -109q-145 -111 -286 -110q-54 0 -109 13t-127 44q-61 27 -107 38t-94 11q-53 0 -115.5 -22.5t-119.5 -63.5z" />
<glyph unicode="&#xa1;" horiz-adv-x="643" d="M227 905q0 43 28 69.5t67 26.5q41 0 68.5 -26.5t27.5 -69.5t-28 -68.5t-68 -25.5q-39 0 -67 26.5t-28 67.5zM229 -457l43 1119h101l41 -1119h-185z" />
<glyph unicode="&#xa2;" horiz-adv-x="1153" d="M129 596q0 236 120 382t320 167v155h125v-155q92 -10 178 -46t129 -79v-195q0 -14 -9 -22t-23 -8q-43 0 -56 61l-18 107q-41 35 -108.5 55t-137.5 20q-162 0 -260 -115.5t-98 -326.5q0 -215 102.5 -333t268.5 -118q78 0 141 21.5t127 62.5q6 4 17 12.5t24 8.5 q20 0 32.5 -15.5t12.5 -37.5q0 -20 -18.5 -41t-51.5 -43q-104 -70 -268 -76v-160h-125v168q-199 29 -311.5 176.5t-112.5 374.5z" />
<glyph unicode="&#xa3;" horiz-adv-x="1323" d="M113 47q0 29 20.5 46.5t50.5 17.5h103q68 59 95.5 116.5t27.5 139.5q0 70 -48 174h-157q-18 0 -30.5 12t-12.5 33q0 29 20.5 47t50.5 18h80q-27 63 -41 115.5t-14 105.5q0 166 113.5 254t290.5 88q111 0 213 -37.5t184 -103.5v-201q0 -39 -41 -38q-45 0 -62 71l-24 123 q-117 78 -260 78q-117 0 -186.5 -60.5t-69.5 -173.5q0 -49 16.5 -100t46.5 -121h473q37 0 37 -35q0 -25 -18.5 -38t-46.5 -15l-396 -22q39 -98 39 -179q0 -147 -110 -251h518l14 94q12 72 66 71q16 0 27.5 -10t11.5 -28v-238h-942q-19 0 -29 13.5t-10 33.5z" />
<glyph unicode="&#xa4;" horiz-adv-x="1198" d="M160 227l129 150q-100 121 -101 276q0 158 101 277l-129 147l116 86l119 -145q86 57 203 57q119 0 207 -57l119 143l114 -84l-129 -147q100 -121 101 -277q0 -160 -101 -276l129 -150l-114 -84l-119 146q-88 -57 -207 -58q-119 0 -203 58l-121 -146zM330 653 q0 -129 76.5 -210t191.5 -81q117 0 193.5 81t76.5 210t-76.5 209t-193.5 80q-115 0 -191.5 -80t-76.5 -209z" />
<glyph unicode="&#xa5;" horiz-adv-x="1294" d="M-23 1354q0 27 19.5 42t54.5 15h400q25 0 24 -29q0 -43 -59 -53l-113 -18l363 -572l383 572h-113q-35 0 -35 43q0 27 19.5 42t54.5 15h334q25 0 24 -27q0 -35 -51 -49l-100 -26l-332 -494h252v-106h-324l-59 -86v-113h385v-107h-385v-303l104 -22q31 -8 43.5 -19.5 t12.5 -31.5q0 -27 -25 -27h-401q-35 0 -35 43q0 27 20.5 42t55.5 15h63v303h-381v107h381v94l-68 105h-313v106h246l-318 496h-92q-35 0 -35 43z" />
<glyph unicode="&#xa6;" horiz-adv-x="610" d="M227 -348v768h156v-768h-156zM227 737v768h156v-768h-156z" />
<glyph unicode="&#xa7;" horiz-adv-x="1212" d="M152 725q0 129 92 211q-33 59 -33 125q0 152 117.5 228.5t283.5 76.5q106 0 213 -35t174 -94v-203q0 -27 -26 -26q-20 0 -32.5 15t-20.5 56l-23 109q-49 39 -122 58.5t-154 19.5q-115 0 -189 -46t-74 -141q0 -63 39 -107t102.5 -77t205.5 -92q123 -53 198.5 -101.5 t117.5 -115t42 -160.5q0 -127 -86 -207q27 -59 27 -129q0 -158 -123 -236.5t-314 -78.5q-104 0 -223 30.5t-190 83.5v234q0 12 8 19.5t20 7.5q23 0 35 -16.5t21 -59.5l24 -125q51 -37 133 -55.5t160 -18.5q129 0 215 47t86 154q0 70 -32.5 115t-99.5 80.5t-204 90.5 q-178 72 -273 155t-95 208zM305 737q0 -68 32 -110.5t91 -74.5t188 -83q104 -43 171 -80t110 -82q25 50 25 113q0 68 -30 109.5t-92.5 75.5t-195.5 87q-197 80 -274 144q-25 -43 -25 -99z" />
<glyph unicode="&#xa8;" horiz-adv-x="808" d="M111 1225q0 43 28.5 70.5t71.5 27.5q41 0 69.5 -27.5t28.5 -70.5t-28.5 -72t-69.5 -29q-43 0 -71.5 29t-28.5 72zM502 1225q0 43 28.5 70.5t71.5 27.5q41 0 69.5 -27.5t28.5 -70.5t-28.5 -72t-69.5 -29q-43 0 -71.5 29t-28.5 72z" />
<glyph unicode="&#xa9;" horiz-adv-x="1622" d="M94 690q0 209 90 372t253 253t374 90q213 0 376 -90t252 -253t89 -372t-89 -371.5t-252 -253t-376 -90.5q-211 0 -374 90.5t-253 253t-90 371.5zM197 690q0 -182 76.5 -324.5t215 -222.5t320.5 -80t321.5 80t216 222.5t76.5 324.5t-76.5 324.5t-216 222.5t-321.5 80 t-320.5 -80t-215 -222.5t-76.5 -324.5zM451 690q0 188 103 298t271 110q80 0 157 -30t120 -69v-147q0 -25 -25 -25q-18 0 -28.5 12.5t-16.5 37.5l-16 75q-27 27 -77 41.5t-101 14.5q-117 0 -187.5 -81t-70.5 -237q0 -158 72.5 -239.5t195.5 -81.5q109 0 194 63q20 14 33 14 q14 0 23.5 -11t9.5 -29q0 -31 -53 -66q-90 -59 -215 -59q-178 0 -283.5 110.5t-105.5 298.5z" />
<glyph unicode="&#xaa;" horiz-adv-x="821" d="M115 831q0 166 245 201l181 27v53q0 127 -142 127q-39 0 -87 -13.5t-81 -31.5l-10 -61q-2 -18 -13 -29.5t-26 -11.5q-27 0 -26 24v125q51 33 122.5 54.5t137.5 21.5q109 0 171 -53.5t62 -153.5v-371l53 -14q23 -6 32 -15.5t9 -23.5q0 -20 -18 -20h-180v94h-8 q-35 -49 -89.5 -79t-128.5 -30q-86 0 -145 46t-59 134zM223 834q0 -49 33 -77t92 -28q74 0 133.5 52.5t59.5 121.5v82l-170 -29q-147 -25 -148 -122z" />
<glyph unicode="&#xab;" horiz-adv-x="1050" d="M139 459v53l275 362l94 -73l-211 -316l211 -315l-94 -74zM524 459v53l275 362l94 -73l-211 -316l211 -315l-94 -74z" />
<glyph unicode="&#xac;" horiz-adv-x="1316" d="M158 631v131h983v-473h-152v342h-831z" />
<glyph unicode="&#xad;" horiz-adv-x="602" d="M98 590v135h406v-135h-406z" />
<glyph unicode="&#xae;" horiz-adv-x="966" d="M41 1128q0 127 57.5 227.5t157.5 157t225 56.5q129 0 230.5 -56.5t158 -157t56.5 -227.5t-56.5 -227t-158 -156.5t-230.5 -56.5q-125 0 -225 56.5t-157.5 156.5t-57.5 227zM127 1128q0 -168 99.5 -266t256.5 -98q158 0 258.5 98.5t100.5 265.5q0 168 -100.5 267.5 t-258.5 99.5q-156 0 -256 -99.5t-100 -267.5zM281 936q0 29 36 31h25v327l-27 11q-14 4 -24 10t-10 16q0 18 20 19h205q70 0 108.5 -33t38.5 -90t-32.5 -89t-92.5 -32h-28l139 -139l33 -11q20 -6 26.5 -11t6.5 -15q0 -14 -13 -15h-110l-162 181v-131l26 -9q18 -6 26.5 -12 t8.5 -14q0 -14 -14 -15h-166q-20 1 -20 21zM420 1159h82q76 0 76 68q0 66 -76 65h-82v-133z" />
<glyph unicode="&#xaf;" horiz-adv-x="778" d="M100 1153v113h578v-113h-578z" />
<glyph unicode="&#xb0;" horiz-adv-x="727" d="M98 1376q0 113 75 181.5t189 68.5q115 0 190 -68.5t75 -181.5t-75 -181.5t-190 -68.5q-114 0 -189 69t-75 181zM209 1376q0 -76 44 -117.5t109 -41.5q66 0 109 41.5t43 117.5t-43 118t-109 42t-109.5 -42t-43.5 -118z" />
<glyph unicode="&#xb1;" horiz-adv-x="1140" d="M123 0v111h895v-111h-895zM123 743v111h371v375h153v-375h371v-111h-371v-370h-153v370h-371z" />
<glyph unicode="&#xb2;" horiz-adv-x="653" d="M72 801v88l260 268q61 63 95 115.5t34 97.5q0 61 -37 93t-94 32q-78 0 -154 -41l-14 -65q-6 -31 -16.5 -42.5t-26.5 -11.5q-29 0 -29 27v133q129 80 254 80q102 0 165.5 -54.5t63.5 -154.5q0 -59 -40.5 -124.5t-118.5 -147.5l-207 -213h381v-80h-516z" />
<glyph unicode="&#xb3;" horiz-adv-x="657" d="M51 829v84q53 -23 114.5 -37t115.5 -14q186 0 186 148q0 61 -44 102t-118 41q-23 0 -82 -8l-43 -6v73l90 11q76 10 123 47t47 102q0 123 -141 123q-84 0 -158 -45l-14 -68q-6 -29 -15.5 -40t-25.5 -11q-25 0 -25 23v141q55 37 122 58.5t134 21.5q98 0 165 -48t67 -143 q0 -68 -38 -115.5t-105 -70.5q82 -18 125.5 -70.5t43.5 -128.5q0 -106 -77.5 -160.5t-208.5 -54.5q-66 0 -130.5 13.5t-107.5 31.5z" />
<glyph unicode="&#xb4;" horiz-adv-x="598" d="M156 1157l178 299l123 -80l-209 -278z" />
<glyph unicode="&#xb5;" horiz-adv-x="1257" d="M164 -492l16 590v903h154v-708q0 -92 59.5 -151.5t165.5 -59.5q164 0 309 166v753h154v-854q0 -70 68 -69q51 0 116 39v-90q-33 -20 -82 -36t-94 -16q-59 0 -99 32t-40 95v37h-6q-154 -164 -330 -164q-66 0 -125 26t-102 71l18 -564h-182z" />
<glyph unicode="&#xb6;" horiz-adv-x="1406" d="M190 1090q0 166 111 249.5t297 83.5h549q25 0 24 -24q0 -37 -53 -51l-88 -23v-1438h-119v1440h-139v-1558l330 -21q76 -6 76 -47q0 -29 -25 -29h-631q-33 0 -33 41q0 27 19.5 41.5t54.5 14.5h90v985h-104q-158 0 -258.5 91t-100.5 245z" />
<glyph unicode="&#xb7;" horiz-adv-x="583" d="M174 684q0 53 35 87t84 34t84 -34t35 -87t-34 -86t-85 -33t-85 33t-34 86z" />
<glyph unicode="&#xb8;" horiz-adv-x="784" d="M258 -367q70 23 104.5 59t34.5 81q0 41 -21.5 67.5t-70.5 40.5l43 119h109l-43 -94q100 -39 100 -137q0 -68 -67.5 -121.5t-163.5 -75.5z" />
<glyph unicode="&#xb9;" horiz-adv-x="485" d="M43 831q0 20 14.5 30.5t36.5 10.5h82v611l-127 -41v69l135 48h111v-689l76 -10q47 -6 47 -37q0 -23 -21 -22h-327q-27 -1 -27 30z" />
<glyph unicode="&#xba;" horiz-adv-x="808" d="M102 983q0 156 83 245t221 89q137 0 219 -89t82 -245q0 -154 -82 -243t-219 -89q-138 0 -221 89t-83 243zM213 983q0 -121 50 -187.5t143 -66.5q90 0 140 66.5t50 187.5t-50 188.5t-140 67.5q-92 0 -142.5 -67.5t-50.5 -188.5z" />
<glyph unicode="&#xbb;" horiz-adv-x="1050" d="M160 170l211 315l-211 316l94 73l274 -362v-53l-274 -363zM545 170l211 315l-211 316l94 73l274 -362v-53l-274 -363z" />
<glyph unicode="&#xbc;" horiz-adv-x="1642" d="M76 659q0 20 14 30.5t37 10.5h82v611l-127 -41v69l135 47h111v-688l75 -10q27 -2 37.5 -11t10.5 -26q0 -23 -21 -22h-328q-26 -1 -26 30zM293 29l962 1394l101 -65l-965 -1395zM995 174v82l359 502h127v-504h104v-80h-104v-174h-111v174h-375zM1085 254h277v387z" />
<glyph unicode="&#xbd;" horiz-adv-x="1712" d="M76 659q0 20 14 30.5t37 10.5h82v611l-127 -41v69l135 47h111v-688l75 -10q27 -2 37.5 -11t10.5 -26q0 -23 -21 -22h-328q-26 -1 -26 30zM293 29l962 1394l101 -65l-965 -1395zM1130 0v88l261 266q63 66 96 117t33 98q0 61 -37 93t-94 32q-72 0 -154 -41l-14 -65 q-6 -31 -16.5 -42t-26.5 -11q-29 0 -29 26v133q129 80 254 80q102 0 165.5 -54t63.5 -155q0 -63 -41 -126.5t-123 -149.5l-202 -209h381v-80h-517z" />
<glyph unicode="&#xbe;" horiz-adv-x="1654" d="M55 657v82q119 -49 230 -49q186 0 186 146q0 63 -44 103t-118 40q-2 0 -73 -6l-52 -6v73l90 11q76 8 123 45t47 102q0 63 -37.5 94t-103.5 31q-84 0 -158 -45l-14 -70q-6 -29 -15.5 -40t-25.5 -11q-25 0 -24 23v143q127 80 256 80q98 0 164.5 -48t66.5 -145 q0 -68 -38 -115.5t-105 -70.5q82 -16 126 -68.5t44 -128.5q0 -106 -79 -161.5t-208 -55.5q-66 0 -130.5 13.5t-107.5 33.5zM303 29l963 1394l100 -65l-965 -1395zM1010 174v82l358 502h127v-504h104v-80h-104v-174h-111v174h-374zM1100 254h276v387z" />
<glyph unicode="&#xbf;" horiz-adv-x="968" d="M109 -180q0 104 47 178t133 154q57 55 84.5 95t41 89t13.5 127v199h137v-230q0 -111 -38 -179.5t-128 -156.5q-72 -70 -107.5 -128t-35.5 -142q0 -92 58.5 -143.5t158.5 -51.5q63 0 127 18.5t109 53.5l18 96q6 31 18.5 44.5t32.5 13.5q33 0 33 -25v-182 q-63 -51 -158.5 -87t-193.5 -36q-160 0 -255 77t-95 216zM401 905q0 43 28 69.5t69 26.5q39 0 66.5 -26.5t27.5 -69.5q0 -41 -27.5 -67.5t-66.5 -26.5q-41 0 -69 25.5t-28 68.5z" />
<glyph unicode="&#xc0;" horiz-adv-x="1456" d="M16 43q0 27 19.5 42t54.5 15h62l477 1323h188l477 -1321l90 -20q57 -12 58 -51q0 -31 -23 -31h-415q-16 0 -25.5 11.5t-9.5 31.5q0 27 20.5 42t54.5 15h84l-131 365h-587l-129 -363l120 -24q57 -10 58 -49q0 -29 -23 -29h-385q-35 0 -35 43zM449 575h507l-254 709z M512 1819l123 79l178 -299l-92 -59z" />
<glyph unicode="&#xc1;" horiz-adv-x="1456" d="M16 43q0 27 19.5 42t54.5 15h62l477 1323h188l477 -1321l90 -20q57 -12 58 -51q0 -31 -23 -31h-415q-16 0 -25.5 11.5t-9.5 31.5q0 27 20.5 42t54.5 15h84l-131 365h-587l-129 -363l120 -24q57 -10 58 -49q0 -29 -23 -29h-385q-35 0 -35 43zM449 575h507l-254 709z M623 1597l178 299l123 -79l-209 -279z" />
<glyph unicode="&#xc2;" horiz-adv-x="1456" d="M16 43q0 27 19.5 42t54.5 15h62l477 1323h188l477 -1321l90 -20q57 -12 58 -51q0 -31 -23 -31h-415q-16 0 -25.5 11.5t-9.5 31.5q0 27 20.5 42t54.5 15h84l-131 365h-587l-129 -363l120 -24q57 -10 58 -49q0 -29 -23 -29h-385q-35 0 -35 43zM449 575h507l-254 709z M449 1599l219 279h86l219 -279l-76 -61l-186 203l-187 -203z" />
<glyph unicode="&#xc3;" horiz-adv-x="1456" d="M16 43q0 27 19.5 42t54.5 15h62l477 1323h188l477 -1321l90 -20q57 -12 58 -51q0 -31 -23 -31h-415q-16 0 -25.5 11.5t-9.5 31.5q0 27 20.5 42t54.5 15h84l-131 365h-587l-129 -363l120 -24q57 -10 58 -49q0 -29 -23 -29h-385q-35 0 -35 43zM412 1655q45 41 97 67.5 t97 26.5q27 0 54.5 -9t68.5 -28q70 -35 109 -35q63 0 133 54l57 -78q-43 -41 -93 -66.5t-95 -25.5q-31 0 -57.5 9t-65.5 27q-35 16 -60.5 25.5t-52.5 9.5q-35 0 -66.5 -13t-68.5 -40zM449 575h507l-254 709z" />
<glyph unicode="&#xc4;" horiz-adv-x="1456" d="M16 43q0 27 19.5 42t54.5 15h62l477 1323h188l477 -1321l90 -20q57 -12 58 -51q0 -31 -23 -31h-415q-16 0 -25.5 11.5t-9.5 31.5q0 27 20.5 42t54.5 15h84l-131 365h-587l-129 -363l120 -24q57 -10 58 -49q0 -29 -23 -29h-385q-35 0 -35 43zM420 1661q0 43 28.5 70.5 t71.5 27.5q41 0 69.5 -27.5t28.5 -70.5t-28.5 -71.5t-69.5 -28.5q-43 0 -71.5 28.5t-28.5 71.5zM449 575h507l-254 709zM813 1661q0 43 28.5 70.5t71.5 27.5q41 0 70 -27.5t29 -70.5t-29 -71.5t-70 -28.5q-43 0 -71.5 28.5t-28.5 71.5z" />
<glyph unicode="&#xc5;" horiz-adv-x="1456" d="M16 43q0 27 19.5 42t54.5 15h62l477 1323h188l477 -1321l90 -20q57 -12 58 -51q0 -31 -23 -31h-415q-16 0 -25.5 11.5t-9.5 31.5q0 27 20.5 42t54.5 15h84l-131 365h-587l-129 -363l120 -24q57 -10 58 -49q0 -29 -23 -29h-385q-35 0 -35 43zM449 575h507l-254 709z M530 1694q0 76 52.5 127t136.5 51q86 0 137 -51.5t51 -126.5q0 -76 -51 -127t-137 -51t-137.5 51t-51.5 127zM625 1694q0 -45 26.5 -71t67.5 -26t66.5 26t25.5 71t-25.5 69.5t-66.5 24.5t-67.5 -24.5t-26.5 -69.5z" />
<glyph unicode="&#xc6;" horiz-adv-x="2295" d="M20 43q0 27 19.5 42t54.5 15h62l860 1213l-66 12q-41 8 -59.5 22.5t-18.5 41.5q0 16 8.5 25t20.5 9h1225v-260q0 -29 -31 -28q-41 0 -57 84l-19 96h-690v-533h580l22 92q14 57 45 58q29 0 29 -27v-352q0 -29 -29 -29q-31 0 -45 58l-22 92h-580v-565h717l18 104 q14 84 58 84q31 0 30 -31v-266h-1103q-12 0 -19.5 9t-7.5 26q0 27 18.5 41t57.5 22l67 13v354h-596l-262 -363l121 -24q59 -12 59 -49q0 -29 -22 -29h-410q-35 0 -35 43zM641 575h524v736z" />
<glyph unicode="&#xc7;" horiz-adv-x="1339" d="M96 713q0 236 87 401.5t237.5 249.5t341.5 84q135 0 255 -41t202 -109v-233q0 -31 -31 -31q-25 0 -38 17.5t-22 56.5l-28 141q-53 41 -137 63.5t-179 22.5q-158 0 -275.5 -72.5t-182 -213t-64.5 -336.5q0 -197 68.5 -338.5t190.5 -214t282 -72.5q209 0 334 84 q6 4 20 14.5t29 10.5q18 0 31.5 -15.5t13.5 -36.5q0 -41 -60 -75q-61 -39 -153 -66t-203 -29l-39 -81q100 -43 101 -138q0 -68 -68 -122t-164 -74l-24 59q68 23 103.5 59.5t35.5 79.5q0 41 -21.5 68t-70.5 43l41 111q-180 16 -318.5 104t-216.5 248t-78 381z" />
<glyph unicode="&#xc8;" horiz-adv-x="1400" d="M119 35q0 49 78 63l67 13v1202l-67 12q-41 8 -59.5 22.5t-18.5 41.5q0 16 8 25t20 9h1084v-260q0 -29 -31 -28q-41 0 -57 84l-19 96h-696v-533h586l22 92q14 57 47 58q27 0 27 -27v-352q0 -29 -27 -29q-33 0 -47 58l-22 92h-586v-565h723l18 104q14 84 58 84q31 0 30 -31 v-266h-1110q-12 0 -20 9t-8 26zM526 1819l123 79l178 -299l-92 -59z" />
<glyph unicode="&#xc9;" horiz-adv-x="1400" d="M119 35q0 49 78 63l67 13v1202l-67 12q-41 8 -59.5 22.5t-18.5 41.5q0 16 8 25t20 9h1084v-260q0 -29 -31 -28q-41 0 -57 84l-19 96h-696v-533h586l22 92q14 57 47 58q27 0 27 -27v-352q0 -29 -27 -29q-33 0 -47 58l-22 92h-586v-565h723l18 104q14 84 58 84q31 0 30 -31 v-266h-1110q-12 0 -20 9t-8 26zM584 1599l178 299l123 -79l-209 -279z" />
<glyph unicode="&#xca;" horiz-adv-x="1400" d="M119 35q0 49 78 63l67 13v1202l-67 12q-41 8 -59.5 22.5t-18.5 41.5q0 16 8 25t20 9h1084v-260q0 -29 -31 -28q-41 0 -57 84l-19 96h-696v-533h586l22 92q14 57 47 58q27 0 27 -27v-352q0 -29 -27 -29q-33 0 -47 58l-22 92h-586v-565h723l18 104q14 84 58 84q31 0 30 -31 v-266h-1110q-12 0 -20 9t-8 26zM446 1599l220 279h86l219 -279l-76 -61l-186 203l-187 -203z" />
<glyph unicode="&#xcb;" horiz-adv-x="1400" d="M119 35q0 49 78 63l67 13v1202l-67 12q-41 8 -59.5 22.5t-18.5 41.5q0 16 8 25t20 9h1084v-260q0 -29 -31 -28q-41 0 -57 84l-19 96h-696v-533h586l22 92q14 57 47 58q27 0 27 -27v-352q0 -29 -27 -29q-33 0 -47 58l-22 92h-586v-565h723l18 104q14 84 58 84q31 0 30 -31 v-266h-1110q-12 0 -20 9t-8 26zM430 1661q0 43 28.5 70.5t71.5 27.5q41 0 70 -27.5t29 -70.5t-29 -71.5t-70 -28.5q-43 0 -71.5 28.5t-28.5 71.5zM823 1661q0 43 29 70.5t72 27.5q41 0 69.5 -27.5t28.5 -70.5t-28.5 -71.5t-69.5 -28.5q-43 0 -72 28.5t-29 71.5z" />
<glyph unicode="&#xcc;" horiz-adv-x="718" d="M129 43q0 27 20.5 42t55.5 15h63v1223h-104q-35 0 -35 43q0 27 19.5 42t54.5 15h364q25 0 25 -26q0 -20 -13.5 -31.5t-43.5 -19.5l-103 -25v-1219l103 -24q31 -8 44 -19.5t13 -31.5q0 -27 -25 -27h-403q-35 0 -35 43zM170 1819l123 79l178 -299l-92 -59z" />
<glyph unicode="&#xcd;" horiz-adv-x="718" d="M129 43q0 27 20.5 42t55.5 15h63v1223h-104q-35 0 -35 43q0 27 19.5 42t54.5 15h364q25 0 25 -26q0 -20 -13.5 -31.5t-43.5 -19.5l-103 -25v-1219l103 -24q31 -8 44 -19.5t13 -31.5q0 -27 -25 -27h-403q-35 0 -35 43zM236 1599l178 299l123 -79l-209 -279z" />
<glyph unicode="&#xce;" horiz-adv-x="686" d="M80 1599l219 279h86l219 -279l-76 -61l-186 203l-186 -203zM119 43q0 27 20.5 42t55.5 15h63v1223h-104q-35 0 -35 43q0 27 19.5 42t54.5 15h364q25 0 25 -26q0 -20 -13.5 -31.5t-44.5 -19.5l-102 -25v-1219l102 -24q31 -8 44.5 -19.5t13.5 -31.5q0 -27 -25 -27h-403 q-35 0 -35 43z" />
<glyph unicode="&#xcf;" horiz-adv-x="688" d="M49 1661q0 43 28.5 70.5t72.5 27.5q41 0 69.5 -27.5t28.5 -70.5t-29 -71.5t-69 -28.5q-44 0 -72.5 28.5t-28.5 71.5zM121 43q0 27 20.5 42t55.5 15h63v1223h-104q-35 0 -35 43q0 27 19.5 42t54.5 15h364q25 0 25 -26q0 -20 -13.5 -31.5t-44.5 -19.5l-102 -25v-1219 l102 -24q31 -8 44.5 -19.5t13.5 -31.5q0 -27 -25 -27h-403q-35 0 -35 43zM440 1661q0 43 29 70.5t72 27.5q41 0 69.5 -27.5t28.5 -70.5t-28.5 -71.5t-69.5 -28.5q-43 0 -72 28.5t-29 71.5z" />
<glyph unicode="&#xd0;" horiz-adv-x="1513" d="M123 35q0 27 18.5 41t59.5 22l67 13v557h-137v114h137v531l-67 12q-78 12 -78 64q0 16 8 25t21 9h585q197 0 349.5 -77.5t240.5 -238.5t88 -396q0 -238 -88 -396.5t-240.5 -236.5t-349.5 -78h-585q-13 0 -21 9t-8 26zM430 111h307q240 0 375 157.5t135 442.5t-135 443.5 t-375 158.5h-307v-531h391v-114h-391v-557z" />
<glyph unicode="&#xd1;" horiz-adv-x="1613" d="M119 43q0 27 20.5 42t55.5 15h65v1213l-65 10q-41 6 -58.5 21.5t-17.5 41.5q0 37 31 37h262l700 -1009q59 -86 111 -203v1112h-123q-35 0 -35 43q0 27 19.5 42t54.5 15h338q23 0 22 -26q0 -18 -16.5 -32.5t-42.5 -21.5l-88 -22v-1321h-154l-713 1028q-51 74 -96 180 v-1106l109 -24q31 -6 43 -18.5t12 -32.5q0 -27 -23 -27h-376q-35 0 -35 43zM485 1655q45 41 97.5 67.5t97.5 26.5q27 0 54.5 -9t68.5 -28q70 -35 108 -35q63 0 133 54l58 -78q-43 -41 -93.5 -66.5t-95.5 -25.5q-30 0 -57 9t-65 27q-35 16 -60.5 25.5t-52.5 9.5 q-35 0 -66.5 -13t-68.5 -40z" />
<glyph unicode="&#xd2;" d="M102 709q0 242 82 407.5t228.5 248.5t343.5 83q195 0 342 -83t228 -249t81 -407q0 -360 -176 -547t-475 -187q-197 0 -343.5 81t-228.5 246t-82 407zM268 709q0 -297 126 -460t360 -163q235 0 361 163t126 460q0 299 -126 463.5t-361 164.5q-233 0 -359.5 -164.5 t-126.5 -463.5zM567 1819l123 79l178 -299l-92 -59z" />
<glyph unicode="&#xd3;" d="M102 709q0 242 82 407.5t228.5 248.5t343.5 83q195 0 342 -83t228 -249t81 -407q0 -360 -176 -547t-475 -187q-197 0 -343.5 81t-228.5 246t-82 407zM268 709q0 -297 126 -460t360 -163q235 0 361 163t126 460q0 299 -126 463.5t-361 164.5q-233 0 -359.5 -164.5 t-126.5 -463.5zM616 1597l179 299l123 -79l-209 -279z" />
<glyph unicode="&#xd4;" d="M102 709q0 242 82 407.5t228.5 248.5t343.5 83q195 0 342 -83t228 -249t81 -407q0 -360 -176 -547t-475 -187q-197 0 -343.5 81t-228.5 246t-82 407zM268 709q0 -297 126 -460t360 -163q235 0 361 163t126 460q0 299 -126 463.5t-361 164.5q-233 0 -359.5 -164.5 t-126.5 -463.5zM494 1599l219 279h86l219 -279l-76 -61l-186 203l-187 -203z" />
<glyph unicode="&#xd5;" d="M102 709q0 242 82 407.5t228.5 248.5t343.5 83q195 0 342 -83t228 -249t81 -407q0 -360 -176 -547t-475 -187q-197 0 -343.5 81t-228.5 246t-82 407zM268 709q0 -297 126 -460t360 -163q235 0 361 163t126 460q0 299 -126 463.5t-361 164.5q-233 0 -359.5 -164.5 t-126.5 -463.5zM446 1655q45 41 97.5 67.5t97.5 26.5q27 0 54.5 -9t68.5 -28q70 -35 108 -35q63 0 134 54l57 -78q-43 -41 -93 -66.5t-96 -25.5q-30 0 -56.5 9t-65.5 27q-35 16 -60.5 25.5t-52.5 9.5q-35 0 -66.5 -13t-68.5 -40z" />
<glyph unicode="&#xd6;" d="M102 709q0 242 82 407.5t228.5 248.5t343.5 83q195 0 342 -83t228 -249t81 -407q0 -360 -176 -547t-475 -187q-197 0 -343.5 81t-228.5 246t-82 407zM268 709q0 -297 126 -460t360 -163q235 0 361 163t126 460q0 299 -126 463.5t-361 164.5q-233 0 -359.5 -164.5 t-126.5 -463.5zM459 1661q0 43 28.5 70.5t71.5 27.5q41 0 69.5 -27.5t28.5 -70.5t-28.5 -71.5t-69.5 -28.5q-43 0 -71.5 28.5t-28.5 71.5zM852 1661q0 43 28.5 70.5t71.5 27.5q41 0 70 -27.5t29 -70.5t-29 -71.5t-70 -28.5q-43 0 -71.5 28.5t-28.5 71.5z" />
<glyph unicode="&#xd7;" horiz-adv-x="1212" d="M121 334l375 381l-375 381l108 100l369 -375l369 375l108 -100l-375 -381l375 -381l-108 -98l-369 374l-369 -374z" />
<glyph unicode="&#xd8;" horiz-adv-x="1531" d="M113 709q0 242 81.5 407.5t228 248.5t343.5 83q211 0 360 -94l115 178l102 -57l-124 -193q199 -195 198 -573q0 -360 -176 -547t-475 -187q-193 0 -338 78l-145 -227l-103 57l152 238q-106 92 -162.5 239.5t-56.5 348.5zM279 709q0 -305 131 -467l645 1001 q-117 94 -291 94q-233 0 -359 -164.5t-126 -463.5zM498 160q109 -74 266 -74q235 0 361 163t126 460q0 285 -112 446z" />
<glyph unicode="&#xd9;" horiz-adv-x="1599" d="M88 1366q0 27 19.5 42t54.5 15h364q25 0 25 -26q0 -20 -13.5 -31.5t-43.5 -19.5l-103 -25v-791q0 -213 109.5 -327.5t310.5 -114.5q203 0 312.5 113.5t109.5 328.5v793h-119q-35 0 -35 43q0 27 19.5 42t54.5 15h334q25 0 24 -24q0 -33 -53 -49l-94 -29v-782 q0 -268 -148.5 -416t-410.5 -148q-268 0 -423 147.5t-155 416.5v784h-104q-35 0 -35 43zM633 1819l123 79l178 -299l-92 -59z" />
<glyph unicode="&#xda;" horiz-adv-x="1599" d="M88 1366q0 27 19.5 42t54.5 15h364q25 0 25 -26q0 -20 -13.5 -31.5t-43.5 -19.5l-103 -25v-791q0 -213 109.5 -327.5t310.5 -114.5q203 0 312.5 113.5t109.5 328.5v793h-119q-35 0 -35 43q0 27 19.5 42t54.5 15h334q25 0 24 -24q0 -33 -53 -49l-94 -29v-782 q0 -268 -148.5 -416t-410.5 -148q-268 0 -423 147.5t-155 416.5v784h-104q-35 0 -35 43zM668 1597l178 299l123 -79l-209 -279z" />
<glyph unicode="&#xdb;" horiz-adv-x="1599" d="M88 1366q0 27 19.5 42t54.5 15h364q25 0 25 -26q0 -20 -13.5 -31.5t-43.5 -19.5l-103 -25v-791q0 -213 109.5 -327.5t310.5 -114.5q203 0 312.5 113.5t109.5 328.5v793h-119q-35 0 -35 43q0 27 19.5 42t54.5 15h334q25 0 24 -24q0 -33 -53 -49l-94 -29v-782 q0 -268 -148.5 -416t-410.5 -148q-268 0 -423 147.5t-155 416.5v784h-104q-35 0 -35 43zM545 1599l219 279h86l219 -279l-76 -61l-186 203l-186 -203z" />
<glyph unicode="&#xdc;" horiz-adv-x="1599" d="M88 1366q0 27 19.5 42t54.5 15h364q25 0 25 -26q0 -20 -13.5 -31.5t-43.5 -19.5l-103 -25v-791q0 -213 109.5 -327.5t310.5 -114.5q203 0 312.5 113.5t109.5 328.5v793h-119q-35 0 -35 43q0 27 19.5 42t54.5 15h334q25 0 24 -24q0 -33 -53 -49l-94 -29v-782 q0 -268 -148.5 -416t-410.5 -148q-268 0 -423 147.5t-155 416.5v784h-104q-35 0 -35 43zM510 1661q0 43 28.5 70.5t71.5 27.5q41 0 70 -27.5t29 -70.5t-29 -71.5t-70 -28.5q-43 0 -71.5 28.5t-28.5 71.5zM903 1661q0 43 29 70.5t72 27.5q41 0 69.5 -27.5t28.5 -70.5 t-29 -71.5t-69 -28.5q-43 0 -72 28.5t-29 71.5z" />
<glyph unicode="&#xdd;" horiz-adv-x="1419" d="M25 1366q0 27 19 42t54 15h402q25 0 24 -28q0 -43 -57 -54l-115 -20l369 -578l389 580h-113q-35 0 -34 43q0 27 19 42t54 15h336q23 0 23 -26q0 -35 -49 -49l-101 -27l-469 -694v-525l101 -24q31 -8 44 -19.5t13 -31.5q0 -27 -25 -27h-403q-35 0 -35 43q0 27 20.5 42 t55.5 15h65v506l-458 717h-95q-35 0 -34 43zM584 1599l178 299l123 -79l-209 -279z" />
<glyph unicode="&#xde;" horiz-adv-x="1349" d="M119 43q0 27 20.5 42t55.5 15h63v1223h-104q-35 0 -35 43q0 27 19.5 42t54.5 15h364q25 0 25 -26q0 -20 -13.5 -31.5t-44.5 -19.5l-102 -25v-186q131 41 278 41q242 0 390.5 -117t148.5 -338t-148.5 -338t-390.5 -117q-147 0 -278 41v-205l102 -24q31 -8 44.5 -19.5 t13.5 -31.5q0 -27 -25 -27h-403q-35 0 -35 43zM422 422q143 -45 278 -45q172 0 272.5 87t100.5 257t-100.5 258t-272.5 88q-135 0 -278 -45v-600z" />
<glyph unicode="&#xdf;" horiz-adv-x="1409" d="M119 41q0 27 20.5 41t53.5 14h71v940q0 213 121 327t340 114q121 0 220 -42t156.5 -114t57.5 -156q0 -66 -23.5 -113.5t-66.5 -109.5q-35 -53 -52.5 -87t-17.5 -75q0 -47 29 -86t88 -96q82 -80 125 -146.5t43 -164.5q0 -135 -99.5 -223.5t-271.5 -88.5q-88 0 -178 27 t-151 74v200q0 12 8 20.5t22 8.5q41 0 52 -59l16 -96q41 -33 101.5 -48.5t119.5 -15.5q106 0 164.5 57.5t58.5 149.5q0 78 -36.5 134t-108.5 128q-66 63 -99.5 112.5t-33.5 112.5q0 55 19.5 94t58.5 91q37 53 55 89t18 87q0 98 -78.5 161.5t-199.5 63.5q-150 0 -226.5 -80 t-76.5 -229v-1057h-264q-16 0 -25.5 10t-9.5 31z" />
<glyph unicode="&#xe0;" horiz-adv-x="1081" d="M90 256q0 143 102.5 214t270.5 95l289 43v90q0 100 -61.5 162t-172.5 62q-63 0 -142 -22.5t-130 -55.5l-17 -90q-10 -59 -53 -60q-14 0 -22.5 7.5t-8.5 19.5v186q82 49 189.5 82t206.5 33q160 0 262 -86t102 -240v-602l76 -20q29 -8 42 -19.5t13 -29.5q0 -25 -22 -25 h-258v143h-8q-55 -76 -143.5 -122t-201.5 -46q-129 0 -221 74t-92 207zM246 264q0 -90 57 -137t148 -47q75 0 145 36t113 97t43 135v164l-254 -41q-121 -20 -186.5 -68.5t-65.5 -138.5zM365 1423l122 80l179 -299l-93 -59z" />
<glyph unicode="&#xe1;" horiz-adv-x="1081" d="M90 256q0 143 102.5 214t270.5 95l289 43v90q0 100 -61.5 162t-172.5 62q-63 0 -142 -22.5t-130 -55.5l-17 -90q-10 -59 -53 -60q-14 0 -22.5 7.5t-8.5 19.5v186q82 49 189.5 82t206.5 33q160 0 262 -86t102 -240v-602l76 -20q29 -8 42 -19.5t13 -29.5q0 -25 -22 -25 h-258v143h-8q-55 -76 -143.5 -122t-201.5 -46q-129 0 -221 74t-92 207zM246 264q0 -90 57 -137t148 -47q75 0 145 36t113 97t43 135v164l-254 -41q-121 -20 -186.5 -68.5t-65.5 -138.5zM410 1204l178 299l123 -80l-209 -278z" />
<glyph unicode="&#xe2;" horiz-adv-x="1081" d="M90 256q0 143 102.5 214t270.5 95l289 43v90q0 100 -61.5 162t-172.5 62q-63 0 -142 -22.5t-130 -55.5l-17 -90q-10 -59 -53 -60q-14 0 -22.5 7.5t-8.5 19.5v186q82 49 189.5 82t206.5 33q160 0 262 -86t102 -240v-602l76 -20q29 -8 42 -19.5t13 -29.5q0 -25 -22 -25 h-258v143h-8q-55 -76 -143.5 -122t-201.5 -46q-129 0 -221 74t-92 207zM246 264q0 -90 57 -137t148 -47q75 0 145 36t113 97t43 135v164l-254 -41q-121 -20 -186.5 -68.5t-65.5 -138.5zM268 1206l219 279h86l220 -279l-76 -61l-187 203l-186 -203z" />
<glyph unicode="&#xe3;" horiz-adv-x="1081" d="M90 256q0 143 102.5 214t270.5 95l289 43v90q0 100 -61.5 162t-172.5 62q-63 0 -142 -22.5t-130 -55.5l-17 -90q-10 -59 -53 -60q-14 0 -22.5 7.5t-8.5 19.5v186q82 49 189.5 82t206.5 33q160 0 262 -86t102 -240v-602l76 -20q29 -8 42 -19.5t13 -29.5q0 -25 -22 -25 h-258v143h-8q-55 -76 -143.5 -122t-201.5 -46q-129 0 -221 74t-92 207zM223 1257q45 41 97.5 68t97.5 27q27 0 54.5 -9.5t68.5 -27.5q70 -35 108 -35q63 0 133 53l58 -78q-43 -41 -93.5 -66.5t-95.5 -25.5q-30 0 -57 9.5t-66 27.5q-35 16 -60.5 25.5t-51.5 9.5 q-35 0 -67 -13.5t-68 -39.5zM246 264q0 -90 57 -137t148 -47q75 0 145 36t113 97t43 135v164l-254 -41q-121 -20 -186.5 -68.5t-65.5 -138.5z" />
<glyph unicode="&#xe4;" horiz-adv-x="1081" d="M90 256q0 143 102.5 214t270.5 95l289 43v90q0 100 -61.5 162t-172.5 62q-63 0 -142 -22.5t-130 -55.5l-17 -90q-10 -59 -53 -60q-14 0 -22.5 7.5t-8.5 19.5v186q82 49 189.5 82t206.5 33q160 0 262 -86t102 -240v-602l76 -20q29 -8 42 -19.5t13 -29.5q0 -25 -22 -25 h-258v143h-8q-55 -76 -143.5 -122t-201.5 -46q-129 0 -221 74t-92 207zM246 264q0 -90 57 -137t148 -47q75 0 145 36t113 97t43 135v164l-254 -41q-121 -20 -186.5 -68.5t-65.5 -138.5zM252 1257q0 43 29.5 72t70.5 29t70 -29t29 -72t-29 -71.5t-70 -28.5t-70.5 28.5 t-29.5 71.5zM645 1257q0 43 30 72t70 29q41 0 70 -29t29 -72t-29 -71.5t-70 -28.5q-40 0 -70 28.5t-30 71.5z" />
<glyph unicode="&#xe5;" horiz-adv-x="1081" d="M90 256q0 143 102.5 214t270.5 95l289 43v90q0 100 -61.5 162t-172.5 62q-63 0 -142 -22.5t-130 -55.5l-17 -90q-10 -59 -53 -60q-14 0 -22.5 7.5t-8.5 19.5v186q82 49 189.5 82t206.5 33q160 0 262 -86t102 -240v-602l76 -20q29 -8 42 -19.5t13 -29.5q0 -25 -22 -25 h-258v143h-8q-55 -76 -143.5 -122t-201.5 -46q-129 0 -221 74t-92 207zM246 264q0 -90 57 -137t148 -47q75 0 145 36t113 97t43 135v164l-254 -41q-121 -20 -186.5 -68.5t-65.5 -138.5zM362 1303q0 76 52.5 127t136.5 51q86 0 137 -51.5t51 -126.5q0 -76 -51 -127.5 t-137 -51.5t-137.5 51.5t-51.5 127.5zM457 1303q0 -45 26.5 -71t67.5 -26t66.5 25.5t25.5 71.5q0 45 -25.5 69.5t-66.5 24.5t-67.5 -24.5t-26.5 -69.5z" />
<glyph unicode="&#xe6;" horiz-adv-x="1722" d="M90 248q0 141 97.5 208.5t256.5 92.5l308 47v100q0 106 -64.5 166t-169.5 60q-63 0 -142 -22.5t-130 -55.5l-17 -90q-10 -59 -53 -60q-14 0 -22.5 7.5t-8.5 19.5v186q82 49 189.5 82t206.5 33q111 0 195.5 -52t121.5 -145q59 94 149.5 145.5t209.5 51.5q133 0 229 -54.5 t147.5 -148.5t51.5 -211q0 -61 -27 -127h-717v-24q2 -166 94 -273.5t246 -107.5q78 0 140.5 19.5t123.5 62.5q4 2 17.5 10t25.5 8q16 0 28.5 -14.5t12.5 -34.5t-16.5 -37.5t-46.5 -38.5q-125 -76 -291 -76q-143 0 -253 62.5t-171 179.5q-55 -113 -162.5 -177.5t-245.5 -64.5 q-129 0 -221 72t-92 201zM246 256q0 -84 57 -130t148 -46q73 0 145 41t116 106.5t44 137.5q-2 20 -5 39.5t-6 44.5v49l-266 -41q-109 -18 -171 -65.5t-62 -135.5zM901 582h582q8 33 8 57q0 127 -76 205t-201 78q-133 0 -218 -88.5t-95 -251.5z" />
<glyph unicode="&#xe7;" horiz-adv-x="991" d="M80 500q0 160 59.5 278.5t166 181t247.5 62.5q100 0 198.5 -37t149.5 -86v-182q0 -12 -8 -19.5t-25 -7.5q-20 0 -32.5 13.5t-18.5 44.5l-18 100q-37 33 -100.5 52.5t-129.5 19.5q-152 0 -244 -110t-92 -310q0 -201 95.5 -312.5t251.5 -111.5q139 0 251 80q4 2 16.5 11 t24.5 9q18 0 30.5 -14.5t12.5 -34.5q0 -39 -67 -78q-119 -68 -248 -74l-35 -77q100 -43 101 -138q0 -68 -69 -122t-163 -74l-24 61q70 23 104.5 58.5t34.5 80.5q0 41 -21.5 68t-70.5 41l39 107q-195 25 -305.5 163t-110.5 357z" />
<glyph unicode="&#xe8;" horiz-adv-x="1062" d="M84 492q0 244 127 387t346 143q199 0 313.5 -117t114.5 -311q0 -63 -27 -129h-718q0 -188 96 -288.5t244 -100.5q78 0 140 19.5t124 62.5q4 2 17 10t26 8q18 0 30.5 -14.5t12.5 -34.5q0 -37 -64 -76q-127 -76 -293 -76q-145 0 -255.5 62.5t-172 179.5t-61.5 275zM240 567 h581q8 18 8 58q0 141 -75.5 219t-200.5 78q-131 0 -217 -95.5t-96 -259.5zM362 1423l123 80l179 -299l-93 -59z" />
<glyph unicode="&#xe9;" horiz-adv-x="1062" d="M84 492q0 244 127 387t346 143q199 0 313.5 -117t114.5 -311q0 -63 -27 -129h-718q0 -188 96 -288.5t244 -100.5q78 0 140 19.5t124 62.5q4 2 17 10t26 8q18 0 30.5 -14.5t12.5 -34.5q0 -37 -64 -76q-127 -76 -293 -76q-145 0 -255.5 62.5t-172 179.5t-61.5 275zM240 567 h581q8 18 8 58q0 141 -75.5 219t-200.5 78q-131 0 -217 -95.5t-96 -259.5zM403 1204l179 299l123 -80l-209 -278z" />
<glyph unicode="&#xea;" horiz-adv-x="1062" d="M84 492q0 244 127 387t346 143q199 0 313.5 -117t114.5 -311q0 -63 -27 -129h-718q0 -188 96 -288.5t244 -100.5q78 0 140 19.5t124 62.5q4 2 17 10t26 8q18 0 30.5 -14.5t12.5 -34.5q0 -37 -64 -76q-127 -76 -293 -76q-145 0 -255.5 62.5t-172 179.5t-61.5 275zM240 567 h581q8 18 8 58q0 141 -75.5 219t-200.5 78q-131 0 -217 -95.5t-96 -259.5zM283 1206l219 279h86l219 -279l-76 -61l-186 203l-187 -203z" />
<glyph unicode="&#xeb;" horiz-adv-x="1062" d="M84 492q0 244 127 387t346 143q199 0 313.5 -117t114.5 -311q0 -63 -27 -129h-718q0 -188 96 -288.5t244 -100.5q78 0 140 19.5t124 62.5q4 2 17 10t26 8q18 0 30.5 -14.5t12.5 -34.5q0 -37 -64 -76q-127 -76 -293 -76q-145 0 -255.5 62.5t-172 179.5t-61.5 275zM240 567 h581q8 18 8 58q0 141 -75.5 219t-200.5 78q-131 0 -217 -95.5t-96 -259.5zM248 1257q0 43 29.5 72t70.5 29t69.5 -29t28.5 -72t-28.5 -71.5t-69.5 -28.5t-70.5 28.5t-29.5 71.5zM641 1257q0 43 29.5 72t70.5 29t70 -29t29 -72t-29 -71.5t-70 -28.5t-70.5 28.5t-29.5 71.5z " />
<glyph unicode="&#xec;" horiz-adv-x="595" d="M94 1423l123 80l178 -299l-92 -59zM111 41q0 27 19.5 41t51.5 14h66v809h-105q-33 0 -32 41q0 29 19.5 42t51.5 13h219v-905l97 -22q29 -6 42 -17.5t13 -31.5q0 -25 -25 -25h-385q-32 0 -32 41z" />
<glyph unicode="&#xed;" horiz-adv-x="583" d="M100 41q0 27 19.5 41t52.5 14h66v809h-105q-33 0 -33 41q0 29 19.5 42t52.5 13h219v-905l96 -22q29 -6 42.5 -17.5t13.5 -31.5q0 -25 -25 -25h-385q-33 0 -33 41zM154 1204l178 299l123 -80l-209 -278z" />
<glyph unicode="&#xee;" horiz-adv-x="593" d="M27 1206l219 279h86l219 -279l-76 -61l-186 203l-187 -203zM115 41q0 27 19.5 41t51.5 14h66v809h-105q-33 0 -32 41q0 29 19.5 42t51.5 13h220v-905l96 -22q29 -6 42 -17.5t13 -31.5q0 -25 -25 -25h-385q-32 0 -32 41z" />
<glyph unicode="&#xef;" horiz-adv-x="641" d="M20 1257q0 43 30 72t71 29t69.5 -29t28.5 -72t-28.5 -71.5t-69.5 -28.5t-71 28.5t-30 71.5zM135 41q0 27 19.5 41t52.5 14h65v809h-104q-33 0 -33 41q0 29 19.5 42t52.5 13h219v-905l96 -22q29 -6 42.5 -17.5t13.5 -31.5q0 -25 -25 -25h-385q-33 0 -33 41zM412 1257 q0 43 29.5 72t70.5 29t69.5 -29t28.5 -72t-28.5 -71.5t-69.5 -28.5t-70.5 28.5t-29.5 71.5z" />
<glyph unicode="&#xf0;" horiz-adv-x="1234" d="M109 438q0 186 112.5 296t310.5 110q190 0 375 -127q0 274 -125 432l-231 -105l-39 86l199 89q-125 96 -308 96q-74 0 -149 -19v107q82 20 156 20q266 0 430 -147l247 110l39 -83l-217 -99q80 -100 121 -238.5t41 -303.5q0 -322 -127 -502t-377 -180q-127 0 -231.5 53 t-165.5 156.5t-61 248.5zM274 434q0 -154 84 -249t217 -95q160 0 245 140.5t85 371.5q-66 53 -158 91t-174 38q-141 0 -220 -73.5t-79 -223.5z" />
<glyph unicode="&#xf1;" horiz-adv-x="1277" d="M98 41q0 27 19.5 41t52.5 14h63v809h-102q-33 0 -33 41q0 29 19.5 42t52.5 13h209v-143h6q174 164 358 164q145 0 239.5 -85t94.5 -230v-611l99 -22q55 -12 55 -49q0 -25 -25 -25h-385q-33 0 -33 41q0 27 19.5 41t52.5 14h64v598q0 100 -58.5 160.5t-167.5 60.5 q-80 0 -161.5 -44t-149.5 -119v-656l98 -22q29 -6 42.5 -17.5t13.5 -31.5q0 -25 -25 -25h-385q-33 0 -33 41zM352 1257q45 41 97.5 68t97.5 27q27 0 54.5 -9.5t68.5 -27.5q70 -35 108 -35q63 0 133 53l58 -78q-43 -41 -93.5 -66.5t-95.5 -25.5q-30 0 -57 9.5t-66 27.5 q-35 16 -60.5 25.5t-51.5 9.5q-63 0 -135 -53z" />
<glyph unicode="&#xf2;" horiz-adv-x="1112" d="M82 500q0 244 128 383t345 139q219 0 347 -139.5t128 -382.5q0 -246 -128 -385.5t-347 -139.5t-346 139.5t-127 385.5zM238 500q0 -203 84 -313.5t235 -110.5q150 0 233.5 110.5t83.5 313.5q0 201 -83.5 311.5t-233.5 110.5q-152 0 -235.5 -111t-83.5 -311zM381 1423 l123 80l178 -299l-92 -59z" />
<glyph unicode="&#xf3;" horiz-adv-x="1112" d="M82 500q0 244 128 383t345 139q219 0 347 -139.5t128 -382.5q0 -246 -128 -385.5t-347 -139.5t-346 139.5t-127 385.5zM238 500q0 -203 84 -313.5t235 -110.5q150 0 233.5 110.5t83.5 313.5q0 201 -83.5 311.5t-233.5 110.5q-152 0 -235.5 -111t-83.5 -311zM428 1204 l178 299l123 -80l-209 -278z" />
<glyph unicode="&#xf4;" horiz-adv-x="1112" d="M82 500q0 244 128 383t345 139q219 0 347 -139.5t128 -382.5q0 -246 -128 -385.5t-347 -139.5t-346 139.5t-127 385.5zM238 500q0 -203 84 -313.5t235 -110.5q150 0 233.5 110.5t83.5 313.5q0 201 -83.5 311.5t-233.5 110.5q-152 0 -235.5 -111t-83.5 -311zM293 1206 l219 279h86l219 -279l-76 -61l-186 203l-186 -203z" />
<glyph unicode="&#xf5;" horiz-adv-x="1112" d="M82 500q0 244 128 383t345 139q219 0 347 -139.5t128 -382.5q0 -246 -128 -385.5t-347 -139.5t-346 139.5t-127 385.5zM238 500q0 -203 84 -313.5t235 -110.5q150 0 233.5 110.5t83.5 313.5q0 201 -83.5 311.5t-233.5 110.5q-152 0 -235.5 -111t-83.5 -311zM250 1257 q45 41 97 68t97 27q27 0 54.5 -9.5t68.5 -27.5q70 -35 109 -35q63 0 133 53l57 -78q-43 -41 -93 -66.5t-95 -25.5q-31 0 -57.5 9.5t-65.5 27.5q-35 16 -60.5 25.5t-52.5 9.5q-35 0 -66.5 -13.5t-68.5 -39.5z" />
<glyph unicode="&#xf6;" horiz-adv-x="1112" d="M82 500q0 244 128 383t345 139q219 0 347 -139.5t128 -382.5q0 -246 -128 -385.5t-347 -139.5t-346 139.5t-127 385.5zM238 500q0 -203 84 -313.5t235 -110.5q150 0 233.5 110.5t83.5 313.5q0 201 -83.5 311.5t-233.5 110.5q-152 0 -235.5 -111t-83.5 -311zM260 1257 q0 43 29.5 72t70.5 29t70 -29t29 -72t-29 -71.5t-70 -28.5t-70.5 28.5t-29.5 71.5zM653 1257q0 43 30 72t71 29t69.5 -29t28.5 -72t-28.5 -71.5t-69.5 -28.5t-71 28.5t-30 71.5z" />
<glyph unicode="&#xf7;" horiz-adv-x="1247" d="M127 600v129h993v-129h-993zM526 258q0 43 29 70.5t70 27.5t69.5 -27.5t28.5 -70.5t-28.5 -70.5t-69.5 -27.5t-70 27.5t-29 70.5zM526 1071q0 43 29 70.5t70 27.5t69.5 -27.5t28.5 -70.5t-28.5 -71.5t-69.5 -28.5t-70 28.5t-29 71.5z" />
<glyph unicode="&#xf8;" horiz-adv-x="1095" d="M74 500q0 244 128 383t345 139q139 0 246 -59l88 137l88 -53l-95 -146q72 -68 110 -170t38 -231q0 -246 -128 -385.5t-347 -139.5q-135 0 -238 56l-110 -172l-90 57l114 176q-74 68 -111.5 171.5t-37.5 236.5zM229 500q0 -182 70 -291l428 657q-70 55 -178 56 q-152 0 -236 -111t-84 -311zM373 129q76 -53 176 -53q149 0 233 110.5t84 313.5q0 180 -67 286z" />
<glyph unicode="&#xf9;" horiz-adv-x="1222" d="M51 946q0 29 19.5 42t52.5 13h217v-696q0 -100 58.5 -161.5t166.5 -61.5q80 0 161 45t148 121v657h-102q-33 0 -33 41q0 29 19.5 42t52.5 13h217v-905l82 -22q31 -10 43 -19.5t12 -29.5q0 -25 -24 -25h-258v139h-6q-174 -164 -357 -164q-145 0 -239.5 85t-94.5 233v612 h-102q-33 0 -33 41zM373 1423l123 80l178 -299l-92 -59z" />
<glyph unicode="&#xfa;" horiz-adv-x="1222" d="M51 946q0 29 19.5 42t52.5 13h217v-696q0 -100 58.5 -161.5t166.5 -61.5q80 0 161 45t148 121v657h-102q-33 0 -33 41q0 29 19.5 42t52.5 13h217v-905l82 -22q29 -8 42 -19.5t13 -29.5q0 -25 -24 -25h-258v139h-6q-174 -164 -357 -164q-145 0 -239.5 85t-94.5 233v612 h-102q-33 0 -33 41zM457 1204l178 299l123 -80l-209 -278z" />
<glyph unicode="&#xfb;" horiz-adv-x="1222" d="M51 946q0 29 19.5 42t52.5 13h217v-696q0 -100 58.5 -161.5t166.5 -61.5q80 0 161 45t148 121v657h-102q-33 0 -33 41q0 29 19.5 42t52.5 13h217v-905l82 -22q29 -8 42 -19.5t13 -29.5q0 -25 -24 -25h-258v139h-6q-174 -164 -357 -164q-145 0 -239.5 85t-94.5 233v612 h-102q-33 0 -33 41zM311 1206l219 279h86l220 -279l-76 -61l-187 203l-186 -203z" />
<glyph unicode="&#xfc;" horiz-adv-x="1222" d="M51 946q0 29 19.5 42t52.5 13h217v-696q0 -100 58.5 -161.5t166.5 -61.5q80 0 161 45t148 121v657h-102q-33 0 -33 41q0 29 19.5 42t52.5 13h217v-905l82 -22q29 -8 42 -19.5t13 -29.5q0 -25 -24 -25h-258v139h-6q-174 -164 -357 -164q-145 0 -239.5 85t-94.5 233v612 h-102q-33 0 -33 41zM297 1257q0 43 29.5 72t70.5 29t70 -29t29 -72t-29 -71.5t-70 -28.5t-70.5 28.5t-29.5 71.5zM690 1257q0 43 30 72t71 29t69.5 -29t28.5 -72t-29 -71.5t-69 -28.5q-41 0 -71 28.5t-30 71.5z" />
<glyph unicode="&#xfd;" horiz-adv-x="1122" d="M14 946q0 29 19.5 42t52.5 13h346q25 0 25 -24q0 -18 -15.5 -31.5t-40.5 -17.5l-108 -25l270 -688q6 -14 7 -35.5t1 -27.5h9q0 6 2 28.5t6 34.5l268 690h-127q-33 0 -33 41q0 55 72 55h322q23 0 22 -24q0 -33 -55 -49l-84 -25l-385 -989q-66 -166 -168.5 -270.5 t-241.5 -104.5q-39 0 -64.5 20.5t-25.5 57.5q0 29 14 55q145 0 227.5 53.5t133.5 186.5l33 88l-365 905h-84q-33 0 -33 41zM424 1204l178 299l123 -80l-209 -278z" />
<glyph unicode="&#xfe;" horiz-adv-x="1251" d="M113 -395q0 27 19.5 41t51.5 14h64v1698h-103q-33 0 -32 41q0 29 19.5 42t51.5 13h213v-584l6 -2q61 76 147.5 115t188.5 39q193 0 312.5 -133t119.5 -397q0 -256 -138 -386.5t-359 -130.5q-63 0 -136 17.5t-137 46.5v-379l99 -22q29 -6 42 -17.5t13 -32.5q0 -25 -25 -24 h-385q-32 0 -32 41zM401 154q53 -35 128 -56.5t137 -21.5q178 0 264 106.5t86 306.5q0 225 -86 329t-232 104q-78 0 -146.5 -34t-109.5 -92.5t-41 -127.5v-514z" />
<glyph unicode="&#xff;" horiz-adv-x="1122" d="M14 946q0 29 19.5 42t52.5 13h346q25 0 25 -24q0 -18 -15.5 -31.5t-40.5 -17.5l-108 -25l270 -688q6 -14 7 -35.5t1 -27.5h9q0 6 2 28.5t6 34.5l268 690h-127q-33 0 -33 41q0 55 72 55h322q23 0 22 -24q0 -33 -55 -49l-84 -25l-385 -989q-66 -166 -168.5 -270.5 t-241.5 -104.5q-39 0 -64.5 20.5t-25.5 57.5q0 29 14 55q145 0 227.5 53.5t133.5 186.5l33 88l-365 905h-84q-33 0 -33 41zM281 1257q0 43 29.5 72t70.5 29t69.5 -29t28.5 -72t-28.5 -71.5t-69.5 -28.5t-70.5 28.5t-29.5 71.5zM672 1257q0 43 29.5 72t70.5 29t69.5 -29 t28.5 -72t-28.5 -71.5t-69.5 -28.5t-70.5 28.5t-29.5 71.5z" />
<glyph unicode="&#x152;" horiz-adv-x="2168" d="M102 713q0 236 89.5 401.5t244 249.5t348.5 84q104 0 209 -25h1006v-260q0 -29 -29 -28q-23 0 -36 19.5t-21 64.5l-19 96h-690v-533h578l24 92q10 31 20.5 44.5t24.5 13.5q29 0 29 -27v-352q0 -29 -29 -29q-14 0 -24 13.5t-21 44.5l-24 92h-578v-565h717l18 104 q14 84 58 84q31 0 31 -31v-266h-938q-133 -25 -252 -25q-213 0 -379 80t-261.5 246t-95.5 412zM268 713q0 -197 71 -338.5t197 -214t289 -72.5q129 1 215 21v1202q-102 25 -215 24q-256 0 -406.5 -159.5t-150.5 -462.5z" />
<glyph unicode="&#x153;" horiz-adv-x="1855" d="M82 500q0 244 128 383t345 139q139 0 240.5 -65.5t158.5 -182.5q57 117 157.5 182.5t238.5 65.5q199 0 313.5 -117t114.5 -311q0 -68 -29 -129h-717q2 -186 98.5 -287.5t241.5 -101.5q74 0 133.5 20.5t130.5 61.5q4 2 17.5 10t25.5 8q16 0 29.5 -14.5t13.5 -34.5 t-16 -37.5t-49 -38.5q-125 -76 -291 -76q-141 0 -247.5 67t-164.5 185q-57 -119 -158.5 -185.5t-240.5 -66.5q-219 0 -346 139.5t-127 385.5zM238 500q0 -203 84 -313.5t235 -110.5q150 0 233.5 110.5t83.5 313.5q0 201 -83.5 311.5t-233.5 110.5q-152 0 -235.5 -111 t-83.5 -311zM1032 567h582q8 18 8 58q0 141 -76 219t-200 78q-131 0 -217.5 -95.5t-96.5 -259.5z" />
<glyph unicode="&#x178;" horiz-adv-x="1419" d="M25 1366q0 27 19 42t54 15h402q25 0 24 -28q0 -43 -57 -54l-115 -20l369 -578l389 580h-113q-35 0 -34 43q0 27 19 42t54 15h336q23 0 23 -26q0 -35 -49 -49l-101 -27l-469 -694v-525l101 -24q31 -8 44 -19.5t13 -31.5q0 -27 -25 -27h-403q-35 0 -35 43q0 27 20.5 42 t55.5 15h65v506l-458 717h-95q-35 0 -34 43zM408 1661q0 43 28.5 70.5t71.5 27.5q41 0 69.5 -27.5t28.5 -70.5t-28.5 -71.5t-69.5 -28.5q-43 0 -71.5 28.5t-28.5 71.5zM801 1661q0 43 28.5 70.5t71.5 27.5q41 0 69.5 -27.5t28.5 -70.5t-28.5 -71.5t-69.5 -28.5 q-43 0 -71.5 28.5t-28.5 71.5z" />
<glyph unicode="&#x2c6;" horiz-adv-x="833" d="M156 1159l219 279h86l219 -279l-76 -61l-186 202l-187 -202z" />
<glyph unicode="&#x2dc;" horiz-adv-x="811" d="M98 1219q45 41 97.5 67.5t97.5 26.5q27 0 54.5 -9.5t68.5 -27.5q70 -35 108 -35q63 0 133 53l58 -77q-43 -41 -93.5 -67t-95.5 -26q-30 0 -57 9.5t-66 27.5q-35 16 -60.5 25.5t-51.5 9.5q-35 0 -66.5 -13.5t-68.5 -39.5z" />
<glyph unicode="&#x2000;" horiz-adv-x="949" />
<glyph unicode="&#x2001;" horiz-adv-x="1898" />
<glyph unicode="&#x2002;" horiz-adv-x="949" />
<glyph unicode="&#x2003;" horiz-adv-x="1898" />
<glyph unicode="&#x2004;" horiz-adv-x="632" />
<glyph unicode="&#x2005;" horiz-adv-x="474" />
<glyph unicode="&#x2006;" horiz-adv-x="316" />
<glyph unicode="&#x2007;" horiz-adv-x="316" />
<glyph unicode="&#x2008;" horiz-adv-x="237" />
<glyph unicode="&#x2009;" horiz-adv-x="379" />
<glyph unicode="&#x200a;" horiz-adv-x="105" />
<glyph unicode="&#x2010;" horiz-adv-x="657" d="M53 590v131h553v-131h-553z" />
<glyph unicode="&#x2011;" horiz-adv-x="657" d="M53 590v131h553v-131h-553z" />
<glyph unicode="&#x2012;" horiz-adv-x="657" d="M53 590v131h553v-131h-553z" />
<glyph unicode="&#x2013;" horiz-adv-x="1030" d="M27 573v129h977v-129h-977z" />
<glyph unicode="&#x2014;" horiz-adv-x="1828" d="M27 573v129h1775v-129h-1775z" />
<glyph unicode="&#x2018;" horiz-adv-x="552" d="M133 1034q25 106 83 229t128 207l76 -45q-41 -61 -81 -161.5t-48 -169.5l71 -23q27 -10 27 -35q0 -27 -16.5 -42t-40.5 -15q-18 0 -33 6z" />
<glyph unicode="&#x2019;" horiz-adv-x="552" d="M133 1016q41 59 81 160.5t48 169.5l-72 24q-27 6 -26 35q0 27 16.5 41t42.5 14q20 0 31 -4l166 -49q-25 -106 -84.5 -230t-126.5 -208z" />
<glyph unicode="&#x201a;" horiz-adv-x="569" d="M141 -209q47 66 87 164t46 162l-65 22q-27 6 -27 35q0 27 16.5 41t43.5 14q14 0 22 -2l178 -39q-25 -111 -84 -234.5t-133 -213.5z" />
<glyph unicode="&#x201c;" horiz-adv-x="888" d="M133 1034q25 106 83 229t128 207l76 -45q-41 -61 -81 -161.5t-48 -169.5l71 -23q27 -10 27 -35q0 -27 -16.5 -42t-40.5 -15q-18 0 -33 6zM471 1034q25 106 83 229t128 207l76 -45q-41 -61 -81 -161.5t-48 -169.5l71 -23q27 -10 27 -35q0 -27 -16.5 -42t-40.5 -15 q-18 0 -33 6z" />
<glyph unicode="&#x201d;" horiz-adv-x="888" d="M133 1016q41 59 81 160.5t48 169.5l-72 24q-27 6 -26 35q0 27 16.5 41t42.5 14q20 0 31 -4l166 -49q-25 -106 -84.5 -230t-126.5 -208zM471 1016q41 59 81 160.5t48 169.5l-72 24q-27 6 -26 35q0 27 16.5 41t42.5 14q20 0 31 -4l166 -49q-25 -106 -84.5 -230t-126.5 -208 z" />
<glyph unicode="&#x201e;" horiz-adv-x="911" d="M141 -209q47 66 87 164t46 162l-65 22q-27 6 -27 35q0 27 16.5 41t43.5 14q14 0 22 -2l178 -39q-25 -111 -84 -234.5t-133 -213.5zM483 -209q47 66 87 164t46 162l-65 22q-27 6 -27 35q0 27 16.5 41t43.5 14q14 0 22 -2l178 -39q-25 -111 -84 -234.5t-133 -213.5z" />
<glyph unicode="&#x2022;" horiz-adv-x="786" d="M190 551q0 88 57.5 144.5t143.5 56.5q90 0 147.5 -56.5t57.5 -144.5q0 -90 -57.5 -147.5t-147.5 -57.5q-86 0 -143.5 57.5t-57.5 147.5z" />
<glyph unicode="&#x2026;" horiz-adv-x="1462" d="M160 84q0 47 30.5 79t77.5 32t78 -32t31 -79q0 -45 -31 -77t-78 -32q-45 0 -76.5 32t-31.5 77zM623 84q0 47 30.5 79t77.5 32t78 -32t31 -79q0 -45 -31 -77t-78 -32q-45 0 -76.5 32t-31.5 77zM1085 84q0 47 31 79t78 32t78 -32t31 -79q0 -45 -31 -77t-78 -32 q-45 0 -77 32t-32 77z" />
<glyph unicode="&#x202f;" horiz-adv-x="379" />
<glyph unicode="&#x2039;" horiz-adv-x="665" d="M139 459v53l275 362l94 -73l-211 -316l211 -315l-94 -74z" />
<glyph unicode="&#x203a;" horiz-adv-x="665" d="M160 170l211 315l-211 316l94 73l274 -362v-53l-274 -363z" />
<glyph unicode="&#x205f;" horiz-adv-x="474" />
<glyph unicode="&#x20ac;" horiz-adv-x="1396" d="M51 463v108h932v-108h-559q51 -182 181 -280.5t315 -98.5q190 0 327 84q6 4 21.5 14.5t27.5 10.5q16 0 30.5 -14.5t14.5 -35.5q0 -45 -59 -75q-68 -37 -168 -65t-213 -28q-244 0 -416 125t-231 363h-203zM53 760v108h187q45 268 218 411.5t421 143.5q133 0 250.5 -40 t199.5 -107v-227q0 -33 -33 -33q-23 0 -35 17.5t-22 56.5l-29 137q-55 43 -136 65.5t-173 22.5q-199 0 -330 -117t-168 -330h580v-108h-930z" />
<glyph unicode="&#x2122;" horiz-adv-x="1308" d="M31 1317v106h450v-106q0 -23 -22 -23q-20 0 -29 33l-8 33h-123v-404l39 -8q29 -6 29 -26q0 -16 -13 -17h-190q-8 0 -13.5 6.5t-5.5 14.5q0 33 35 32h33v402h-125l-6 -33q-8 -33 -29 -33q-23 0 -22 23zM483 930q0 31 35 31h27l71 401l-30 10q-33 10 -33 29q0 10 7 16t15 6 h160l129 -438l127 438h160q8 0 14 -6t6 -16q0 -23 -32 -31l-29 -8l74 -404l37 -8q25 -6 24 -26q0 -18 -18 -19h-180q-8 0 -14.5 7.5t-6.5 17.5q0 14 9 22.5t24 8.5h37l-60 364h-6l-123 -420h-100l-125 418h-6l-64 -365l54 -10q29 -6 28 -24q0 -18 -14 -19h-176 q-8 0 -14.5 7.5t-6.5 17.5z" />
<glyph unicode="&#x25fc;" horiz-adv-x="1003" d="M0 0v1004h1004v-1004h-1004z" />
</font>
</defs>
</svg>
